<?xml version="1.0" standalone="no"?>
<!DOCTYPE svg PUBLIC "-//W3C//DTD SVG 1.0//EN" "http://www.w3.org/TR/2001/REC-SVG-20010904/DTD/svg10.dtd">
<svg xmlns="http://www.w3.org/2000/svg" xmlns:xlink="http://www.w3.org/1999/xlink" id="body_1" width="400" height="84">

<defs>
    <clipPath  id="1">

    <path id=""  clip-rule="evenodd" transform="matrix(1 0 0 1 0 0)"  d="M0 63L0 0L0 0L300 0L300 0L300 63L300 63L0 63z" />    </clipPath>
</defs>

<g transform="matrix(1.3333 0 0 1.3333 0 0)">
	<g clip-path="url(#1)" >
    <path id=""  transform="matrix(1 0 0 -1 0 63)"  d="M46.5 18.781502C 46.5 18.729752 45.6615 18.687752 44.63625 18.687752L44.63625 18.687752L44.63625 18.687752C 43.611748 18.687752 42.8385 18.729 42.918 18.779251L42.918 18.779251L42.918 18.779251C 43.1085 18.90075 46.5 18.902248 46.5 18.781502M98.850006 18.907501C 98.320496 18.8835 97.4205 18.8835 96.84975 18.90675L96.84975 18.90675L96.84975 18.90675C 96.27899 18.93 96.712494 18.949501 97.81276 18.949501L97.81276 18.949501L97.81276 18.949501C 98.91225 18.949501 99.3795 18.930752 98.850006 18.907501M38.333252 18.84375C 38.334 18.723751 37.89975 18.696 36.479248 18.72525L36.479248 18.72525L36.479248 18.72525C 34.030502 18.77475 34.030502 18.999748 36.479248 18.999748L36.479248 18.999748L36.479248 18.999748C 37.87875 18.999748 38.333252 18.961502 38.333252 18.84375M119.037 19.031998C 118.542 19.00875 117.69825 19.00875 117.162 19.031998L117.162 19.031998L117.162 19.031998C 116.625755 19.055252 117.03151 19.074749 118.06276 19.074749L118.06276 19.074749L118.06276 19.074749C 119.09401 19.0755 119.532005 19.056 119.037 19.031998M75.168 19.03125C 75.20025 18.9795 74.364746 18.9375 73.3125 18.9375L73.3125 18.9375L73.3125 18.9375C 72.260254 18.9375 71.42475 18.9795 71.457 19.03125L71.457 19.03125L71.457 19.03125C 71.4885 19.083 72.324 19.125 73.3125 19.125L73.3125 19.125L73.3125 19.125C 74.301 19.125 75.1365 19.083 75.168 19.03125M147.81224 19.2915C 146.2935 19.199997 144.74924 19.195503 144.75 19.280998L144.75 19.280998L144.75 19.280998C 144.75 19.332748 145.5795 19.36425 146.59349 19.35225L146.59349 19.35225L146.59349 19.35225C 147.6075 19.3395 148.15651 19.311752 147.81224 19.2915M123.28725 19.282501C 122.791504 19.2585 121.947754 19.2585 121.41225 19.28175L121.41225 19.28175L121.41225 19.28175C 120.876 19.305752 121.28099 19.324501 122.31224 19.325249L122.31224 19.325249L122.31224 19.325249C 123.34349 19.325249 123.78225 19.305752 123.28725 19.282501M93.69675 19.1535C 92.6025 19.134003 91.66275 19.16175 91.609505 19.215748L91.609505 19.215748L91.609505 19.215748C 91.5555 19.269001 92.451 19.284752 93.600006 19.250252L93.600006 19.250252L95.68725 19.188L95.68725 19.188L93.69675 19.1535M86.34375 19.282501C 85.8795 19.2585 85.1205 19.2585 84.65625 19.282501L84.65625 19.282501L84.65625 19.282501C 84.192 19.3065 84.57225 19.326 85.5 19.326L85.5 19.326L85.5 19.326C 86.42775 19.326 86.808 19.3065 86.34375 19.282501M78.287254 19.282501C 77.791504 19.2585 76.947754 19.2585 76.412254 19.28175L76.412254 19.28175L76.412254 19.28175C 75.876 19.305752 76.281 19.324501 77.31225 19.325249L77.31225 19.325249L77.31225 19.325249C 78.3435 19.325249 78.78225 19.305752 78.287254 19.282501M30.2085 19.2915C 30.068249 19.151249 30.1155 18.999748 30.299248 18.999748L30.299248 18.999748L30.299248 18.999748C 30.39525 18.999748 30.5055 19.0845 30.54525 19.187248L30.54525 19.187248L30.54525 19.187248C 30.617252 19.3755 30.369 19.452 30.2085 19.2915M173.00026 19.3125C 173.00026 19.154251 172.71675 19.125 171.201 19.125L171.201 19.125L171.201 19.125C 169.71675 19.125 169.389 19.157997 169.32974 19.3125L169.32974 19.3125L169.32974 19.3125C 169.2675 19.473751 169.51724 19.5 171.129 19.5L171.129 19.5L171.129 19.5C 172.7085 19.5 173.00026 19.470749 173.00026 19.3125M156.75 19.3125C 156.75 19.154251 156.465 19.125 154.93724 19.125L154.93724 19.125L154.93724 19.125C 153.4095 19.125 153.12526 19.154251 153.12526 19.3125L153.12526 19.3125L153.12526 19.3125C 153.12526 19.470749 153.4095 19.5 154.93724 19.5L154.93724 19.5L154.93724 19.5C 156.465 19.5 156.75 19.470749 156.75 19.3125M131.21849 19.406998C 130.686 19.38375 129.81375 19.38375 129.28125 19.406998L129.28125 19.406998L129.28125 19.406998C 128.74875 19.430252 129.18451 19.449749 130.25026 19.449749L130.25026 19.449749L130.25026 19.449749C 131.316 19.449749 131.75175 19.430252 131.21849 19.406998M103.71901 19.280998C 103.75949 19.157997 102.91725 19.131 99.729004 19.1535L99.729004 19.1535L95.68725 19.182L95.68725 19.182L99.68776 19.248001L99.68776 19.248001L99.68776 19.248001C 103.0995 19.304249 103.41225 19.32375 101.8125 19.3815L101.8125 19.3815L99.9375 19.44825L99.9375 19.44825L101.801994 19.443L101.801994 19.443L101.801994 19.443C 103.179 19.439247 103.68075 19.3965 103.71901 19.280998M91.37475 19.374748C 91.37475 19.2975 90.69 19.250252 89.57025 19.250252L89.57025 19.250252L89.57025 19.250252C 88.501495 19.250252 87.7335 19.30125 87.68775 19.374748L87.68775 19.374748L87.68775 19.374748C 87.6375 19.456501 88.26975 19.5 89.49225 19.5L89.49225 19.5L89.49225 19.5C 90.664505 19.5 91.37475 19.452751 91.37475 19.374748M66.75 19.374748C 66.75 19.2975 66.10425 19.250252 65.0625 19.250252L65.0625 19.250252L65.0625 19.250252C 64.02075 19.250252 63.375 19.2975 63.375 19.374748L63.375 19.374748L63.375 19.374748C 63.375 19.452 64.02075 19.5 65.0625 19.5L65.0625 19.5L65.0625 19.5C 66.10425 19.5 66.75 19.452 66.75 19.374748M204.78676 19.53225C 204.29175 19.509003 203.448 19.508251 202.91176 19.53225L202.91176 19.53225L202.91176 19.53225C 202.37625 19.5555 202.78125 19.574997 203.8125 19.574997L203.8125 19.574997L203.8125 19.574997C 204.84375 19.574997 205.2825 19.556252 204.78676 19.53225M168.75 19.305752C 168.75 19.156502 168.44925 19.125 167.0415 19.125L167.0415 19.125L167.0415 19.125C 166.10175 19.125 165.3705 19.16175 165.4155 19.2075L165.4155 19.2075L165.4155 19.2075C 165.4605 19.252499 165.44699 19.35075 165.384 19.42575L165.384 19.42575L165.384 19.42575C 165.30301 19.524002 165.76276 19.55175 167.01 19.52475L167.01 19.52475L167.01 19.52475C 168.4275 19.494 168.75 19.453499 168.75 19.305752M242.31226 19.625252C 242.26651 19.551003 241.49849 19.5 240.42975 19.5L240.42975 19.5L240.42975 19.5C 239.31 19.5 238.62524 19.547249 238.62524 19.625252L238.62524 19.625252L238.62524 19.625252C 238.62524 19.7025 239.33551 19.749748 240.50775 19.749748L240.50775 19.749748L240.50775 19.749748C 241.73026 19.749748 242.36249 19.706253 242.31226 19.625252M209.625 19.625252C 209.625 19.546501 208.98601 19.50975 207.906 19.525501L207.906 19.525501L206.18774 19.55175L206.18774 19.55175L207.87524 19.625252L207.87524 19.625252L207.87524 19.625252C 208.803 19.665749 209.57625 19.71 209.5935 19.72425L209.5935 19.72425L209.5935 19.72425C 209.61075 19.738503 209.625 19.6935 209.625 19.625252M184.41225 19.657501C 183.9165 19.6335 183.07275 19.6335 182.53725 19.65675L182.53725 19.65675L182.53725 19.65675C 182.001 19.680752 182.40599 19.699501 183.43724 19.700249L183.43724 19.700249L183.43724 19.700249C 184.46849 19.700249 184.90726 19.680752 184.41225 19.657501M151.78725 19.657501C 151.2915 19.6335 150.44775 19.6335 149.91225 19.65675L149.91225 19.65675L149.91225 19.65675C 149.376 19.680752 149.78099 19.699501 150.81224 19.700249L150.81224 19.700249L150.81224 19.700249C 151.84349 19.700249 152.28226 19.680752 151.78725 19.657501M140.31224 19.625252C 140.26651 19.551003 139.4985 19.5 138.42975 19.5L138.42975 19.5L138.42975 19.5C 137.31 19.5 136.62526 19.547249 136.62526 19.625252L136.62526 19.625252L136.62526 19.625252C 136.62526 19.7025 137.3355 19.749748 138.50775 19.749748L138.50775 19.749748L138.50775 19.749748C 139.73026 19.749748 140.36249 19.706253 140.31224 19.625252M135.59401 19.65675C 135.06075 19.6335 134.18925 19.6335 133.65599 19.65675L133.65599 19.65675L133.65599 19.65675C 133.1235 19.680752 133.55925 19.699501 134.625 19.699501L134.625 19.699501L134.625 19.699501C 135.69075 19.699501 136.1265 19.680752 135.59401 19.65675M245.66176 19.781998C 245.16675 19.75875 244.323 19.75875 243.78676 19.781998L243.78676 19.781998L243.78676 19.781998C 243.25125 19.805252 243.65625 19.824749 244.6875 19.824749L244.6875 19.824749L244.6875 19.824749C 245.71875 19.8255 246.1575 19.806 245.66176 19.781998M220.06274 19.626747C 219.0315 19.5915 218.17351 19.590748 218.15625 19.625252L218.15625 19.625252L218.15625 19.625252C 218.13974 19.659 217.2675 19.68375 216.219 19.679249L216.219 19.679249L214.3125 19.671001L214.3125 19.671001L216.1875 19.7415L216.1875 19.7415L216.1875 19.7415C 217.21875 19.780502 218.93399 19.785 219.99976 19.751999L219.99976 19.751999L221.93774 19.69125L221.93774 19.69125L220.06274 19.626747M197.625 19.78125C 197.62576 19.7295 197.07675 19.7025 196.40625 19.720497L196.40625 19.720497L196.40625 19.720497C 194.14801 19.781998 193.92676 19.828499 195.7815 19.851753L195.7815 19.851753L195.7815 19.851753C 196.7955 19.864502 197.625 19.833 197.625 19.78125M160.72424 19.719002C 160.82774 19.594498 160.45801 19.570503 158.92725 19.59975L158.92725 19.59975L158.92725 19.59975C 156.4545 19.64775 156.34724 19.875 158.7975 19.875L158.7975 19.875L158.7975 19.875C 160.08224 19.875 160.63126 19.83075 160.72424 19.719002M267.06226 19.875C 267.1125 19.793999 266.46 19.749748 265.19473 19.749748L265.19473 19.749748L265.19473 19.749748C 263.982 19.749748 263.25 19.797 263.25 19.875L263.25 19.875L263.25 19.875C 263.25 19.953 263.95575 20.000252 265.1175 20.000252L265.1175 20.000252L265.1175 20.000252C 266.2275 20.000252 267.0165 19.94925 267.06226 19.875M225.156 19.90725C 224.658 19.883251 223.842 19.883251 223.344 19.90725L223.344 19.90725L223.344 19.90725C 222.84526 19.931252 223.25323 19.949997 224.25 19.949997L224.25 19.949997L224.25 19.949997C 225.24677 19.949997 225.65474 19.931252 225.156 19.90725M270.75 20.000252C 270.75 19.83675 267.62775 19.83675 267.375 20.000252L267.375 20.000252L267.375 20.000252C 267.249 20.081253 267.7725 20.12175 268.96875 20.123253L268.96875 20.123253L268.96875 20.123253C 270.07425 20.124 270.75 20.0775 270.75 20.000252M188.625 19.95525C 188.934 19.93275 188.38574 19.911 187.40625 19.90725L187.40625 19.90725L187.40625 19.90725C 186.42676 19.902748 185.64825 19.9365 185.67525 19.980751L185.67525 19.980751L185.67525 19.980751C 185.7225 20.057999 187.40549 20.043747 188.625 19.95525M266.037 20.156998C 265.542 20.13375 264.69824 20.13375 264.162 20.156998L264.162 20.156998L264.162 20.156998C 263.62576 20.180252 264.0315 20.199749 265.06274 20.199749L265.06274 20.199749L265.06274 20.199749C 266.094 20.2005 266.532 20.181 266.037 20.156998M246.5625 20.375252C 246.51375 20.29575 244.99649 20.25 242.42252 20.25L242.42252 20.25L242.42252 20.25C 239.38351 20.25 238.383 20.214 238.44977 20.105999L238.44977 20.105999L238.44977 20.105999C 238.5075 20.012249 238.48349 19.99575 238.3815 20.05875L238.3815 20.05875L238.3815 20.05875C 238.16476 20.19225 209.75851 20.24025 209.67676 20.10675L209.67676 20.10675L209.67676 20.10675C 209.586 19.96125 206.25 19.969498 206.25 20.11575L206.25 20.11575L206.25 20.11575C 206.25 20.181751 205.23001 20.2365 203.865 20.244751L203.865 20.244751L203.865 20.244751C 202.26974 20.25375 201.50624 20.216251 201.55875 20.130749L201.55875 20.130749L201.55875 20.130749C 201.60226 20.06025 201.56474 20.0265 201.4755 20.055752L201.4755 20.055752L201.4755 20.055752C 201.3855 20.085 198.65474 20.14275 195.4065 20.183998L195.4065 20.183998L195.4065 20.183998C 189.98625 20.25375 189.01724 20.2155 189.65625 19.9575L189.65625 19.9575L189.65625 19.9575C 189.74251 19.923 189.68625 19.89 189.53099 19.88475L189.53099 19.88475L189.53099 19.88475C 189.36 19.87875 189.24974 19.948502 189.24974 20.0625L189.24974 20.0625L189.24974 20.0625C 189.24974 20.334 185.607 20.3415 185.38199 20.070751L185.38199 20.070751L185.38199 20.070751C 185.25375 19.916252 183.804 19.89975 175.11674 19.949997L175.11674 19.949997L175.11674 19.949997C 169.5525 19.98225 165 19.964249 165 19.910252L165 19.910252L165 19.910252C 165.00076 19.856247 163.27576 19.862999 161.16826 19.9245L161.16826 19.9245L161.16826 19.9245C 158.25749 20.00925 157.236 20.000252 156.92026 19.885498L156.92026 19.885498L156.92026 19.885498C 156.44176 19.713001 152.71576 19.71825 152.823 19.89225L152.823 19.89225L152.823 19.89225C 152.85976 19.9515 151.9335 20.000252 150.765 20.000252L150.765 20.000252L150.765 20.000252C 149.409 20.000252 148.61026 19.952251 148.5585 19.868252L148.5585 19.868252L148.5585 19.868252C 148.50525 19.78275 147.774 19.7445 146.4915 19.759499L146.4915 19.759499L146.4915 19.759499C 145.3995 19.772247 144.5355 19.831501 144.573 19.891499L144.573 19.891499L144.573 19.891499C 144.6465 20.011497 142.59674 20.01075 138.894 19.89075L138.894 19.89075L138.894 19.89075C 137.5635 19.848 136.44975 19.854752 136.41826 19.906502L136.41826 19.906502L136.41826 19.906502C 136.347 20.022 134.89575 20.025002 131.2125 19.917747L131.2125 19.917747L131.2125 19.917747C 129.65701 19.87275 128.41425 19.787998 128.44951 19.730247L128.44951 19.730247L128.44951 19.730247C 128.526 19.60725 128.55525 19.60875 126.375 19.625252L126.375 19.625252L126.375 19.625252C 125.446495 19.632 124.64775 19.677002 124.59975 19.724998L124.59975 19.724998L124.59975 19.724998C 124.550995 19.772999 125.29649 19.795502 126.25575 19.774502L126.25575 19.774502L126.25575 19.774502C 127.417496 19.749748 128.00026 19.780502 128.00026 19.868252L128.00026 19.868252L128.00026 19.868252C 128.00026 19.95375 127.42125 19.9995 126.34349 19.998001L126.34349 19.998001L126.34349 19.998001C 124.542755 19.996498 124.125 19.935753 124.125 19.67625L124.125 19.67625L124.125 19.67625C 124.125 19.535252 123.13725 19.514252 118.28099 19.5495L118.28099 19.5495L118.28099 19.5495C 115.06725 19.57275 113.253 19.554752 114.24974 19.50975L114.24974 19.50975L116.0625 19.42725L116.0625 19.42725L114.2265 19.401001L114.2265 19.401001L114.2265 19.401001C 113.08949 19.38525 112.35976 19.4235 112.311005 19.50225L112.311005 19.50225L112.311005 19.50225C 112.207504 19.669502 99.66225 19.661251 99.55875 19.493252L99.55875 19.493252L99.55875 19.493252C 99.51675 19.42575 98.70225 19.386002 97.6485 19.401001L97.6485 19.401001L95.8125 19.42725L95.8125 19.42725L97.6875 19.494751L97.6875 19.494751L97.6875 19.494751C 98.71875 19.53225 92.23575 19.57425 83.2815 19.589249L83.2815 19.589249L83.2815 19.589249C 72.2415 19.60725 66.99975 19.574997 66.99975 19.487999L66.99975 19.487999L66.99975 19.487999C 66.99975 19.4175 67.065 19.40025 67.1445 19.449749L67.1445 19.449749L67.1445 19.449749C 67.23375 19.504501 67.254745 19.483501 67.19925 19.394249L67.19925 19.394249L67.19925 19.394249C 67.07175 19.187248 66.87525 19.2165 66.87525 19.44225L66.87525 19.44225L66.87525 19.44225C 66.87525 19.663498 63.188248 19.705498 62.92425 19.487999L62.92425 19.487999L62.92425 19.487999C 62.845497 19.4235 60.1425 19.373253 56.63775 19.370998L56.63775 19.370998L56.63775 19.370998C 53.256004 19.3695 50.514748 19.3275 50.545498 19.278L50.545498 19.278L50.545498 19.278C 50.57625 19.2285 49.665 19.223999 48.519753 19.267498L48.519753 19.267498L48.519753 19.267498C 43.69425 19.45425 38.5785 19.395752 38.763752 19.156502L38.763752 19.156502L38.763752 19.156502C 38.90175 18.978 38.8815 18.98175 38.65425 19.175251L38.65425 19.175251L38.65425 19.175251C 38.5005 19.3065 38.37525 19.362751 38.37525 19.300499L38.37525 19.300499L38.37525 19.300499C 38.37525 19.23375 37.26525 19.22625 35.6565 19.28175L35.6565 19.28175L35.6565 19.28175C 31.41375 19.429497 30.679499 19.387497 30.71925 18.999748L30.71925 18.999748L30.71925 18.999748C 30.7365 18.828 30.70875 18.75 30.657 18.8265L30.657 18.8265L30.657 18.8265C 30.548248 18.987 30.1995 18.87975 30.161999 18.674248L30.161999 18.674248L30.161999 18.674248C 30.132748 18.513752 50.498253 18.53175 50.7585 18.693L50.7585 18.693L50.7585 18.693C 50.858246 18.754501 50.88225 18.737251 50.8245 18.644249L50.8245 18.644249L50.8245 18.644249C 50.7585 18.53775 51.2895 18.500252 52.875 18.500252L52.875 18.500252L52.875 18.500252C 54.27 18.500252 54.98775 18.543747 54.9375 18.624748L54.9375 18.624748L54.9375 18.624748C 54.817497 18.819 58.44 18.78975 58.755753 18.594002L58.755753 18.594002L58.755753 18.594002C 58.9575 18.46875 59.027252 18.46875 59.10675 18.596249L59.10675 18.596249L59.10675 18.596249C 59.184753 18.722252 61.271248 18.754501 69.29025 18.753002L69.29025 18.753002L69.29025 18.753002C 78.159744 18.7515 79.37475 18.773247 79.37475 18.938248L79.37475 18.938248L79.37475 18.938248C 79.37475 19.041 79.431 19.125 79.5 19.125L79.5 19.125L79.5 19.125C 79.569 19.125 79.62525 19.050003 79.62525 18.9585L79.62525 18.9585L79.62525 18.9585C 79.62525 18.73425 91.582504 18.69825 91.8675 18.921001L91.8675 18.921001L91.8675 18.921001C 92.00925 19.031998 92.02575 19.026001 91.9455 18.89175L91.9455 18.89175L91.9455 18.89175C 91.859245 18.7485 93.42675 18.729 101.85899 18.76725L101.85899 18.76725L101.85899 18.76725C 108.460495 18.797249 111.86099 18.855 111.833244 18.9375L111.833244 18.9375L111.833244 18.9375C 111.76724 19.137001 108.231 19.170002 108.104996 18.972L108.104996 18.972L108.104996 18.972C 108.03075 18.855 108.003 18.87075 108.00226 19.03125L108.00226 19.03125L108.00226 19.03125C 108 19.230751 108.17775 19.250252 110.00026 19.250252L110.00026 19.250252L110.00026 19.250252C 111.9795 19.250252 112.07625 19.230751 112.01475 18.84375L112.01475 18.84375L112.01475 18.84375C 112.0065 18.792 113.82825 18.75 116.0625 18.75L116.0625 18.75L116.0625 18.75C 120.15525 18.75 120.20775 18.755249 120.136505 19.1655L120.136505 19.1655L120.136505 19.1655C 120.126755 19.2225 120.173996 19.2345 120.2415 19.192501L120.2415 19.192501L120.2415 19.192501C 120.309006 19.151249 120.333 19.02 120.2955 18.902248L120.2955 18.902248L120.2955 18.902248C 120.238495 18.72525 120.249 18.71925 120.3555 18.869999L120.3555 18.869999L120.3555 18.869999C 120.467995 19.029 122.583 19.047749 136.63199 19.014751L136.63199 19.014751L136.63199 19.014751C 146.745 18.9915 152.75175 19.020752 152.706 19.095001L152.706 19.095001L152.706 19.095001C 152.6655 19.160252 152.71951 19.32 152.82526 19.4505L152.82526 19.4505L152.82526 19.4505C 153.00826 19.67625 153.0135 19.6725 152.949 19.3665L152.949 19.3665L152.8815 19.045502L152.8815 19.045502L165.05176 19.020752L165.05176 19.020752L165.05176 19.020752C 175.82774 18.999 177.23026 19.01775 177.29475 19.185753L177.29475 19.185753L177.29475 19.185753C 177.3555 19.34475 177.66225 19.370998 179.21475 19.3485L179.21475 19.3485L181.06276 19.322998L181.06276 19.322998L179.18776 19.250252L179.18776 19.250252L177.31276 19.177498L177.31276 19.177498L179.4105 19.151249L179.4105 19.151249L179.4105 19.151249C 180.99301 19.131748 181.52249 19.16325 181.5675 19.280998L181.5675 19.280998L181.5675 19.280998C 181.61551 19.405502 186.56174 19.432499 205.8135 19.412998L205.8135 19.412998L205.8135 19.412998C 220.97925 19.397247 230.00024 19.432499 230.00024 19.506748L230.00024 19.506748L230.00024 19.506748C 230.00024 19.57425 229.26074 19.636497 228.28125 19.652248L228.28125 19.652248L226.56226 19.679249L226.56226 19.679249L228.249 19.719002L228.249 19.719002L228.249 19.719002C 229.73026 19.75275 229.9545 19.73175 230.09323 19.542L230.09323 19.542L230.09323 19.542C 230.21552 19.374 230.28448 19.359749 230.40074 19.47525L230.40074 19.47525L230.40074 19.47525C 230.505 19.58025 231.09299 19.616997 232.36876 19.598999L232.36876 19.598999L234.1875 19.57275L234.1875 19.57275L232.3125 19.5L232.3125 19.5L232.3125 19.5C 231.20248 19.457253 232.9455 19.4175 236.58751 19.403248L236.58751 19.403248L236.58751 19.403248C 240.50024 19.388252 242.76599 19.424248 242.81401 19.50225L242.81401 19.50225L242.81401 19.50225C 242.86125 19.578 244.38675 19.625252 246.82349 19.625252L246.82349 19.625252L246.82349 19.625252C 250.20525 19.625252 250.76775 19.6515 250.83 19.812752L250.83 19.812752L250.83 19.812752C 250.90726 20.015251 254.5455 20.103752 254.66852 19.906502L254.66852 19.906502L254.66852 19.906502C 254.70076 19.854752 253.908 19.82925 252.9075 19.85025L252.9075 19.85025L252.9075 19.85025C 251.90701 19.87125 251.03775 19.837502 250.9755 19.77525L250.9755 19.77525L250.9755 19.77525C 250.90875 19.7085 255.81075 19.66275 263.05725 19.66275L263.05725 19.66275L275.25076 19.66275L275.25076 19.66275L275.22525 20.00475L275.22525 20.00475L275.199 20.3475L275.199 20.3475L271.19324 20.4315L271.19324 20.4315L271.19324 20.4315C 265.77148 20.54625 254.87625 20.470497 254.87552 20.319L254.87552 20.319L254.87552 20.319C 254.87552 20.25375 254.80725 20.26725 254.72475 20.34975L254.72475 20.34975L254.72475 20.34975C 254.49301 20.582253 250.88998 20.558998 250.79999 20.324997L250.79999 20.324997L250.79999 20.324997C 250.76326 20.228249 250.638 20.168251 250.52249 20.189999L250.52249 20.189999L250.52249 20.189999C 250.40701 20.212502 249.53549 20.235 248.586 20.24025L248.586 20.24025L248.586 20.24025C 247.47 20.24625 246.88727 20.29425 246.9375 20.375252L246.9375 20.375252L246.9375 20.375252C 246.98026 20.4435 246.93076 20.499748 246.82724 20.499748L246.82724 20.499748L246.82724 20.499748C 246.7245 20.499748 246.60526 20.4435 246.5625 20.375252" stroke="none" fill="#C49C2C" fill-rule="evenodd" />
    <path id=""  transform="matrix(1 0 0 -1 0 63)"  d="M31.661999 18.53175C 32.19825 18.5085 33.042 18.5085 33.537 18.532501L33.537 18.532501L33.537 18.532501C 34.031998 18.555752 33.594 18.575249 32.56275 18.575249L32.56275 18.575249L32.56275 18.575249C 31.5315 18.574501 31.12575 18.555752 31.661999 18.53175M54.9375 18.624748C 54.983246 18.550499 55.774498 18.500252 56.889748 18.500252L56.889748 18.500252L56.889748 18.500252C 58.10775 18.500252 58.73775 18.543747 58.6875 18.624748L58.6875 18.624748L58.6875 18.624748C 58.641754 18.698997 57.850502 18.75 56.735252 18.75L56.735252 18.75L56.735252 18.75C 55.51725 18.75 54.88725 18.706501 54.9375 18.624748M48.81225 18.624748L48.81225 18.624748L48.81225 18.624748L46.81275 18.55275L46.81275 18.55275L48.774 18.5265L48.774 18.5265L48.774 18.5265C 49.97625 18.510002 50.765247 18.548248 50.8125 18.624748L50.8125 18.624748L50.8125 18.624748C 50.855247 18.693748 50.8725 18.737999 50.8515 18.723751L50.8515 18.723751L50.8515 18.723751C 50.82975 18.708748 49.912502 18.664501 48.81225 18.624748M45.52575 18.656998C 45.024002 18.633003 44.2365 18.63375 43.776 18.65775L43.776 18.65775L43.776 18.65775C 43.31475 18.681751 43.725 18.701252 44.68725 18.7005L44.68725 18.7005L44.68725 18.7005C 45.65025 18.7005 46.0275 18.681 45.52575 18.656998M84.46875 18.78225C 84.9675 18.758251 85.782745 18.758251 86.2815 18.78225L86.2815 18.78225L86.2815 18.78225C 86.7795 18.806252 86.371506 18.824997 85.37475 18.824997L85.37475 18.824997L85.37475 18.824997C 84.378 18.824997 83.97 18.806252 84.46875 18.78225M42.8955 18.76575C 42.576 18.5625 43.13925 18.48975 44.88975 18.507L44.88975 18.507L44.88975 18.507C 46.30725 18.521248 46.596 18.555 46.5405 18.699749L46.5405 18.699749L46.5405 18.699749C 46.464 18.89925 43.199997 18.9585 42.8955 18.76575M96.84975 18.90675C 97.4205 18.8835 98.320496 18.8835 98.850006 18.907501L98.850006 18.907501L98.850006 18.907501C 99.3795 18.930752 98.91225 18.949501 97.81276 18.949501L97.81276 18.949501L97.81276 18.949501C 96.712494 18.949501 96.27899 18.93 96.84975 18.90675M34.62525 18.881248C 34.62525 18.813 35.418 18.74625 36.479248 18.72525L36.479248 18.72525L36.479248 18.72525C 37.89975 18.696 38.334 18.723751 38.333252 18.84375L38.333252 18.84375L38.333252 18.84375C 38.333252 18.961502 37.87875 18.999748 36.479248 18.999748L36.479248 18.999748L36.479248 18.999748C 35.39175 18.999748 34.62525 18.951 34.62525 18.881248M157.91174 19.031998C 158.448 19.00875 159.29175 19.00875 159.78674 19.031998L159.78674 19.031998L159.78674 19.031998C 160.2825 19.056 159.84375 19.0755 158.8125 19.074749L158.8125 19.074749L158.8125 19.074749C 157.78125 19.074749 157.37625 19.055252 157.91174 19.031998M121.41225 19.031998C 121.947754 19.00875 122.791504 19.00875 123.28725 19.031998L123.28725 19.031998L123.28725 19.031998C 123.78225 19.056 123.34349 19.0755 122.31224 19.074749L122.31224 19.074749L122.31224 19.074749C 121.28099 19.074749 120.876 19.055252 121.41225 19.031998M117.162 19.031998C 117.69825 19.00875 118.542 19.00875 119.037 19.031998L119.037 19.031998L119.037 19.031998C 119.532005 19.056 119.09401 19.0755 118.06276 19.074749L118.06276 19.074749L118.06276 19.074749C 117.03151 19.074749 116.625755 19.055252 117.162 19.031998M79.37475 18.9375C 79.37475 18.834747 79.431 18.75 79.5 18.75L79.5 18.75L79.5 18.75C 79.569 18.75 79.62525 18.834747 79.62525 18.9375L79.62525 18.9375L79.62525 18.9375C 79.62525 19.041 79.569 19.125 79.5 19.125L79.5 19.125L79.5 19.125C 79.431 19.125 79.37475 19.041 79.37475 18.9375M71.457 19.03125C 71.42475 18.9795 72.260254 18.9375 73.3125 18.9375L73.3125 18.9375L73.3125 18.9375C 74.364746 18.9375 75.20025 18.9795 75.168 19.03125L75.168 19.03125L75.168 19.03125C 75.1365 19.083 74.301 19.125 73.3125 19.125L73.3125 19.125L73.3125 19.125C 72.324 19.125 71.4885 19.083 71.457 19.03125M108.024 19.03125C 108.0615 18.834747 108.255 18.812248 109.908005 18.807L109.908005 18.807L111.75 18.80175L111.75 18.80175L109.938 18.84225L109.938 18.84225L109.938 18.84225C 107.522995 18.894753 107.526 19.125 109.94176 19.125L109.94176 19.125L109.94176 19.125C 111.43724 19.125 111.77025 19.092003 111.8295 18.938248L111.8295 18.938248L111.8295 18.938248C 111.86925 18.835499 111.948746 18.78075 112.007996 18.817501L112.007996 18.817501L112.007996 18.817501C 112.0665 18.8535 112.082245 18.965248 112.044 19.066502L112.044 19.066502L112.044 19.066502C 111.926994 19.370998 107.9655 19.336502 108.024 19.03125M177.33301 19.2915C 177.28725 19.24575 177.2505 19.1475 177.252 19.07325L177.252 19.07325L177.252 19.07325C 177.25275 18.989998 177.29175 18.99675 177.351 19.0905L177.351 19.0905L177.351 19.0905C 177.41776 19.195503 178.005 19.25475 179.25525 19.28175L179.25525 19.28175L181.06276 19.32L181.06276 19.32L179.2395 19.347752L179.2395 19.347752L179.2395 19.347752C 178.23676 19.362751 177.3795 19.33725 177.33301 19.2915M144.75 19.280998C 144.74924 19.23 145.29825 19.202251 145.96875 19.221L145.96875 19.221L145.96875 19.221C 148.227 19.282501 148.44824 19.32825 146.59349 19.35225L146.59349 19.35225L146.59349 19.35225C 145.5795 19.36425 144.75 19.332748 144.75 19.280998M121.41225 19.28175C 121.947754 19.2585 122.791504 19.2585 123.28725 19.282501L123.28725 19.282501L123.28725 19.282501C 123.78225 19.305752 123.34349 19.325249 122.31224 19.325249L122.31224 19.325249L122.31224 19.325249C 121.28099 19.324501 120.876 19.305752 121.41225 19.28175M91.609505 19.215748C 91.66275 19.16175 92.6025 19.134003 93.69675 19.1535L93.69675 19.1535L95.68725 19.188L95.68725 19.188L93.600006 19.250252L93.600006 19.250252L93.600006 19.250252C 92.451 19.284752 91.5555 19.269001 91.609505 19.215748M84.65625 19.282501C 85.1205 19.2585 85.8795 19.2585 86.34375 19.282501L86.34375 19.282501L86.34375 19.282501C 86.808 19.3065 86.42775 19.326 85.5 19.326L85.5 19.326L85.5 19.326C 84.57225 19.326 84.192 19.3065 84.65625 19.282501M76.412254 19.28175C 76.947754 19.2585 77.791504 19.2585 78.287254 19.282501L78.287254 19.282501L78.287254 19.282501C 78.78225 19.305752 78.3435 19.325249 77.31225 19.325249L77.31225 19.325249L77.31225 19.325249C 76.281 19.324501 75.876 19.305752 76.412254 19.28175M47.56275 19.2915C 49.08075 19.199997 50.597248 19.195503 50.54325 19.280998L50.54325 19.280998L50.54325 19.280998C 50.51175 19.332748 49.686752 19.36425 48.711 19.35225L48.711 19.35225L48.711 19.35225C 47.736 19.3395 47.2185 19.311752 47.56275 19.2915M35.0625 19.290749C 36.561 19.200752 38.37525 19.194748 38.37525 19.280998L38.37525 19.280998L38.37525 19.280998C 38.37525 19.332748 37.48875 19.36425 36.4065 19.35225L36.4065 19.35225L36.4065 19.35225C 35.3235 19.3395 34.719 19.311752 35.0625 19.290749M30.53775 19.206001C 30.48225 19.112999 30.35325 18.999748 30.24975 18.95475L30.24975 18.95475L30.24975 18.95475C 30.14175 18.90675 30.179249 18.894001 30.337502 18.9225L30.337502 18.9225L30.337502 18.9225C 30.489 18.951 30.63675 18.909 30.666 18.83025L30.666 18.83025L30.666 18.83025C 30.6945 18.7515 30.71175 18.84225 30.702751 19.03125L30.702751 19.03125L30.702751 19.03125C 30.685501 19.425003 30.674248 19.437 30.53775 19.206001M182.53725 19.406998C 183.07275 19.38375 183.9165 19.38375 184.41225 19.406998L184.41225 19.406998L184.41225 19.406998C 184.90726 19.431 184.46849 19.4505 183.43724 19.449749L183.43724 19.449749L183.43724 19.449749C 182.40599 19.449749 182.001 19.430252 182.53725 19.406998M169.32974 19.3125C 169.389 19.157997 169.71675 19.125 171.201 19.125L171.201 19.125L171.201 19.125C 172.71675 19.125 173.00026 19.154251 173.00026 19.3125L173.00026 19.3125L173.00026 19.3125C 173.00026 19.470749 172.7085 19.5 171.129 19.5L171.129 19.5L171.129 19.5C 169.51724 19.5 169.2675 19.473751 169.32974 19.3125M153.12526 19.3125C 153.12526 19.154251 153.4095 19.125 154.93724 19.125L154.93724 19.125L154.93724 19.125C 156.465 19.125 156.75 19.154251 156.75 19.3125L156.75 19.3125L156.75 19.3125C 156.75 19.470749 156.465 19.5 154.93724 19.5L154.93724 19.5L154.93724 19.5C 153.4095 19.5 153.12526 19.470749 153.12526 19.3125M129.28125 19.406998C 129.81375 19.38375 130.686 19.38375 131.21849 19.406998L131.21849 19.406998L131.21849 19.406998C 131.75175 19.430252 131.316 19.449749 130.25026 19.449749L130.25026 19.449749L130.25026 19.449749C 129.18451 19.449749 128.74875 19.430252 129.28125 19.406998M101.8125 19.3815C 103.41225 19.32375 103.0995 19.304249 99.68776 19.248001L99.68776 19.248001L95.68725 19.182L95.68725 19.182L99.729004 19.1535L99.729004 19.1535L99.729004 19.1535C 102.91725 19.131 103.75949 19.157997 103.71901 19.280998L103.71901 19.280998L103.71901 19.280998C 103.68075 19.3965 103.179 19.439247 101.801994 19.443L101.801994 19.443L99.9375 19.44825L99.9375 19.44825L101.8125 19.3815M87.68775 19.374748C 87.7335 19.30125 88.501495 19.250252 89.57025 19.250252L89.57025 19.250252L89.57025 19.250252C 90.69 19.250252 91.37475 19.2975 91.37475 19.374748L91.37475 19.374748L91.37475 19.374748C 91.37475 19.452751 90.664505 19.5 89.49225 19.5L89.49225 19.5L89.49225 19.5C 88.26975 19.5 87.6375 19.456501 87.68775 19.374748M230.45624 19.531502C 230.424 19.479752 230.96927 19.452 231.66751 19.470749L231.66751 19.470749L231.66751 19.470749C 233.96552 19.529999 234.216 19.57875 232.3515 19.602001L232.3515 19.602001L232.3515 19.602001C 231.34125 19.61475 230.4885 19.5825 230.45624 19.531502M202.91176 19.53225C 203.448 19.508251 204.29175 19.509003 204.78676 19.53225L204.78676 19.53225L204.78676 19.53225C 205.2825 19.556252 204.84375 19.574997 203.8125 19.574997L203.8125 19.574997L203.8125 19.574997C 202.78125 19.574997 202.37625 19.5555 202.91176 19.53225M165.384 19.42575C 165.44699 19.35075 165.4605 19.252499 165.4155 19.2075L165.4155 19.2075L165.4155 19.2075C 165.3705 19.16175 166.10175 19.125 167.0415 19.125L167.0415 19.125L167.0415 19.125C 168.44925 19.125 168.75 19.156502 168.75 19.305752L168.75 19.305752L168.75 19.305752C 168.75 19.453499 168.4275 19.494 167.01 19.52475L167.01 19.52475L167.01 19.52475C 165.76276 19.55175 165.30301 19.524002 165.384 19.42575M152.76 19.393501C 152.67825 19.24125 152.67075 19.1115 152.74051 19.068L152.74051 19.068L152.74051 19.068C 152.80501 19.029 152.89424 19.11375 152.94 19.257748L152.94 19.257748L152.94 19.257748C 153.0525 19.612503 152.92725 19.706253 152.76 19.393501M121.41225 19.53225C 121.947754 19.508251 122.791504 19.509003 123.28725 19.53225L123.28725 19.53225L123.28725 19.53225C 123.78225 19.556252 123.34349 19.574997 122.31224 19.574997L122.31224 19.574997L122.31224 19.574997C 121.28099 19.574997 120.876 19.5555 121.41225 19.53225M112.35976 19.4655C 112.413 19.411499 113.268005 19.38375 114.25949 19.403248L114.25949 19.403248L116.0625 19.4385L116.0625 19.4385L114.162 19.500748L114.162 19.500748L114.162 19.500748C 113.11725 19.5345 112.30575 19.518753 112.35976 19.4655M97.6875 19.5L97.6875 19.5L97.6875 19.5L95.8125 19.42725L95.8125 19.42725L97.6485 19.401001L97.6485 19.401001L97.6485 19.401001C 98.7675 19.38525 99.51524 19.4235 99.5625 19.5L99.5625 19.5L99.5625 19.5C 99.605255 19.569 99.6225 19.61325 99.6015 19.598999L99.6015 19.598999L99.6015 19.598999C 99.57974 19.584747 98.71875 19.53975 97.6875 19.5M84.7185 19.53225C 85.217255 19.508251 86.0325 19.508251 86.53125 19.53225L86.53125 19.53225L86.53125 19.53225C 87.03 19.556252 86.622 19.574997 85.62525 19.574997L85.62525 19.574997L85.62525 19.574997C 84.62775 19.574997 84.2205 19.556252 84.7185 19.53225M63.34125 19.40625C 63.41475 19.215748 66.75 19.17825 66.75 19.368752L66.75 19.368752L66.75 19.368752C 66.75 19.435501 65.99775 19.503002 65.01601 19.52475L65.01601 19.52475L65.01601 19.52475C 63.6675 19.554 63.294746 19.527748 63.34125 19.40625M268.0935 19.657501C 268.59222 19.6335 269.4075 19.6335 269.90625 19.657501L269.90625 19.657501L269.90625 19.657501C 270.405 19.680752 269.997 19.700249 269.00024 19.700249L269.00024 19.700249L269.00024 19.700249C 268.00275 19.700249 267.59552 19.680752 268.0935 19.657501M256.03723 19.65675C 256.57275 19.6335 257.4165 19.6335 257.91223 19.657501L257.91223 19.657501L257.91223 19.657501C 258.40726 19.680752 257.9685 19.700249 256.93726 19.700249L256.93726 19.700249L256.93726 19.700249C 255.906 19.699501 255.501 19.680752 256.03723 19.65675M238.5915 19.59375C 238.545 19.472252 238.9365 19.446 240.35925 19.47525L240.35925 19.47525L240.35925 19.47525C 242.8425 19.527 242.988 19.749748 240.53848 19.749748L240.53848 19.749748L240.53848 19.749748C 239.14426 19.749748 238.63574 19.709251 238.5915 19.59375M228.24524 19.658249C 229.3845 19.6305 229.96275 19.568249 230.03549 19.464748L230.03549 19.464748L230.03549 19.464748C 230.1135 19.355247 230.13 19.364998 230.09323 19.5L230.09323 19.5L230.09323 19.5C 230.05124 19.65525 229.73926 19.688248 228.30226 19.6935L228.30226 19.6935L226.56226 19.699501L226.56226 19.699501L228.24524 19.658249M207.87524 19.625252L207.87524 19.625252L207.87524 19.625252L206.18774 19.55175L206.18774 19.55175L207.906 19.525501L207.906 19.525501L207.906 19.525501C 208.98601 19.50975 209.625 19.546501 209.625 19.625252L209.625 19.625252L209.625 19.625252C 209.625 19.6935 209.61075 19.738503 209.5935 19.72425L209.5935 19.72425L209.5935 19.72425C 209.57625 19.71 208.803 19.665749 207.87524 19.625252M182.53725 19.65675C 183.07275 19.6335 183.9165 19.6335 184.41225 19.657501L184.41225 19.657501L184.41225 19.657501C 184.90726 19.680752 184.46849 19.700249 183.43724 19.700249L183.43724 19.700249L183.43724 19.700249C 182.40599 19.699501 182.001 19.680752 182.53725 19.65675M149.91225 19.65675C 150.44775 19.6335 151.2915 19.6335 151.78725 19.657501L151.78725 19.657501L151.78725 19.657501C 152.28226 19.680752 151.84349 19.700249 150.81224 19.700249L150.81224 19.700249L150.81224 19.700249C 149.78099 19.699501 149.376 19.680752 149.91225 19.65675M136.62526 19.625252C 136.62526 19.547249 137.31 19.5 138.42975 19.5L138.42975 19.5L138.42975 19.5C 139.4985 19.5 140.26651 19.551003 140.31224 19.625252L140.31224 19.625252L140.31224 19.625252C 140.36249 19.706253 139.73026 19.749748 138.50775 19.749748L138.50775 19.749748L138.50775 19.749748C 137.3355 19.749748 136.62526 19.7025 136.62526 19.625252M243.78676 19.781998C 244.323 19.75875 245.16675 19.75875 245.66176 19.781998L245.66176 19.781998L245.66176 19.781998C 246.1575 19.806 245.71875 19.8255 244.6875 19.824749L244.6875 19.824749L244.6875 19.824749C 243.65625 19.824749 243.25125 19.805252 243.78676 19.781998M216.1875 19.7415L216.1875 19.7415L216.1875 19.7415L214.3125 19.671001L214.3125 19.671001L216.2205 19.679249L216.2205 19.679249L216.2205 19.679249C 217.61777 19.68525 218.1135 19.648502 218.07225 19.542747L218.07225 19.542747L218.07225 19.542747C 218.03177 19.436249 218.538 19.401001 219.97726 19.41L219.97726 19.41L221.93774 19.422L221.93774 19.422L220.06274 19.495499L220.06274 19.495499L218.18774 19.569L218.18774 19.569L220.06274 19.629002L220.06274 19.629002L221.93774 19.688248L221.93774 19.688248L219.99976 19.7505L219.99976 19.7505L219.99976 19.7505C 218.93399 19.784252 217.21875 19.780502 216.1875 19.7415M194.56274 19.791C 196.08148 19.700249 197.62576 19.695 197.625 19.78125L197.625 19.78125L197.625 19.78125C 197.625 19.833 196.7955 19.864502 195.7815 19.851753L195.7815 19.851753L195.7815 19.851753C 194.7675 19.839 194.2185 19.812 194.56274 19.791M263.25 19.875C 263.25 19.797 263.982 19.749748 265.19473 19.749748L265.19473 19.749748L265.19473 19.749748C 266.46 19.749748 267.1125 19.793999 267.06226 19.875L267.06226 19.875L267.06226 19.875C 267.0165 19.94925 266.2275 20.000252 265.1175 20.000252L265.1175 20.000252L265.1175 20.000252C 263.95575 20.000252 263.25 19.953 263.25 19.875M250.82324 19.79475C 250.75876 19.62825 250.77826 19.617752 250.92375 19.738503L250.92375 19.738503L250.92375 19.738503C 251.04974 19.843498 251.64526 19.8765 252.91501 19.85025L252.91501 19.85025L252.91501 19.85025C 253.91176 19.82925 254.70076 19.854752 254.66852 19.906502L254.66852 19.906502L254.66852 19.906502C 254.5365 20.118 250.9065 20.013 250.82324 19.79475M223.344 19.90725C 223.842 19.883251 224.658 19.883251 225.156 19.90725L225.156 19.90725L225.156 19.90725C 225.65474 19.931252 225.24677 19.949997 224.25 19.949997L224.25 19.949997L224.25 19.949997C 223.25323 19.949997 222.84526 19.931252 223.344 19.90725M182.21849 19.90725C 182.78625 19.884003 183.71399 19.884003 184.28099 19.90725L184.28099 19.90725L184.28099 19.90725C 184.84875 19.9305 184.38449 19.94925 183.24974 19.94925L183.24974 19.94925L183.24974 19.94925C 182.11575 19.94925 181.65149 19.9305 182.21849 19.90725M174.0375 19.906502C 174.642 19.884003 175.59825 19.884003 176.16225 19.90725L176.16225 19.90725L176.16225 19.90725C 176.72624 19.9305 176.23126 19.94925 175.06276 19.948502L175.06276 19.948502L175.06276 19.948502C 173.8935 19.948502 173.43225 19.929752 174.0375 19.906502M161.68724 19.916252C 163.18575 19.8255 165.00076 19.820248 165 19.906502L165 19.906502L165 19.906502C 165 19.9575 164.11426 19.98975 163.03125 19.977001L163.03125 19.977001L163.03125 19.977001C 161.94824 19.964249 161.34375 19.9365 161.68724 19.916252M152.82825 19.900501C 152.77126 19.807499 153.3945 19.77375 154.87274 19.789501L154.87274 19.789501L154.87274 19.789501C 156.04276 19.80225 156.99974 19.772999 156.99974 19.724998L156.99974 19.724998L156.99974 19.724998C 156.99974 19.677002 157.86975 19.62075 158.93324 19.59975L158.93324 19.59975L158.93324 19.59975C 160.41225 19.57125 160.83075 19.596752 160.7145 19.7085L160.7145 19.7085L160.7145 19.7085C 160.50674 19.908749 152.94675 20.092499 152.82825 19.900501M144.573 19.891499C 144.5355 19.831501 145.3995 19.772247 146.4915 19.759499L146.4915 19.759499L146.4915 19.759499C 147.774 19.7445 148.50525 19.78275 148.5585 19.868252L148.5585 19.868252L148.5585 19.868252C 148.614 19.958252 148.011 20.000252 146.64 20.000252L146.64 20.000252L146.64 20.000252C 145.53975 20.000252 144.60976 19.9515 144.573 19.891499M136.43776 19.875C 136.48724 19.793999 135.8385 19.739998 134.601 19.722752L134.601 19.722752L132.68776 19.695L132.68776 19.695L134.49974 19.655998L134.49974 19.655998L134.49974 19.655998C 135.582 19.632748 136.413 19.668747 136.56224 19.745998L136.56224 19.745998L136.56224 19.745998C 136.70026 19.81725 137.71275 19.89075 138.81224 19.9095L138.81224 19.9095L140.8125 19.944L140.8125 19.944L138.5865 19.9725L138.5865 19.9725L138.5865 19.9725C 137.127 19.990501 136.38675 19.956749 136.43776 19.875M128.00026 19.868252C 128.00026 19.780502 127.417496 19.749748 126.25575 19.774502L126.25575 19.774502L126.25575 19.774502C 125.29649 19.795502 124.550995 19.772999 124.59975 19.724998L124.59975 19.724998L124.59975 19.724998C 124.64775 19.677002 125.446495 19.632 126.375 19.625252L126.375 19.625252L126.375 19.625252C 128.5755 19.60875 128.52675 19.605751 128.43976 19.74675L128.43976 19.74675L128.43976 19.74675C 128.3925 19.82325 129.07724 19.8825 130.27576 19.906502L130.27576 19.906502L132.1875 19.944748L132.1875 19.944748L130.09349 19.9725L130.09349 19.9725L130.09349 19.9725C 128.694 19.990501 128.00026 19.956749 128.00026 19.868252M267.375 20.000252C 267.62775 19.83675 270.75 19.83675 270.75 20.000252L270.75 20.000252L270.75 20.000252C 270.75 20.0775 270.07425 20.124 268.96875 20.123253L268.96875 20.123253L268.96875 20.123253C 267.7725 20.12175 267.249 20.081253 267.375 20.000252M185.67525 19.980751C 185.64825 19.9365 186.42676 19.902748 187.40625 19.90725L187.40625 19.90725L187.40625 19.90725C 189.22351 19.91475 188.99326 19.969498 186.894 20.029503L186.894 20.029503L186.894 20.029503C 186.25125 20.0475 185.703 20.02575 185.67525 19.980751M264.162 20.156998C 264.69824 20.13375 265.542 20.13375 266.037 20.156998L266.037 20.156998L266.037 20.156998C 266.532 20.181 266.094 20.2005 265.06274 20.199749L265.06274 20.199749L265.06274 20.199749C 264.0315 20.199749 263.62576 20.180252 264.162 20.156998M235.3125 20.166C 236.82 20.075249 238.47226 20.07 238.41824 20.15625L238.41824 20.15625L238.41824 20.15625C 238.38675 20.208 237.534 20.239502 236.52374 20.226753L236.52374 20.226753L236.52374 20.226753C 235.5135 20.214 234.969 20.187 235.3125 20.166M231.4065 20.156998C 231.93901 20.13375 232.81125 20.13375 233.34375 20.156998L233.34375 20.156998L233.34375 20.156998C 233.87625 20.180252 233.44049 20.199749 232.37476 20.199749L232.37476 20.199749L232.37476 20.199749C 231.30899 20.199749 230.87325 20.180252 231.4065 20.156998M223.40625 20.156998C 223.93875 20.13375 224.81099 20.13375 225.3435 20.156998L225.3435 20.156998L225.3435 20.156998C 225.87675 20.180252 225.44025 20.199749 224.37524 20.199749L224.37524 20.199749L224.37524 20.199749C 223.30951 20.199749 222.87375 20.180252 223.40625 20.156998M211.03125 20.156998C 211.56375 20.13375 212.43599 20.13375 212.9685 20.156998L212.9685 20.156998L212.9685 20.156998C 213.50175 20.180252 213.06525 20.199749 212.00024 20.199749L212.00024 20.199749L212.00024 20.199749C 210.93451 20.199749 210.49875 20.180252 211.03125 20.156998M206.25 20.124748C 206.25 20.0475 206.8935 20.000252 207.93 20.000252L207.93 20.000252L207.93 20.000252C 208.9155 20.000252 209.64226 20.052002 209.68726 20.124748L209.68726 20.124748L209.68726 20.124748C 209.73749 20.20575 209.14725 20.25 208.00723 20.25L208.00723 20.25L208.00723 20.25C 206.919 20.25 206.25 20.202751 206.25 20.124748M198.43726 20.166C 199.94473 20.075249 201.59698 20.07 201.54376 20.15625L201.54376 20.15625L201.54376 20.15625C 201.5115 20.208 200.65875 20.239502 199.6485 20.226753L199.6485 20.226753L199.6485 20.226753C 198.63899 20.214 198.09375 20.187 198.43726 20.166M194.91225 20.156998C 195.44774 20.13375 196.29149 20.13375 196.78725 20.156998L196.78725 20.156998L196.78725 20.156998C 197.28226 20.181 196.8435 20.2005 195.81226 20.199749L195.81226 20.199749L195.81226 20.199749C 194.781 20.199749 194.376 20.180252 194.91225 20.156998M189.24974 20.0625C 189.24974 19.956001 189.36224 19.875 189.50925 19.875L189.50925 19.875L189.50925 19.875C 189.73875 19.875 189.74701 19.896 189.5805 20.0625L189.5805 20.0625L189.5805 20.0625C 189.477 20.166 189.36075 20.25 189.32175 20.25L189.32175 20.25L189.32175 20.25C 189.28201 20.25 189.24974 20.166 189.24974 20.0625M272.2185 20.40675C 272.78625 20.3835 273.714 20.3835 274.281 20.40675L274.281 20.40675L274.281 20.40675C 274.84875 20.43 274.38452 20.44875 273.24976 20.44875L273.24976 20.44875L273.24976 20.44875C 272.11575 20.44875 271.6515 20.43 272.2185 20.40675M259.91174 20.40675C 260.448 20.3835 261.29175 20.3835 261.78674 20.407501L261.78674 20.407501L261.78674 20.407501C 262.2825 20.430752 261.84375 20.450249 260.8125 20.450249L260.8125 20.450249L260.8125 20.450249C 259.78125 20.449501 259.37625 20.430752 259.91174 20.40675M255.906 20.40675C 256.43927 20.3835 257.31073 20.3835 257.844 20.40675L257.844 20.40675L257.844 20.40675C 258.37653 20.430752 257.94073 20.449501 256.875 20.449501L256.875 20.449501L256.875 20.449501C 255.80927 20.449501 255.37349 20.430752 255.906 20.40675M246.9375 20.375252C 246.88727 20.29425 247.47 20.24625 248.586 20.24025L248.586 20.24025L248.586 20.24025C 249.53549 20.235 250.40701 20.212502 250.52249 20.189999L250.52249 20.189999L250.52249 20.189999C 250.638 20.168251 250.76326 20.228249 250.79999 20.324997L250.79999 20.324997L250.79999 20.324997C 250.8825 20.539501 250.72874 20.55375 250.52475 20.34975L250.52475 20.34975L250.52475 20.34975C 250.4085 20.233501 250.37476 20.233501 250.37476 20.34975L250.37476 20.34975L250.37476 20.34975C 250.37476 20.541 247.0545 20.564999 246.9375 20.375252" stroke="none" fill="#C4A42C" fill-rule="evenodd" />
    <path id=""  transform="matrix(1 0 0 -1 0 63)"  d="M122.00026 8.888248C 122.00026 7.126499 121.96875 6.7649994 121.81276 6.705002L121.81276 6.705002L121.81276 6.705002C 121.649994 6.6427536 121.62526 6.927002 121.62526 8.816246L121.62526 8.816246L121.62526 8.816246C 121.62526 10.674004 121.653 11.000252 121.81276 11.000252L121.81276 11.000252L121.81276 11.000252C 121.97175 11.000252 122.00026 10.682247 122.00026 8.888248M104.87474 8.816246C 104.87474 6.927002 104.850006 6.6427536 104.68724 6.705002L104.68724 6.705002L104.68724 6.705002C 104.53125 6.7649994 104.49974 7.126499 104.49974 8.888248L104.49974 8.888248L104.49974 8.888248C 104.49974 10.682247 104.52825 11.000252 104.68724 11.000252L104.68724 11.000252L104.68724 11.000252C 104.847 11.000252 104.87474 10.674004 104.87474 8.816246M195.75 9.063751C 195.75 5.3527527 195.69226 5.499748 197.1525 5.499748L197.1525 5.499748L197.1525 5.499748C 197.93399 5.499748 198.12524 5.5372543 198.12524 5.687248L198.12524 5.687248L198.12524 5.687248C 198.12524 5.7907486 198.20924 5.874748 198.31274 5.874748L198.31274 5.874748L198.31274 5.874748C 198.474 5.874748 198.50024 6.3052483 198.50024 9L198.50024 9L198.50024 12.125252L198.50024 12.125252L197.87476 12.125252L197.87476 12.125252L197.25 12.125252L197.25 12.125252L197.25 9.437248L197.25 9.437248L197.25 9.437248C 197.25 7.7295 197.20425 6.75 197.12476 6.75L197.12476 6.75L197.12476 6.75C 197.04524 6.75 197.00024 7.7295 197.00024 9.437248L197.00024 9.437248L197.00024 12.125252L197.00024 12.125252L196.37476 12.125252L196.37476 12.125252L195.75 12.125252L195.75 12.125252L195.75 9.063751M187.62526 8.8125L187.62526 8.8125L187.62526 8.8125L187.62526 5.499748L187.62526 5.499748L188.25 5.499748L188.25 5.499748L188.87474 5.499748L188.87474 5.499748L188.87474 6.875252L188.87474 6.875252L188.87474 8.25L188.87474 8.25L189.26775 8.25L189.26775 8.25L189.26775 8.25C 189.9 8.25 189.9915 8.497501 189.996 10.227753L189.996 10.227753L189.996 10.227753C 190.00125 12.130501 190.005 12.125252 188.634 12.125252L188.634 12.125252L187.62526 12.125252L187.62526 12.125252L187.62526 8.8125M178.37474 8.8125L178.37474 8.8125L178.37474 8.8125L178.37474 5.499748L178.37474 5.499748L178.93724 5.499748L178.93724 5.499748L179.49974 5.499748L179.49974 5.499748L179.49974 6.125252L179.49974 6.125252L179.49974 6.125252C 179.49974 6.597 179.5455 6.75 179.68724 6.75L179.68724 6.75L179.68724 6.75C 179.79074 6.75 179.87474 6.6937523 179.87474 6.624748L179.87474 6.624748L179.87474 6.624748C 179.87474 6.5564957 180.07199 6.500252 180.31276 6.500252L180.31276 6.500252L180.31276 6.500252C 180.74025 6.500252 180.75 6.4889984 180.75 5.993248L180.75 5.993248L180.75 5.486252L180.75 5.486252L181.34401 5.524498L181.34401 5.524498L181.93724 5.562752L181.93724 5.562752L181.97101 8.844002L181.97101 8.844002L182.004 12.125252L182.004 12.125252L181.25175 12.125252L181.25175 12.125252L180.50026 12.125252L180.50026 12.125252L180.50026 11.25L180.50026 11.25L180.50026 11.25C 180.50026 10.358997 180.40125 10.205254 180.05325 10.553249L180.05325 10.553249L180.05325 10.553249C 179.9415 10.665749 179.87474 10.991997 179.87474 11.428497L179.87474 11.428497L179.87474 12.125252L179.87474 12.125252L179.12474 12.125252L179.12474 12.125252L178.37474 12.125252L178.37474 12.125252L178.37474 8.8125M171.12526 11.375252C 171.12526 10.958252 171.06975 10.625252 171 10.625252L171 10.625252L171 10.625252C 170.9265 10.625252 170.87474 10.187248 170.87474 9.5625L170.87474 9.5625L170.87474 9.5625C 170.87474 8.7015 170.8395 8.499748 170.68724 8.499748L170.68724 8.499748L170.68724 8.499748C 170.53874 8.499748 170.49974 8.319752 170.49974 7.625252L170.49974 7.625252L170.49974 7.625252C 170.49974 7.125 170.4465 6.75 170.37526 6.75L170.37526 6.75L170.37526 6.75C 170.30624 6.75 170.25 6.4657516 170.25 6.1184998L170.25 6.1184998L170.25 5.486252L170.25 5.486252L170.84401 5.524498L170.84401 5.524498L170.84401 5.524498C 171.35025 5.5567474 171.44325 5.604 171.47775 5.844002L171.47775 5.844002L171.47775 5.844002C 171.4995 5.998501 171.56999 6.125252 171.63376 6.125252L171.63376 6.125252L171.63376 6.125252C 171.6975 6.125252 171.75 6.3502502 171.75 6.624748L171.75 6.624748L171.75 6.624748C 171.75 7.435501 171.98476 7.196251 172.02525 6.343498L172.02525 6.343498L172.06276 5.562752L172.06276 5.562752L172.65599 5.524498L172.65599 5.524498L173.25 5.486252L173.25 5.486252L173.25 6.555748L173.25 6.555748L173.25 6.555748C 173.25 7.1850014 173.19824 7.625252 173.12474 7.625252L173.12474 7.625252L173.12474 7.625252C 173.05275 7.625252 173.00026 8.017502 173.00026 8.553749L173.00026 8.553749L173.00026 8.553749C 173.00026 9.21225 172.9455 9.537003 172.81276 9.669746L172.81276 9.669746L172.81276 9.669746C 172.68375 9.798004 172.62526 10.11525 172.62526 10.678497L172.62526 10.678497L172.62526 10.678497C 172.62526 11.142754 172.5705 11.499748 172.5 11.499748L172.5 11.499748L172.5 11.499748C 172.431 11.499748 172.37474 11.640755 172.37474 11.8125L172.37474 11.8125L172.37474 11.8125C 172.37474 12.104248 172.3335 12.125252 171.75 12.125252L171.75 12.125252L171.12526 12.125252L171.12526 12.125252L171.12526 11.375252M154.62526 11.687248C 154.62526 11.44725 154.569 11.25 154.5 11.25L154.5 11.25L154.5 11.25C 154.4265 11.25 154.37474 10.812752 154.37474 10.187248L154.37474 10.187248L154.37474 10.187248C 154.37474 9.326248 154.3395 9.125252 154.18724 9.125252L154.18724 9.125252L154.18724 9.125252C 154.03575 9.125252 153.99974 8.9235 153.99974 8.0625L153.99974 8.0625L153.99974 8.0625C 153.99974 7.437752 153.94875 6.999748 153.87526 6.999748L153.87526 6.999748L153.87526 6.999748C 153.80551 6.999748 153.75 6.664501 153.75 6.242996L153.75 6.242996L153.75 5.486252L153.75 5.486252L154.34401 5.524498L154.34401 5.524498L154.93724 5.562752L154.93724 5.562752L154.9755 6.155998L154.9755 6.155998L154.9755 6.155998C 155.00699 6.642002 155.0565 6.75 155.25 6.75L155.25 6.75L155.25 6.75C 155.4435 6.75 155.49301 6.642002 155.5245 6.155998L155.5245 6.155998L155.56276 5.562752L155.56276 5.562752L156.15599 5.524498L156.15599 5.524498L156.75 5.486252L156.75 5.486252L156.75 6.242996L156.75 6.242996L156.75 6.242996C 156.75 6.664501 156.69449 6.999748 156.62474 6.999748L156.62474 6.999748L156.62474 6.999748C 156.552 6.999748 156.50026 7.418251 156.50026 8.003998L156.50026 8.003998L156.50026 8.003998C 156.50026 8.780998 156.4575 9.023998 156.31276 9.079502L156.31276 9.079502L156.31276 9.079502C 156.1665 9.13575 156.12526 9.384003 156.12526 10.200748L156.12526 10.200748L156.12526 10.200748C 156.12526 10.8172455 156.0735 11.25 156 11.25L156 11.25L156 11.25C 155.931 11.25 155.87474 11.44725 155.87474 11.687248L155.87474 11.687248L155.87474 12.125252L155.87474 12.125252L155.25 12.125252L155.25 12.125252L154.62526 12.125252L154.62526 12.125252L154.62526 11.687248M145.02899 8.844002L145.02899 8.844002L145.02899 8.844002L145.06276 5.562752L145.06276 5.562752L145.65599 5.524498L145.65599 5.524498L146.25 5.486252L146.25 5.486252L146.25 6.1184998L146.25 6.1184998L146.25 6.1184998C 146.25 6.4657516 146.30624 6.75 146.37526 6.75L146.37526 6.75L146.37526 6.75C 146.4435 6.75 146.49974 6.6937523 146.49974 6.624748L146.49974 6.624748L146.49974 6.624748C 146.49974 6.5564957 146.72475 6.500252 147 6.500252L147 6.500252L147.50026 6.500252L147.50026 6.500252L147.50026 6L147.50026 6L147.50026 5.499748L147.50026 5.499748L148.06276 5.499748L148.06276 5.499748L148.62526 5.499748L148.62526 5.499748L148.62526 8.8125L148.62526 8.8125L148.62526 12.125252L148.62526 12.125252L147.87526 12.125252L147.87526 12.125252L147.12526 12.125252L147.12526 12.125252L147.12526 11.25L147.12526 11.25L147.12526 11.25C 147.12526 10.749748 147.07126 10.374748 147 10.374748L147 10.374748L147 10.374748C 146.931 10.374748 146.87474 10.431 146.87474 10.5L146.87474 10.5L146.87474 10.5C 146.87474 10.569 146.79074 10.625252 146.68724 10.625252L146.68724 10.625252L146.68724 10.625252C 146.54175 10.625252 146.49974 10.791748 146.49974 11.375252L146.49974 11.375252L146.49974 12.125252L146.49974 12.125252L145.74825 12.125252L145.74825 12.125252L144.996 12.125252L144.996 12.125252L145.02899 8.844002M137.87474 11.375252C 137.87474 10.791748 137.8335 10.625252 137.68724 10.625252L137.68724 10.625252L137.68724 10.625252C 137.53575 10.625252 137.49974 10.4235 137.49974 9.5625L137.49974 9.5625L137.49974 9.5625C 137.49974 8.937752 137.44875 8.499748 137.37526 8.499748L137.37526 8.499748L137.37526 8.499748C 137.30325 8.499748 137.25 8.124748 137.25 7.625252L137.25 7.625252L137.25 7.625252C 137.25 7.125 137.19675 6.75 137.12474 6.75L137.12474 6.75L137.12474 6.75C 137.0565 6.75 137.00026 6.46875 137.00026 6.125252L137.00026 6.125252L137.00026 5.499748L137.00026 5.499748L137.56276 5.499748L137.56276 5.499748L137.56276 5.499748C 138.07275 5.499748 138.12526 5.5282516 138.12526 5.7990036L138.12526 5.7990036L138.12526 5.7990036C 138.12526 5.9640045 138.20926 6.130501 138.31276 6.17025L138.31276 6.17025L138.31276 6.17025C 138.43124 6.2160034 138.50026 6.4072495 138.50026 6.69075L138.50026 6.69075L138.50026 6.69075C 138.50026 6.9585 138.55049 7.1084976 138.62474 7.062752L138.62474 7.062752L138.62474 7.062752C 138.69376 7.0200005 138.75 6.647999 138.75 6.235504L138.75 6.235504L138.75 5.486252L138.75 5.486252L139.34401 5.524498L139.34401 5.524498L139.93724 5.562752L139.93724 5.562752L139.974 6.594002L139.974 6.594002L139.974 6.594002C 140.004 7.455002 139.9785 7.625252 139.81726 7.625252L139.81726 7.625252L139.81726 7.625252C 139.659 7.625252 139.62526 7.814247 139.62526 8.687248L139.62526 8.687248L139.62526 8.687248C 139.62526 9.312752 139.5735 9.75 139.5 9.75L139.5 9.75L139.5 9.75C 139.42874 9.75 139.37474 10.125 139.37474 10.625252L139.37474 10.625252L139.37474 10.625252C 139.37474 11.319752 139.3365 11.499748 139.18724 11.499748L139.18724 11.499748L139.18724 11.499748C 139.071 11.499748 138.99974 11.618248 138.99974 11.8125L138.99974 11.8125L138.99974 11.8125C 138.99974 12.099754 138.95401 12.125252 138.43724 12.125252L138.43724 12.125252L137.87474 12.125252L137.87474 12.125252L137.87474 11.375252M128.87474 8.8125L128.87474 8.8125L128.87474 8.8125L128.87474 5.499748L128.87474 5.499748L129.43724 5.499748L129.43724 5.499748L129.99974 5.499748L129.99974 5.499748L129.99974 6.875252L129.99974 6.875252L129.99974 6.875252C 129.99974 8.013748 130.03201 8.25 130.18724 8.25L130.18724 8.25L130.18724 8.25C 130.3425 8.25 130.37474 8.013748 130.37474 6.875252L130.37474 6.875252L130.37474 5.499748L130.37474 5.499748L130.93724 5.499748L130.93724 5.499748L131.49974 5.499748L131.49974 5.499748L131.49974 8.8125L131.49974 8.8125L131.49974 12.125252L131.49974 12.125252L130.93724 12.125252L130.93724 12.125252L130.37474 12.125252L130.37474 12.125252L130.37474 10.812752L130.37474 10.812752L130.37474 10.812752C 130.37474 9.729 130.3425 9.500252 130.18724 9.500252L130.18724 9.500252L130.18724 9.500252C 130.03275 9.500252 129.99974 9.729 129.99974 10.812752L129.99974 10.812752L129.99974 12.125252L129.99974 12.125252L129.43724 12.125252L129.43724 12.125252L128.87474 12.125252L128.87474 12.125252L128.87474 8.8125M112.02899 8.844002L112.02899 8.844002L112.02899 8.844002L112.06276 5.562752L112.06276 5.562752L112.65599 5.524498L112.65599 5.524498L112.65599 5.524498C 113.21925 5.4885025 113.25 5.5027466 113.25 5.805748L113.25 5.805748L113.25 5.805748C 113.25 6.199501 113.4675 6.2302475 113.522255 5.844002L113.522255 5.844002L113.522255 5.844002C 113.55675 5.604 113.64975 5.5567474 114.15599 5.524498L114.15599 5.524498L114.75 5.486252L114.75 5.486252L114.75 6.1184998L114.75 6.1184998L114.75 6.1184998C 114.75 6.4657516 114.693756 6.75 114.62474 6.75L114.62474 6.75L114.62474 6.75C 114.5565 6.75 114.50026 6.92025 114.50026 7.128746L114.50026 7.128746L114.50026 7.128746C 114.50026 7.350754 114.42226 7.5375023 114.31276 7.579502L114.31276 7.579502L114.31276 7.579502C 114.196495 7.6245003 114.12526 7.814247 114.12526 8.075996L114.12526 8.075996L114.12526 8.075996C 114.12526 8.30925 114.069 8.499748 114 8.499748L114 8.499748L114 8.499748C 113.931 8.499748 113.87474 8.780998 113.87474 9.125252L113.87474 9.125252L113.87474 9.125252C 113.87474 9.46875 113.931 9.75 114 9.75L114 9.75L114 9.75C 114.069 9.75 114.12526 9.866249 114.12526 10.008751L114.12526 10.008751L114.12526 10.008751C 114.12526 10.151253 114.20926 10.352249 114.31276 10.455002L114.31276 10.455002L114.31276 10.455002C 114.4155 10.558502 114.50026 10.779751 114.50026 10.946251L114.50026 10.946251L114.50026 10.946251C 114.50026 11.1135025 114.5565 11.25 114.62474 11.25L114.62474 11.25L114.62474 11.25C 114.693756 11.25 114.75 11.44725 114.75 11.687248L114.75 11.687248L114.75 12.125252L114.75 12.125252L114.13575 12.125252L114.13575 12.125252L114.13575 12.125252C 113.76601 12.125252 113.4915 12.063 113.448006 11.968498L113.448006 11.968498L113.448006 11.968498C 113.3895 11.844002 113.36025 11.844002 113.30175 11.968498L113.30175 11.968498L113.30175 11.968498C 113.258255 12.063 112.98375 12.125252 112.612495 12.125252L112.612495 12.125252L111.996 12.125252L111.996 12.125252L112.02899 8.844002M95.25 11.445C 95.25 11.070751 95.306244 10.7302475 95.37525 10.6875L95.37525 10.6875L95.37525 10.6875C 95.443504 10.6447525 95.49975 10.360504 95.49975 10.055248L95.49975 10.055248L95.49975 10.055248C 95.49975 9.645 95.549255 9.500252 95.68725 9.500252L95.68725 9.500252L95.68725 9.500252C 95.84625 9.500252 95.87475 9.194252 95.87475 7.5L95.87475 7.5L95.87475 5.499748L95.87475 5.499748L96.43724 5.499748L96.43724 5.499748L96.99974 5.499748L96.99974 5.499748L96.99974 6.875252L96.99974 6.875252L96.99974 6.875252C 96.99974 8.013748 97.032005 8.25 97.18724 8.25L97.18724 8.25L97.18724 8.25C 97.333496 8.25 97.37474 8.4165 97.37474 9L97.37474 9L97.37474 9C 97.37474 9.417 97.43025 9.75 97.5 9.75L97.5 9.75L97.5 9.75C 97.56975 9.75 97.62526 10.083 97.62526 10.5L97.62526 10.5L97.62526 10.5C 97.62526 11.0835 97.666504 11.25 97.81276 11.25L97.81276 11.25L97.81276 11.25C 97.94325 11.25 98.00026 11.382004 98.00026 11.687248L98.00026 11.687248L98.00026 12.125252L98.00026 12.125252L97.37474 12.125252L97.37474 12.125252L96.75 12.125252L96.75 12.125252L96.75 11.687248L96.75 11.687248L96.75 11.687248C 96.75 11.44725 96.693756 11.25 96.62474 11.25L96.62474 11.25L96.62474 11.25C 96.5565 11.25 96.50026 11.44725 96.50026 11.687248L96.50026 11.687248L96.50026 12.125252L96.50026 12.125252L95.87475 12.125252L95.87475 12.125252L95.25 12.125252L95.25 12.125252L95.25 11.445M205.0455 12.312752C 205.00575 12.209251 204.867 12.125252 204.7365 12.125252L204.7365 12.125252L204.7365 12.125252C 204.51974 12.125252 204.50024 12.01725 204.50024 10.812752L204.50024 10.812752L204.50024 10.812752C 204.50024 10.020752 204.54974 9.500252 204.62476 9.500252L204.62476 9.500252L204.62476 9.500252C 204.69374 9.500252 204.75 9.359245 204.75 9.1875L204.75 9.1875L204.75 9.1875C 204.75 9.015755 204.80626 8.874748 204.87524 8.874748L204.87524 8.874748L204.87524 8.874748C 204.9435 8.874748 204.99976 8.734505 204.99976 8.562752L204.99976 8.562752L204.99976 8.562752C 204.99976 8.367748 205.07101 8.25 205.18726 8.25L205.18726 8.25L205.18726 8.25C 205.29076 8.25 205.37476 8.193752 205.37476 8.124748L205.37476 8.124748L205.37476 8.124748C 205.37476 8.056496 205.27501 8.000252 205.15274 8.000252L205.15274 8.000252L205.15274 8.000252C 204.6915 8.000252 204.50024 7.55925 204.50024 6.498749L204.50024 6.498749L204.50024 6.498749C 204.50024 5.583 204.52051 5.499748 204.75 5.499748L204.75 5.499748L204.75 5.499748C 204.88727 5.499748 204.99976 5.4435043 204.99976 5.375252L204.99976 5.375252L204.99976 5.375252C 204.99976 5.3062477 205.25699 5.25 205.57126 5.25L205.57126 5.25L205.57126 5.25C 206.12177 5.25 206.49976 5.449501 206.49976 5.741249L206.49976 5.741249L206.49976 5.741249C 206.49976 5.8147507 206.5845 5.874748 206.68726 5.874748L206.68726 5.874748L206.68726 5.874748C 206.83875 5.874748 206.87476 6.0697517 206.87476 6.878998L206.87476 6.878998L206.87476 6.878998C 206.87476 7.655998 206.83276 7.8989983 206.68726 7.954502L206.68726 7.954502L206.68726 7.954502C 206.57175 7.9995003 206.49976 8.189247 206.49976 8.450996L206.49976 8.450996L206.49976 8.450996C 206.49976 8.68425 206.4435 8.874748 206.37524 8.874748L206.37524 8.874748L206.37524 8.874748C 206.30626 8.874748 206.25 8.987251 206.25 9.125252L206.25 9.125252L206.25 9.125252C 206.25 9.262497 206.1975 9.375 206.13376 9.375L206.13376 9.375L206.13376 9.375C 206.07 9.375 205.99948 9.501747 205.97775 9.65625L205.97775 9.65625L205.97775 9.65625C 205.92975 9.991501 206.2755 10.374748 206.625 10.374748L206.625 10.374748L206.625 10.374748C 206.84698 10.374748 206.87476 10.458 206.87476 11.124748L206.87476 11.124748L206.87476 11.124748C 206.87476 11.646 206.82675 11.874748 206.71724 11.874748L206.71724 11.874748L206.71724 11.874748C 206.63025 11.874748 206.45401 12.015755 206.32501 12.1875L206.32501 12.1875L206.32501 12.1875C 206.04825 12.555748 205.17151 12.641251 205.0455 12.312752M162.57825 12.084747L162.57825 12.084747L162.57825 12.084747L162.12526 11.669998L162.12526 11.669998L162.12526 8.771999L162.12526 8.771999L162.12526 8.771999C 162.12526 6.2805023 162.15149 5.874748 162.31276 5.874748L162.31276 5.874748L162.31276 5.874748C 162.4155 5.874748 162.50026 5.8147507 162.50026 5.741249L162.50026 5.741249L162.50026 5.741249C 162.50026 5.436001 162.87825 5.25 163.5 5.25L163.5 5.25L163.5 5.25C 164.12175 5.25 164.49974 5.436001 164.49974 5.741249L164.49974 5.741249L164.49974 5.741249C 164.49974 5.8147507 164.5845 5.874748 164.68724 5.874748L164.68724 5.874748L164.68724 5.874748C 164.841 5.874748 164.87474 6.090004 164.87474 7.062752L164.87474 7.062752L164.87474 8.25L164.87474 8.25L164.4375 8.25L164.4375 8.25L164.4375 8.25C 164.19675 8.25 164.00026 8.193752 164.00026 8.124748L164.00026 8.124748L164.00026 8.124748C 164.00026 8.056496 163.9155 8.000252 163.81276 8.000252L163.81276 8.000252L163.81276 8.000252C 163.67099 8.000252 163.62526 7.847248 163.62526 7.374748L163.62526 7.374748L163.62526 7.374748C 163.62526 7.03125 163.569 6.75 163.5 6.75L163.5 6.75L163.5 6.75C 163.42125 6.75 163.37474 7.542 163.37474 8.874748L163.37474 8.874748L163.37474 8.874748C 163.37474 10.208252 163.42125 11.000252 163.5 11.000252L163.5 11.000252L163.5 11.000252C 163.56975 11.000252 163.62526 10.6665 163.62526 10.250252L163.62526 10.250252L163.62526 9.500252L163.62526 9.500252L164.0625 9.500252L164.0625 9.500252L164.0625 9.500252C 164.30325 9.500252 164.49974 9.556496 164.49974 9.624748L164.49974 9.624748L164.49974 9.624748C 164.49974 9.693752 164.5845 9.75 164.68724 9.75L164.68724 9.75L164.68724 9.75C 164.8395 9.75 164.87474 9.951748 164.87474 10.812752L164.87474 10.812752L164.87474 10.812752C 164.87474 11.584499 164.832 11.874748 164.71725 11.874748L164.71725 11.874748L164.71725 11.874748C 164.63025 11.874748 164.45401 12.015755 164.32501 12.1875L164.32501 12.1875L164.32501 12.1875C 163.959 12.674252 163.1715 12.628498 162.57825 12.084747M121.0455 12.312752C 121.00575 12.209251 120.867004 12.125252 120.736496 12.125252L120.736496 12.125252L120.736496 12.125252C 120.51075 12.125252 120.50026 11.980499 120.50026 8.884499L120.50026 8.884499L120.50026 5.6430016L120.50026 5.6430016L120.894 5.4465027L120.894 5.4465027L120.894 5.4465027C 121.329 5.2297516 122.49974 5.17725 122.49974 5.375252L122.49974 5.375252L122.49974 5.375252C 122.49974 5.4435043 122.5845 5.499748 122.68724 5.499748L122.68724 5.499748L122.68724 5.499748C 122.79074 5.499748 122.87474 5.5844994 122.87474 5.687248L122.87474 5.687248L122.87474 5.687248C 122.87474 5.7907486 122.931 5.874748 123 5.874748L123 5.874748L123 5.874748C 123.0795 5.874748 123.12526 6.9404984 123.12526 8.821503L123.12526 8.821503L123.12526 8.821503C 123.12526 11.80125 123.078 12.125252 122.6475 12.125252L122.6475 12.125252L122.6475 12.125252C 122.58075 12.125252 122.49451 12.209251 122.45474 12.312752L122.45474 12.312752L122.45474 12.312752C 122.40375 12.444752 122.197495 12.500252 121.74974 12.500252L121.74974 12.500252L121.74974 12.500252C 121.30275 12.500252 121.09575 12.444752 121.0455 12.312752M104.04526 12.312752C 104.00549 12.209251 103.91925 12.125252 103.8525 12.125252L103.8525 12.125252L103.8525 12.125252C 103.422 12.125252 103.37474 11.80125 103.37474 8.821503L103.37474 8.821503L103.37474 8.821503C 103.37474 6.9404984 103.4205 5.874748 103.5 5.874748L103.5 5.874748L103.5 5.874748C 103.569 5.874748 103.62526 5.7907486 103.62526 5.687248L103.62526 5.687248L103.62526 5.687248C 103.62526 5.5844994 103.70926 5.499748 103.81276 5.499748L103.81276 5.499748L103.81276 5.499748C 103.9155 5.499748 104.00026 5.4435043 104.00026 5.375252L104.00026 5.375252L104.00026 5.375252C 104.00026 5.17725 105.171 5.2297516 105.606 5.4465027L105.606 5.4465027L105.99974 5.6430016L105.99974 5.6430016L105.99974 8.884499L105.99974 8.884499L105.99974 8.884499C 105.99974 11.980499 105.98925 12.125252 105.763504 12.125252L105.763504 12.125252L105.763504 12.125252C 105.632996 12.125252 105.49425 12.209251 105.4545 12.312752L105.4545 12.312752L105.4545 12.312752C 105.40425 12.444752 105.19725 12.500252 104.75026 12.500252L104.75026 12.500252L104.75026 12.500252C 104.302505 12.500252 104.09625 12.444752 104.04526 12.312752M178.34401 19.031998C 178.91101 19.00875 179.83875 19.00875 180.40651 19.031998L180.40651 19.031998L180.40651 19.031998C 180.97351 19.055252 180.50925 19.073997 179.37526 19.073997L179.37526 19.073997L179.37526 19.073997C 178.24051 19.073997 177.77625 19.055252 178.34401 19.031998M152.00026 37.5C 152.00026 37.431 151.85925 37.37475 151.6875 37.37475L151.6875 37.37475L151.6875 37.37475C 151.49326 37.37475 151.37474 37.30425 151.37474 37.18725L151.37474 37.18725L151.37474 37.18725C 151.37474 37.0845 151.29074 36.99975 151.18724 36.99975L151.18724 36.99975L151.18724 36.99975C 151.0365 36.99975 150.99974 36.8055 150.99974 36L150.99974 36L150.99974 36C 150.99974 35.1945 151.0365 35.00025 151.18724 35.00025L151.18724 35.00025L151.18724 35.00025C 151.29074 35.00025 151.37474 34.9395 151.37474 34.865997L151.37474 34.865997L151.37474 34.865997C 151.37474 34.397247 151.599 34.37475 156.31276 34.37475L156.31276 34.37475L156.31276 34.37475C 161.02576 34.37475 161.25 34.397247 161.25 34.865997L161.25 34.865997L161.25 34.865997C 161.25 34.9395 161.30624 35.00025 161.37526 35.00025L161.37526 35.00025L161.37526 35.00025C 161.448 35.00025 161.49974 35.4165 161.49974 36L161.49974 36L161.49974 36C 161.49974 36.5835 161.448 36.99975 161.37526 36.99975L161.37526 36.99975L161.37526 36.99975C 161.30624 36.99975 161.25 37.0845 161.25 37.18725L161.25 37.18725L161.25 37.18725C 161.25 37.29075 161.16525 37.37475 161.0625 37.37475L161.0625 37.37475L161.0625 37.37475C 160.959 37.37475 160.875 37.431 160.875 37.5L160.875 37.5L160.875 37.5C 160.875 37.581 159.31276 37.62525 156.43724 37.62525L156.43724 37.62525L156.43724 37.62525C 153.5625 37.62525 152.00026 37.581 152.00026 37.5M120.50026 49.06275C 120.50026 48.89025 120.5565 48.75 120.62474 48.75L120.62474 48.75L120.62474 48.75C 120.693756 48.75 120.75 48.5535 120.75 48.31275L120.75 48.31275L120.75 48.31275C 120.75 48.072 120.806244 47.87475 120.87526 47.87475L120.87526 47.87475L120.87526 47.87475C 120.9435 47.87475 120.99974 47.7345 120.99974 47.56275L120.99974 47.56275L120.99974 47.56275C 120.99974 47.367752 121.071 47.25 121.18724 47.25L121.18724 47.25L121.18724 47.25C 121.3185 47.25 121.37474 47.118 121.37474 46.81275L121.37474 46.81275L121.37474 46.81275C 121.37474 46.572 121.431 46.37475 121.5 46.37475L121.5 46.37475L121.5 46.37475C 121.569 46.37475 121.62526 46.2345 121.62526 46.06275L121.62526 46.06275L121.62526 46.06275C 121.62526 45.867752 121.695755 45.75 121.81276 45.75L121.81276 45.75L121.81276 45.75C 121.94325 45.75 122.00026 45.618 122.00026 45.31275L122.00026 45.31275L122.00026 45.31275C 122.00026 45.072 122.0565 44.87475 122.12474 44.87475L122.12474 44.87475L122.12474 44.87475C 122.193756 44.87475 122.25 44.7345 122.25 44.56275L122.25 44.56275L122.25 44.56275C 122.25 44.39025 122.306244 44.25 122.37526 44.25L122.37526 44.25L122.37526 44.25C 122.4435 44.25 122.49974 44.07975 122.49974 43.87125L122.49974 43.87125L122.49974 43.87125C 122.49974 43.64925 122.57774 43.4625 122.68724 43.4205L122.68724 43.4205L122.68724 43.4205C 122.79074 43.38075 122.87474 43.2135 122.87474 43.049248L122.87474 43.049248L122.87474 43.049248C 122.87474 42.88425 122.931 42.75 123 42.75L123 42.75L123 42.75C 123.069 42.75 123.12526 42.5535 123.12526 42.31275L123.12526 42.31275L123.12526 42.31275C 123.12526 42.006752 123.1815 41.87475 123.31276 41.87475L123.31276 41.87475L123.31276 41.87475C 123.44325 41.87475 123.50026 41.742752 123.50026 41.4375L123.50026 41.4375L123.50026 41.4375C 123.50026 41.19675 123.5565 41.00025 123.62474 41.00025L123.62474 41.00025L123.62474 41.00025C 123.693756 41.00025 123.75 40.85925 123.75 40.6875L123.75 40.6875L123.75 40.6875C 123.75 40.51575 123.806244 40.37475 123.87526 40.37475L123.87526 40.37475L123.87526 40.37475C 123.9435 40.37475 123.99974 40.2045 123.99974 39.996L123.99974 39.996L123.99974 39.996C 123.99974 39.77475 124.07774 39.58725 124.18724 39.54525L124.18724 39.54525L124.18724 39.54525C 124.29074 39.5055 124.37474 39.339 124.37474 39.174L124.37474 39.174L124.37474 39.174C 124.37474 39.00975 124.431 38.87475 124.5 38.87475L124.5 38.87475L124.5 38.87475C 124.569 38.87475 124.62526 38.67825 124.62526 38.4375L124.62526 38.4375L124.62526 38.4375C 124.62526 38.132248 124.6815 38.00025 124.81276 38.00025L124.81276 38.00025L124.81276 38.00025C 124.929 38.00025 125.00026 37.88175 125.00026 37.6875L125.00026 37.6875L125.00026 37.6875C 125.00026 37.51575 125.0565 37.37475 125.12474 37.37475L125.12474 37.37475L125.12474 37.37475C 125.193756 37.37475 125.25 37.17825 125.25 36.9375L125.25 36.9375L125.25 36.50025L125.25 36.50025L120.12526 36.50025L120.12526 36.50025L120.12526 36.50025C 116.791504 36.50025 114.99974 36.543747 114.99974 36.62475L114.99974 36.62475L114.99974 36.62475C 114.99974 36.69375 115.0845 36.75 115.18724 36.75L115.18724 36.75L115.18724 36.75C 115.304245 36.75 115.37474 36.867752 115.37474 37.06275L115.37474 37.06275L115.37474 37.06275C 115.37474 37.2345 115.431 37.37475 115.5 37.37475L115.5 37.37475L115.5 37.37475C 115.569 37.37475 115.62526 37.572 115.62526 37.81275L115.62526 37.81275L115.62526 37.81275C 115.62526 38.118 115.6815 38.25 115.81276 38.25L115.81276 38.25L115.81276 38.25C 115.929 38.25 116.00026 38.367752 116.00026 38.56275L116.00026 38.56275L116.00026 38.56275C 116.00026 38.7345 116.0565 38.87475 116.12474 38.87475L116.12474 38.87475L116.12474 38.87475C 116.193756 38.87475 116.25 39.072 116.25 39.31275L116.25 39.31275L116.25 39.31275C 116.25 39.5535 116.306244 39.75 116.37526 39.75L116.37526 39.75L116.37526 39.75C 116.4435 39.75 116.49974 39.89025 116.49974 40.06275L116.49974 40.06275L116.49974 40.06275C 116.49974 40.257 116.571 40.37475 116.68724 40.37475L116.68724 40.37475L116.68724 40.37475C 116.8185 40.37475 116.87474 40.506752 116.87474 40.81275L116.87474 40.81275L116.87474 40.81275C 116.87474 41.0535 116.931 41.25 117 41.25L117 41.25L117 41.25C 117.069 41.25 117.12526 41.36625 117.12526 41.50875L117.12526 41.50875L117.12526 41.50875C 117.12526 41.65125 117.20926 41.85225 117.31276 41.955L117.31276 41.955L117.31276 41.955C 117.4155 42.0585 117.50026 42.279747 117.50026 42.44625L117.50026 42.44625L117.50026 42.44625C 117.50026 42.613503 117.5565 42.75 117.62474 42.75L117.62474 42.75L117.62474 42.75C 117.693756 42.75 117.75 42.89025 117.75 43.06275L117.75 43.06275L117.75 43.06275C 117.75 43.2345 117.806244 43.37475 117.87526 43.37475L117.87526 43.37475L117.87526 43.37475C 117.9435 43.37475 117.99974 43.572 117.99974 43.81275L117.99974 43.81275L117.99974 43.81275C 117.99974 44.118 118.05675 44.25 118.18724 44.25L118.18724 44.25L118.18724 44.25C 118.3185 44.25 118.37474 44.382 118.37474 44.68725L118.37474 44.68725L118.37474 44.68725C 118.37474 44.928 118.431 45.12525 118.5 45.12525L118.5 45.12525L118.5 45.12525C 118.569 45.12525 118.62526 45.2595 118.62526 45.4245L118.62526 45.4245L118.62526 45.4245C 118.62526 45.58875 118.70926 45.756 118.81276 45.795L118.81276 45.795L118.81276 45.795C 118.92226 45.836998 119.00026 46.024498 119.00026 46.24575L119.00026 46.24575L119.00026 46.24575C 119.00026 46.45425 119.0565 46.62525 119.12474 46.62525L119.12474 46.62525L119.12474 46.62525C 119.193756 46.62525 119.25 46.7655 119.25 46.93725L119.25 46.93725L119.25 46.93725C 119.25 47.109 119.306244 47.25 119.37526 47.25L119.37526 47.25L119.37526 47.25C 119.4435 47.25 119.49974 47.44725 119.49974 47.68725L119.49974 47.68725L119.49974 47.68725C 119.49974 47.993248 119.55675 48.12525 119.68724 48.12525L119.68724 48.12525L119.68724 48.12525C 119.804245 48.12525 119.87474 48.243 119.87474 48.43725L119.87474 48.43725L119.87474 48.43725C 119.87474 48.609 119.931 48.75 120 48.75L120 48.75L120 48.75C 120.069 48.75 120.12526 48.89025 120.12526 49.06275L120.12526 49.06275L120.12526 49.06275C 120.12526 49.257 120.195755 49.37475 120.31276 49.37475L120.31276 49.37475L120.31276 49.37475C 120.429 49.37475 120.50026 49.257 120.50026 49.06275M119.87474 55.3125C 119.87474 55.118248 119.804245 54.99975 119.68724 54.99975L119.68724 54.99975L119.68724 54.99975C 119.5845 54.99975 119.49974 54.891 119.49974 54.7575L119.49974 54.7575L119.49974 54.7575C 119.49974 54.624 119.4435 54.48 119.37526 54.43725L119.37526 54.43725L119.37526 54.43725C 119.306244 54.39525 119.25 54.1665 119.25 53.930252L119.25 53.930252L119.25 53.930252C 119.25 53.69325 119.193756 53.49975 119.12474 53.49975L119.12474 53.49975L119.12474 53.49975C 119.0565 53.49975 119.00026 53.39325 119.00026 53.2635L119.00026 53.2635L119.00026 53.2635C 119.00026 53.133 118.9155 52.99425 118.81276 52.9545L118.81276 52.9545L118.81276 52.9545C 118.69499 52.9095 118.62526 52.71825 118.62526 52.441498L118.62526 52.441498L118.62526 52.441498C 118.62526 52.1985 118.569 51.99975 118.5 51.99975L118.5 51.99975L118.5 51.99975C 118.431 51.99975 118.37474 51.89325 118.37474 51.7635L118.37474 51.7635L118.37474 51.7635C 118.37474 51.633 118.29074 51.49425 118.18724 51.4545L118.18724 51.4545L118.18724 51.4545C 118.069496 51.4095 117.99974 51.21825 117.99974 50.9415L117.99974 50.9415L117.99974 50.9415C 117.99974 50.6985 117.9435 50.49975 117.87526 50.49975L117.87526 50.49975L117.87526 50.49975C 117.806244 50.49975 117.75 50.387253 117.75 50.25L117.75 50.25L117.75 50.25C 117.75 50.112747 117.693756 50.00025 117.62474 50.00025L117.62474 50.00025L117.62474 50.00025C 117.5565 50.00025 117.50026 49.77525 117.50026 49.5L117.50026 49.5L117.50026 49.5C 117.50026 49.13925 117.447754 48.99975 117.31276 48.99975L117.31276 48.99975L117.31276 48.99975C 117.20926 48.99975 117.12526 48.891 117.12526 48.7575L117.12526 48.7575L117.12526 48.7575C 117.12526 48.624 117.069 48.48 117 48.43725L117 48.43725L117 48.43725C 116.931 48.39525 116.87474 48.1665 116.87474 47.930252L116.87474 47.930252L116.87474 47.930252C 116.87474 47.631 116.81775 47.49975 116.68724 47.49975L116.68724 47.49975L116.68724 47.49975C 116.5845 47.49975 116.49974 47.391 116.49974 47.2575L116.49974 47.2575L116.49974 47.2575C 116.49974 47.124 116.4435 46.98 116.37526 46.93725L116.37526 46.93725L116.37526 46.93725C 116.306244 46.89525 116.25 46.6665 116.25 46.430252L116.25 46.430252L116.25 46.430252C 116.25 46.19325 116.193756 45.99975 116.12474 45.99975L116.12474 45.99975L116.12474 45.99975C 116.0565 45.99975 116.00026 45.89325 116.00026 45.7635L116.00026 45.7635L116.00026 45.7635C 116.00026 45.633 115.9155 45.49425 115.81276 45.4545L115.81276 45.4545L115.81276 45.4545C 115.69499 45.4095 115.62526 45.21825 115.62526 44.9415L115.62526 44.9415L115.62526 44.9415C 115.62526 44.6985 115.569 44.49975 115.5 44.49975L115.5 44.49975L115.5 44.49975C 115.431 44.49975 115.37474 44.39325 115.37474 44.2635L115.37474 44.2635L115.37474 44.2635C 115.37474 44.133 115.29074 43.99425 115.18724 43.9545L115.18724 43.9545L115.18724 43.9545C 115.069496 43.9095 114.99974 43.71825 114.99974 43.4415L114.99974 43.4415L114.99974 43.4415C 114.99974 43.1985 114.9435 42.99975 114.87526 42.99975L114.87526 42.99975L114.87526 42.99975C 114.806244 42.99975 114.75 42.887253 114.75 42.75L114.75 42.75L114.75 42.75C 114.75 42.612747 114.693756 42.50025 114.62474 42.50025L114.62474 42.50025L114.62474 42.50025C 114.5565 42.50025 114.50026 42.27525 114.50026 42L114.50026 42L114.50026 42C 114.50026 41.63925 114.447754 41.49975 114.31276 41.49975L114.31276 41.49975L114.31276 41.49975C 114.20926 41.49975 114.12526 41.391 114.12526 41.2575L114.12526 41.2575L114.12526 41.2575C 114.12526 41.124 114.069 40.98 114 40.93725L114 40.93725L114 40.93725C 113.931 40.89525 113.87474 40.6665 113.87474 40.430252L113.87474 40.430252L113.87474 40.430252C 113.87474 40.131 113.81775 39.99975 113.68724 39.99975L113.68724 39.99975L113.68724 39.99975C 113.5845 39.99975 113.49974 39.891 113.49974 39.7575L113.49974 39.7575L113.49974 39.7575C 113.49974 39.624 113.4435 39.48 113.37526 39.43725L113.37526 39.43725L113.37526 39.43725C 113.306244 39.39525 113.25 39.1665 113.25 38.930252L113.25 38.930252L113.25 38.930252C 113.25 38.69325 113.193756 38.49975 113.12474 38.49975L113.12474 38.49975L113.12474 38.49975C 113.0565 38.49975 113.00026 38.39325 113.00026 38.2635L113.00026 38.2635L113.00026 38.2635C 113.00026 38.133003 112.9155 37.99425 112.81276 37.9545L112.81276 37.9545L112.81276 37.9545C 112.69499 37.9095 112.62526 37.71825 112.62526 37.4415L112.62526 37.4415L112.62526 37.4415C 112.62526 37.1985 112.569 36.99975 112.5 36.99975L112.5 36.99975L112.5 36.99975C 112.431 36.99975 112.37474 36.89325 112.37474 36.7635L112.37474 36.7635L112.37474 36.7635C 112.37474 36.633003 112.29074 36.49425 112.18724 36.4545L112.18724 36.4545L112.18724 36.4545C 112.069496 36.4095 111.99974 36.21825 111.99974 35.9415L111.99974 35.9415L111.99974 35.9415C 111.99974 35.6985 111.9435 35.49975 111.87526 35.49975L111.87526 35.49975L111.87526 35.49975C 111.806244 35.49975 111.75 35.38725 111.75 35.25L111.75 35.25L111.75 35.25C 111.75 35.11275 111.693756 35.00025 111.62474 35.00025L111.62474 35.00025L111.62474 35.00025C 111.5565 35.00025 111.50026 34.77525 111.50026 34.5L111.50026 34.5L111.50026 34.5C 111.50026 34.13925 111.447754 33.99975 111.31276 33.99975L111.31276 33.99975L111.31276 33.99975C 111.20926 33.99975 111.12526 33.891 111.12526 33.7575L111.12526 33.7575L111.12526 33.7575C 111.12526 33.624 111.069 33.48 111 33.43725L111 33.43725L111 33.43725C 110.931 33.39525 110.87474 33.1665 110.87474 32.930252L110.87474 32.930252L110.87474 32.930252C 110.87474 32.631 110.81775 32.49975 110.68724 32.49975L110.68724 32.49975L110.68724 32.49975C 110.5845 32.49975 110.49974 32.391 110.49974 32.2575L110.49974 32.2575L110.49974 32.2575C 110.49974 32.124 110.4435 31.98 110.37526 31.93725L110.37526 31.93725L110.37526 31.93725C 110.306244 31.89525 110.25 31.6665 110.25 31.430252L110.25 31.430252L110.25 31.430252C 110.25 31.193249 110.193756 30.999748 110.12474 30.999748L110.12474 30.999748L110.12474 30.999748C 110.0565 30.999748 110.00026 30.89325 110.00026 30.7635L110.00026 30.7635L110.00026 30.7635C 110.00026 30.633003 109.9155 30.494251 109.81276 30.454498L109.81276 30.454498L109.81276 30.454498C 109.69499 30.4095 109.62526 30.21825 109.62526 29.941502L109.62526 29.941502L109.62526 29.941502C 109.62526 29.698502 109.569 29.499748 109.5 29.499748L109.5 29.499748L109.5 29.499748C 109.431 29.499748 109.37474 29.39325 109.37474 29.2635L109.37474 29.2635L109.37474 29.2635C 109.37474 29.133003 109.29074 28.994251 109.18724 28.954498L109.18724 28.954498L109.18724 28.954498C 109.069496 28.9095 108.99974 28.71825 108.99974 28.441502L108.99974 28.441502L108.99974 28.441502C 108.99974 28.198502 108.9435 27.999748 108.87526 27.999748L108.87526 27.999748L108.87526 27.999748C 108.806244 27.999748 108.75 27.887249 108.75 27.75L108.75 27.75L108.75 27.75C 108.75 27.612751 108.693756 27.500252 108.62474 27.500252L108.62474 27.500252L108.62474 27.500252C 108.5565 27.500252 108.50026 27.4155 108.50026 27.312752L108.50026 27.312752L108.50026 27.312752C 108.50026 27.209251 108.4155 27.125252 108.31276 27.125252L108.31276 27.125252L108.31276 27.125252C 108.20474 27.125252 108.12526 27.012001 108.12526 26.85825L108.12526 26.85825L108.12526 26.85825C 108.12526 26.614502 107.56575 26.000252 107.34375 26.000252L107.34375 26.000252L107.34375 26.000252C 107.292 26.000252 107.25 25.939499 107.25 25.865997L107.25 25.865997L107.25 25.865997C 107.25 25.6455 106.911 25.374748 106.63425 25.374748L106.63425 25.374748L106.63425 25.374748C 106.48725 25.374748 106.37474 25.293747 106.37474 25.187248L106.37474 25.187248L106.37474 25.187248C 106.37474 25.045502 106.2225 24.999748 105.75 24.999748L105.75 24.999748L105.75 24.999748C 105.40651 24.999748 105.12526 24.9435 105.12526 24.875252L105.12526 24.875252L105.12526 24.875252C 105.12526 24.806252 104.87175 24.75 104.56276 24.75L104.56276 24.75L104.00026 24.75L104.00026 24.75L104.00026 24.05325L104.00026 24.05325L104.00026 24.05325C 104.00026 22.9305 103.626 23.000252 109.678505 23.000252L109.678505 23.000252L109.678505 23.000252C 114.81676 23.000252 114.99974 23.0085 114.99974 23.2365L114.99974 23.2365L114.99974 23.2365C 114.99974 23.366997 115.0845 23.505749 115.18724 23.545502L115.18724 23.545502L115.18724 23.545502C 115.29074 23.5845 115.37474 23.731499 115.37474 23.870998L115.37474 23.870998L115.37474 23.870998C 115.37474 24.0135 115.293 24.125252 115.18724 24.125252L115.18724 24.125252L115.18724 24.125252C 115.071 24.125252 114.99974 24.243 114.99974 24.437248L114.99974 24.437248L114.99974 24.437248C 114.99974 24.735748 114.96675 24.75 114.24974 24.75L114.24974 24.75L114.24974 24.75C 113.833496 24.75 113.49974 24.8055 113.49974 24.875252L113.49974 24.875252L113.49974 24.875252C 113.49974 24.9435 113.253 24.999748 112.950745 24.999748L112.950745 24.999748L112.950745 24.999748C 112.578 24.999748 112.378494 25.060501 112.32974 25.187248L112.32974 25.187248L112.32974 25.187248C 112.29 25.290749 112.167755 25.374748 112.0575 25.374748L112.0575 25.374748L112.0575 25.374748C 111.677246 25.374748 111.50026 25.709251 111.50026 26.428497L111.50026 26.428497L111.50026 26.428497C 111.50026 26.811752 111.5565 27.125252 111.62474 27.125252L111.62474 27.125252L111.62474 27.125252C 111.693756 27.125252 111.75 27.32175 111.75 27.5625L111.75 27.5625L111.75 27.5625C 111.75 27.80325 111.806244 27.999748 111.87526 27.999748L111.87526 27.999748L111.87526 27.999748C 111.9435 27.999748 111.99974 28.13475 111.99974 28.299L111.99974 28.299L111.99974 28.299C 111.99974 28.464 112.0845 28.6305 112.18724 28.67025L112.18724 28.67025L112.18724 28.67025C 112.296 28.711502 112.37474 28.899002 112.37474 29.113503L112.37474 29.113503L112.37474 29.113503C 112.37474 29.318249 112.431 29.52 112.5 29.562752L112.5 29.562752L112.5 29.562752C 112.569 29.604752 112.62526 29.8335 112.62526 30.069748L112.62526 30.069748L112.62526 30.069748C 112.62526 30.369 112.68225 30.500252 112.81276 30.500252L112.81276 30.500252L112.81276 30.500252C 112.929 30.500252 113.00026 30.618 113.00026 30.812248L113.00026 30.812248L113.00026 30.812248C 113.00026 30.984001 113.0565 31.125 113.12474 31.125L113.12474 31.125L113.12474 31.125C 113.193756 31.125 113.25 31.32225 113.25 31.56225L113.25 31.56225L113.25 31.56225C 113.25 31.803 113.306244 32.00025 113.37526 32.00025L113.37526 32.00025L113.37526 32.00025C 113.4435 32.00025 113.49974 32.19675 113.49974 32.4375L113.49974 32.4375L113.49974 32.4375C 113.49974 32.742752 113.55675 32.87475 113.68724 32.87475L113.68724 32.87475L113.68724 32.87475C 113.804245 32.87475 113.87474 32.99325 113.87474 33.1875L113.87474 33.1875L113.87474 33.1875C 113.87474 33.35925 113.931 33.50025 114 33.50025L114 33.50025L114 33.50025C 114.069 33.50025 114.12526 33.61275 114.12526 33.75L114.12526 33.75L114.12526 33.75C 114.12526 33.99675 114.208496 33.99975 120.31276 33.99975L120.31276 33.99975L120.31276 33.99975C 126.417 33.99975 126.50026 33.99675 126.50026 33.75L126.50026 33.75L126.50026 33.75C 126.50026 33.61275 126.5565 33.50025 126.62474 33.50025L126.62474 33.50025L126.62474 33.50025C 126.693756 33.50025 126.75 33.303 126.75 33.06225L126.75 33.06225L126.75 33.06225C 126.75 32.82225 126.806244 32.625 126.87526 32.625L126.87526 32.625L126.87526 32.625C 126.9435 32.625 126.99974 32.484 126.99974 32.31225L126.99974 32.31225L126.99974 32.31225C 126.99974 32.118 127.071 32.00025 127.18724 32.00025L127.18724 32.00025L127.18724 32.00025C 127.3185 32.00025 127.37474 31.868252 127.37474 31.56225L127.37474 31.56225L127.37474 31.56225C 127.37474 31.32225 127.431 31.125 127.5 31.125L127.5 31.125L127.5 31.125C 127.569 31.125 127.62526 30.984001 127.62526 30.812248L127.62526 30.812248L127.62526 30.812248C 127.62526 30.618 127.695755 30.500252 127.81276 30.500252L127.81276 30.500252L127.81276 30.500252C 127.929 30.500252 128.00026 30.381748 128.00026 30.1875L128.00026 30.1875L128.00026 30.1875C 128.00026 30.01575 128.0565 29.874748 128.12474 29.874748L128.12474 29.874748L128.12474 29.874748C 128.19376 29.874748 128.25 29.67825 128.25 29.4375L128.25 29.4375L128.25 29.4375C 128.25 29.19675 128.30624 29.000252 128.37526 29.000252L128.37526 29.000252L128.37526 29.000252C 128.4435 29.000252 128.49974 28.85925 128.49974 28.6875L128.49974 28.6875L128.49974 28.6875C 128.49974 28.493252 128.571 28.374748 128.68724 28.374748L128.68724 28.374748L128.68724 28.374748C 128.8185 28.374748 128.87474 28.242752 128.87474 27.9375L128.87474 27.9375L128.87474 27.9375C 128.87474 27.69675 128.931 27.500252 129 27.500252L129 27.500252L129 27.500252C 129.07126 27.500252 129.12526 27.12225 129.12526 26.615997L129.12526 26.615997L129.12526 26.615997C 129.12526 25.70475 128.97675 25.374748 128.56726 25.374748L128.56726 25.374748L128.56726 25.374748C 128.457 25.374748 128.33475 25.290749 128.295 25.187248L128.295 25.187248L128.295 25.187248C 128.24475 25.056 128.04001 24.999748 127.611755 24.999748L127.611755 24.999748L127.611755 24.999748C 127.274994 24.999748 126.99974 24.9435 126.99974 24.875252L126.99974 24.875252L126.99974 24.875252C 126.99974 24.806252 126.68625 24.75 126.30375 24.75L126.30375 24.75L126.30375 24.75C 125.45926 24.75 125.25 24.576752 125.25 23.874748L125.25 23.874748L125.25 23.874748C 125.25 22.954498 124.92375 23.000252 131.55374 23.000252L131.55374 23.000252L131.55374 23.000252C 137.30475 23.000252 137.49974 23.007748 137.49974 23.2365L137.49974 23.2365L137.49974 23.2365C 137.49974 23.366997 137.5845 23.505749 137.68724 23.545502L137.68724 23.545502L137.68724 23.545502C 137.79074 23.5845 137.87474 23.731499 137.87474 23.870998L137.87474 23.870998L137.87474 23.870998C 137.87474 24.0135 137.793 24.125252 137.68724 24.125252L137.68724 24.125252L137.68724 24.125252C 137.571 24.125252 137.49974 24.243 137.49974 24.437248L137.49974 24.437248L137.49974 24.437248C 137.49974 24.711002 137.44576 24.75 137.0625 24.75L137.0625 24.75L137.0625 24.75C 136.82175 24.75 136.62526 24.806252 136.62526 24.875252L136.62526 24.875252L136.62526 24.875252C 136.62526 24.9435 136.42801 24.999748 136.18724 24.999748L136.18724 24.999748L136.18724 24.999748C 135.88199 24.999748 135.75 25.056751 135.75 25.187248L135.75 25.187248L135.75 25.187248C 135.75 25.304249 135.63225 25.374748 135.43724 25.374748L135.43724 25.374748L135.43724 25.374748C 135.2655 25.374748 135.12526 25.431 135.12526 25.5L135.12526 25.5L135.12526 25.5C 135.12526 25.569 134.98425 25.625252 134.8125 25.625252L134.8125 25.625252L134.8125 25.625252C 134.64075 25.625252 134.49974 25.68375 134.49974 25.755749L134.49974 25.755749L134.49974 25.755749C 134.49974 25.925251 133.92525 26.499748 133.75575 26.499748L133.75575 26.499748L133.75575 26.499748C 133.68375 26.499748 133.62526 26.5845 133.62526 26.687248L133.62526 26.687248L133.62526 26.687248C 133.62526 26.790749 133.569 26.874748 133.5 26.874748L133.5 26.874748L133.5 26.874748C 133.431 26.874748 133.37474 26.989502 133.37474 27.129002L133.37474 27.129002L133.37474 27.129002C 133.37474 27.268501 133.29074 27.4155 133.18724 27.454498L133.18724 27.454498L133.18724 27.454498C 133.0845 27.494251 132.99974 27.633003 132.99974 27.7635L132.99974 27.7635L132.99974 27.7635C 132.99974 27.89325 132.9435 27.999748 132.87526 27.999748L132.87526 27.999748L132.87526 27.999748C 132.80624 27.999748 132.75 28.196999 132.75 28.437752L132.75 28.437752L132.75 28.437752C 132.75 28.678497 132.69376 28.875 132.62474 28.875L132.62474 28.875L132.62474 28.875C 132.5565 28.875 132.50026 29.015251 132.50026 29.187752L132.50026 29.187752L132.50026 29.187752C 132.50026 29.382 132.429 29.499748 132.31276 29.499748L132.31276 29.499748L132.31276 29.499748C 132.1815 29.499748 132.12526 29.631748 132.12526 29.937752L132.12526 29.937752L132.12526 29.937752C 132.12526 30.178497 132.069 30.375 132 30.375L132 30.375L132 30.375C 131.931 30.375 131.87474 30.515251 131.87474 30.687752L131.87474 30.687752L131.87474 30.687752C 131.87474 30.882 131.80424 30.999748 131.68724 30.999748L131.68724 30.999748L131.68724 30.999748C 131.571 30.999748 131.49974 31.118252 131.49974 31.3125L131.49974 31.3125L131.49974 31.3125C 131.49974 31.48425 131.4435 31.62525 131.37526 31.62525L131.37526 31.62525L131.37526 31.62525C 131.30624 31.62525 131.25 31.82175 131.25 32.0625L131.25 32.0625L131.25 32.0625C 131.25 32.30325 131.19376 32.49975 131.12474 32.49975L131.12474 32.49975L131.12474 32.49975C 131.0565 32.49975 131.00026 32.64075 131.00026 32.8125L131.00026 32.8125L131.00026 32.8125C 131.00026 33.00675 130.929 33.12525 130.81276 33.12525L130.81276 33.12525L130.81276 33.12525C 130.6815 33.12525 130.62526 33.257248 130.62526 33.5625L130.62526 33.5625L130.62526 33.5625C 130.62526 33.80325 130.569 33.99975 130.5 33.99975L130.5 33.99975L130.5 33.99975C 130.431 33.99975 130.37474 34.14075 130.37474 34.3125L130.37474 34.3125L130.37474 34.3125C 130.37474 34.50675 130.30424 34.62525 130.18724 34.62525L130.18724 34.62525L130.18724 34.62525C 130.05675 34.62525 129.99974 34.757248 129.99974 35.0625L129.99974 35.0625L129.99974 35.0625C 129.99974 35.30325 129.9435 35.49975 129.87526 35.49975L129.87526 35.49975L129.87526 35.49975C 129.80624 35.49975 129.75 35.64075 129.75 35.8125L129.75 35.8125L129.75 35.8125C 129.75 35.98425 129.69376 36.12525 129.62474 36.12525L129.62474 36.12525L129.62474 36.12525C 129.5565 36.12525 129.50026 36.32175 129.50026 36.5625L129.50026 36.5625L129.50026 36.5625C 129.50026 36.867752 129.44325 36.99975 129.31276 36.99975L129.31276 36.99975L129.31276 36.99975C 129.19576 36.99975 129.12526 37.11825 129.12526 37.3125L129.12526 37.3125L129.12526 37.3125C 129.12526 37.48425 129.069 37.62525 129 37.62525L129 37.62525L129 37.62525C 128.931 37.62525 128.87474 37.82175 128.87474 38.0625L128.87474 38.0625L128.87474 38.0625C 128.87474 38.367752 128.8185 38.49975 128.68724 38.49975L128.68724 38.49975L128.68724 38.49975C 128.571 38.49975 128.49974 38.61825 128.49974 38.8125L128.49974 38.8125L128.49974 38.8125C 128.49974 38.98425 128.4435 39.12525 128.37526 39.12525L128.37526 39.12525L128.37526 39.12525C 128.30624 39.12525 128.25 39.32175 128.25 39.5625L128.25 39.5625L128.25 39.5625C 128.25 39.80325 128.19376 39.99975 128.12474 39.99975L128.12474 39.99975L128.12474 39.99975C 128.0565 39.99975 128.00026 40.14075 128.00026 40.3125L128.00026 40.3125L128.00026 40.3125C 128.00026 40.506752 127.929 40.62525 127.81276 40.62525L127.81276 40.62525L127.81276 40.62525C 127.6815 40.62525 127.62526 40.757248 127.62526 41.0625L127.62526 41.0625L127.62526 41.0625C 127.62526 41.30325 127.569 41.49975 127.5 41.49975L127.5 41.49975L127.5 41.49975C 127.431 41.49975 127.37474 41.64075 127.37474 41.8125L127.37474 41.8125L127.37474 41.8125C 127.37474 42.006752 127.304245 42.12525 127.18724 42.12525L127.18724 42.12525L127.18724 42.12525C 127.05675 42.12525 126.99974 42.257248 126.99974 42.5625L126.99974 42.5625L126.99974 42.5625C 126.99974 42.80325 126.9435 42.99975 126.87526 42.99975L126.87526 42.99975L126.87526 42.99975C 126.806244 42.99975 126.75 43.14075 126.75 43.3125L126.75 43.3125L126.75 43.3125C 126.75 43.48425 126.693756 43.62525 126.62474 43.62525L126.62474 43.62525L126.62474 43.62525C 126.5565 43.62525 126.50026 43.7955 126.50026 44.004L126.50026 44.004L126.50026 44.004C 126.50026 44.22525 126.42226 44.41275 126.31276 44.45475L126.31276 44.45475L126.31276 44.45475C 126.20926 44.4945 126.12526 44.661 126.12526 44.826L126.12526 44.826L126.12526 44.826C 126.12526 44.99025 126.069 45.12525 126 45.12525L126 45.12525L126 45.12525C 125.931 45.12525 125.87474 45.2655 125.87474 45.43725L125.87474 45.43725L125.87474 45.43725C 125.87474 45.632248 125.804245 45.75 125.68724 45.75L125.68724 45.75L125.68724 45.75C 125.55675 45.75 125.49974 45.882 125.49974 46.18725L125.49974 46.18725L125.49974 46.18725C 125.49974 46.428 125.4435 46.62525 125.37526 46.62525L125.37526 46.62525L125.37526 46.62525C 125.306244 46.62525 125.25 46.7655 125.25 46.93725L125.25 46.93725L125.25 46.93725C 125.25 47.109 125.193756 47.25 125.12474 47.25L125.12474 47.25L125.12474 47.25C 125.0565 47.25 125.00026 47.42025 125.00026 47.62875L125.00026 47.62875L125.00026 47.62875C 125.00026 47.85075 124.92226 48.0375 124.81276 48.0795L124.81276 48.0795L124.81276 48.0795C 124.70926 48.11925 124.62526 48.2865 124.62526 48.450752L124.62526 48.450752L124.62526 48.450752C 124.62526 48.61575 124.569 48.75 124.5 48.75L124.5 48.75L124.5 48.75C 124.431 48.75 124.37474 48.94725 124.37474 49.18725L124.37474 49.18725L124.37474 49.18725C 124.37474 49.493248 124.3185 49.62525 124.18724 49.62525L124.18724 49.62525L124.18724 49.62525C 124.071 49.62525 123.99974 49.743 123.99974 49.93725L123.99974 49.93725L123.99974 49.93725C 123.99974 50.109 123.9435 50.25 123.87526 50.25L123.87526 50.25L123.87526 50.25C 123.806244 50.25 123.75 50.44725 123.75 50.68725L123.75 50.68725L123.75 50.68725C 123.75 50.928 123.693756 51.12525 123.62474 51.12525L123.62474 51.12525L123.62474 51.12525C 123.5565 51.12525 123.50026 51.2655 123.50026 51.43725L123.50026 51.43725L123.50026 51.43725C 123.50026 51.632248 123.429 51.75 123.31276 51.75L123.31276 51.75L123.31276 51.75C 123.1815 51.75 123.12526 51.882 123.12526 52.18725L123.12526 52.18725L123.12526 52.18725C 123.12526 52.428 123.069 52.62525 123 52.62525L123 52.62525L123 52.62525C 122.931 52.62525 122.87474 52.7655 122.87474 52.93725L122.87474 52.93725L122.87474 52.93725C 122.87474 53.132248 122.804245 53.25 122.68724 53.25L122.68724 53.25L122.68724 53.25C 122.55675 53.25 122.49974 53.382 122.49974 53.68725L122.49974 53.68725L122.49974 53.68725C 122.49974 53.928 122.4435 54.12525 122.37526 54.12525L122.37526 54.12525L122.37526 54.12525C 122.306244 54.12525 122.25 54.2655 122.25 54.43725L122.25 54.43725L122.25 54.43725C 122.25 54.609 122.193756 54.75 122.12474 54.75L122.12474 54.75L122.12474 54.75C 122.0565 54.75 122.00026 54.858 122.00026 54.989998L122.00026 54.989998L122.00026 54.989998C 122.00026 55.56675 121.895996 55.62525 120.861755 55.62525L120.861755 55.62525L120.861755 55.62525C 119.892746 55.62525 119.87474 55.61925 119.87474 55.3125M189.83025 55.81275C 189.72751 55.70925 189.52649 55.62525 189.384 55.62525L189.384 55.62525L189.384 55.62525C 189.2415 55.62525 189.12526 55.569 189.12526 55.5L189.12526 55.5L189.12526 55.5C 189.12526 55.431 189.0105 55.37475 188.871 55.37475L188.871 55.37475L188.871 55.37475C 188.7315 55.37475 188.5845 55.29075 188.5455 55.18725L188.5455 55.18725L188.5455 55.18725C 188.5005 55.07175 188.31075 54.99975 188.049 54.99975L188.049 54.99975L188.049 54.99975C 187.81575 54.99975 187.62526 54.9435 187.62526 54.87525L187.62526 54.87525L187.62526 54.87525C 187.62526 54.80625 187.42801 54.75 187.18724 54.75L187.18724 54.75L187.18724 54.75C 186.9465 54.75 186.75 54.69375 186.75 54.62475L186.75 54.62475L186.75 54.62475C 186.75 54.5565 186.495 54.50025 186.18375 54.50025L186.18375 54.50025L186.18375 54.50025C 185.79526 54.50025 185.59425 54.441 185.5455 54.31275L185.5455 54.31275L185.5455 54.31275C 185.49075 54.170998 185.26201 54.12525 184.61176 54.12525L184.61176 54.12525L184.61176 54.12525C 184.1205 54.12525 183.75 54.07125 183.75 54L183.75 54L183.75 54C 183.75 53.92725 183.33224 53.87475 182.74574 53.87475L182.74574 53.87475L182.74574 53.87475C 181.96875 53.87475 181.72574 53.83275 181.67026 53.68725L181.67026 53.68725L181.67026 53.68725C 181.6305 53.5845 181.46399 53.49975 181.299 53.49975L181.299 53.49975L181.299 53.49975C 181.0215 53.49975 180.99974 53.4525 180.99974 52.8405L180.99974 52.8405L180.99974 52.8405C 180.99974 51.762 181.035 51.75 184.074 51.75L184.074 51.75L186.64424 51.75L186.64424 51.75L187.13475 51.255L187.13475 51.255L187.13475 51.255C 187.40475 50.98275 187.62526 50.64525 187.62526 50.505L187.62526 50.505L187.62526 50.505C 187.62526 50.361748 187.707 50.25 187.81276 50.25L187.81276 50.25L187.81276 50.25C 187.97775 50.25 188.00026 48.9045 188.00026 38.888252L188.00026 38.888252L188.00026 38.888252C 188.00026 28.904251 187.977 27.51825 187.81276 27.454498L187.81276 27.454498L187.81276 27.454498C 187.69499 27.4095 187.62526 27.21825 187.62526 26.941502L187.62526 26.941502L187.62526 26.941502C 187.62526 26.698502 187.569 26.499748 187.5 26.499748L187.5 26.499748L187.5 26.499748C 187.431 26.499748 187.37474 26.415749 187.37474 26.312248L187.37474 26.312248L187.37474 26.312248C 187.37474 26.07 186.93001 25.625252 186.68776 25.625252L186.68776 25.625252L186.68776 25.625252C 186.58426 25.625252 186.50026 25.569 186.50026 25.5L186.50026 25.5L186.50026 25.5C 186.50026 25.431 186.309 25.374748 186.07574 25.374748L186.07574 25.374748L186.07574 25.374748C 185.814 25.374748 185.62424 25.303497 185.58 25.187248L185.58 25.187248L185.58 25.187248C 185.52075 25.034252 185.21176 24.999748 183.879 24.999748L183.879 24.999748L183.879 24.999748C 182.87625 24.999748 182.25 24.951752 182.25 24.875252L182.25 24.875252L182.25 24.875252C 182.25 24.806252 182.10976 24.75 181.93724 24.75L181.93724 24.75L181.93724 24.75C 181.63875 24.75 181.62526 24.717003 181.62526 24L181.62526 24L181.62526 24C 181.62526 23.4165 181.6665 23.25 181.81276 23.25L181.81276 23.25L181.81276 23.25C 181.9155 23.25 182.00026 23.193748 182.00026 23.124748L182.00026 23.124748L182.00026 23.124748C 182.00026 23.043 184.60725 23.000252 189.5715 23.000252L189.5715 23.000252L189.5715 23.000252C 198.10725 23.000252 197.49976 22.923748 197.49976 24L197.49976 24L197.49976 24C 197.49976 24.956253 197.41576 24.999748 195.56775 24.999748L195.56775 24.999748L195.56775 24.999748C 194.28226 24.999748 193.97925 25.034252 193.92 25.187248L193.92 25.187248L193.92 25.187248C 193.87576 25.303497 193.68599 25.374748 193.42424 25.374748L193.42424 25.374748L193.42424 25.374748C 193.19101 25.374748 192.99976 25.431 192.99976 25.5L192.99976 25.5L192.99976 25.5C 192.99976 25.569 192.91576 25.625252 192.81226 25.625252L192.81226 25.625252L192.81226 25.625252C 192.57 25.625252 192.12524 26.07 192.12524 26.312248L192.12524 26.312248L192.12524 26.312248C 192.12524 26.415749 192.069 26.499748 192 26.499748L192 26.499748L192 26.499748C 191.931 26.499748 191.87474 26.691002 191.87474 26.924248L191.87474 26.924248L191.87474 26.924248C 191.87474 27.186 191.8035 27.375748 191.68724 27.420002L191.68724 27.420002L191.68724 27.420002C 191.52225 27.48375 191.49974 29.165253 191.49974 41.5125L191.49974 41.5125L191.49974 55.533L191.49974 55.533L191.2305 55.76625L191.2305 55.76625L191.2305 55.76625C 190.9035 56.0505 190.095 56.07675 189.83025 55.81275" stroke="none" fill="#1C1C5C" fill-rule="evenodd" />
    <path id=""  transform="matrix(1 0 0 -1 0 63)"  d="" stroke="none" fill="#446444" fill-rule="evenodd" />
    <path id=""  transform="matrix(1 0 0 -1 0 63)"  d="" stroke="none" fill="#481C44" fill-rule="evenodd" />
	</g>
</g>
</svg>