<svg id="svg" version="1.1" xmlns="http://www.w3.org/2000/svg" xmlns:xlink="http://www.w3.org/1999/xlink" width="400" height="84" viewBox="0, 0, 400,84"><g id="svgg"><path id="path0" d="M328.750 56.833 C 328.685 56.939,326.662 57.000,323.230 57.000 C 319.178 57.000,317.844 57.048,317.933 57.192 C 318.010 57.317,317.978 57.339,317.842 57.255 C 317.553 57.077,279.678 57.013,279.569 57.191 C 279.448 57.385,275.000 57.374,275.000 57.179 C 275.000 57.091,273.640 57.018,271.820 57.007 C 269.693 56.995,268.675 57.045,268.745 57.159 C 268.803 57.253,268.753 57.298,268.634 57.259 C 268.514 57.220,264.873 57.143,260.542 57.088 C 253.315 56.995,252.023 57.046,252.875 57.390 C 252.990 57.436,252.915 57.480,252.708 57.487 C 252.480 57.495,252.333 57.402,252.333 57.250 C 252.333 56.888,247.476 56.878,247.176 57.239 C 247.005 57.445,245.072 57.467,233.489 57.400 C 226.070 57.357,220.000 57.381,220.000 57.453 C 220.001 57.525,217.701 57.516,214.891 57.434 C 211.010 57.321,209.648 57.333,209.227 57.486 C 208.589 57.716,203.621 57.709,203.764 57.477 C 203.813 57.398,202.578 57.333,201.020 57.333 C 199.212 57.333,198.147 57.397,198.078 57.509 C 198.007 57.623,197.032 57.674,195.322 57.654 C 193.866 57.637,192.714 57.558,192.764 57.478 C 192.862 57.318,190.129 57.319,185.192 57.479 C 183.418 57.536,181.933 57.527,181.891 57.458 C 181.796 57.304,179.861 57.300,174.950 57.443 C 172.876 57.503,171.219 57.616,171.266 57.693 C 171.368 57.857,171.407 57.855,168.500 57.833 C 167.262 57.824,166.197 57.764,166.133 57.700 C 166.068 57.636,167.062 57.606,168.341 57.634 C 169.890 57.667,170.667 57.626,170.667 57.509 C 170.667 57.395,169.895 57.334,168.458 57.336 C 166.057 57.338,165.500 57.419,165.500 57.765 C 165.500 57.953,164.183 57.981,157.708 57.934 C 153.423 57.903,151.004 57.927,152.333 57.987 L 154.750 58.097 152.302 58.132 C 150.786 58.153,149.813 58.102,149.748 57.997 C 149.610 57.774,132.883 57.785,132.745 58.009 C 132.689 58.099,131.603 58.152,130.198 58.132 L 127.750 58.097 130.250 58.007 C 131.625 57.957,122.981 57.901,111.042 57.881 C 96.322 57.857,89.333 57.900,89.333 58.016 C 89.333 58.110,89.420 58.133,89.526 58.067 C 89.645 57.994,89.673 58.022,89.599 58.141 C 89.429 58.417,89.167 58.378,89.167 58.077 C 89.167 57.782,84.251 57.726,83.899 58.016 C 83.794 58.102,80.190 58.169,75.517 58.172 C 71.008 58.174,67.353 58.230,67.394 58.296 C 67.435 58.362,66.220 58.368,64.693 58.310 C 58.259 58.061,51.438 58.139,51.685 58.458 C 51.869 58.696,51.842 58.691,51.539 58.433 C 51.334 58.258,51.167 58.183,51.167 58.266 C 51.167 58.355,49.687 58.365,47.542 58.291 C 41.885 58.094,40.906 58.150,40.959 58.667 C 40.982 58.896,40.945 59.000,40.876 58.898 C 40.731 58.684,40.266 58.827,40.216 59.101 C 40.177 59.315,67.331 59.291,67.678 59.076 C 67.811 58.994,67.843 59.017,67.766 59.141 C 67.678 59.283,68.386 59.333,70.500 59.333 C 72.360 59.333,73.317 59.275,73.250 59.167 C 73.090 58.908,77.920 58.947,78.341 59.208 C 78.610 59.375,78.703 59.375,78.809 59.205 C 78.913 59.037,81.695 58.994,92.387 58.996 C 104.213 58.998,105.833 58.969,105.833 58.749 C 105.833 58.612,105.908 58.500,106.000 58.500 C 106.092 58.500,106.167 58.600,106.167 58.722 C 106.167 59.021,122.110 59.069,122.490 58.772 C 122.679 58.624,122.701 58.632,122.594 58.811 C 122.479 59.002,124.569 59.028,135.812 58.977 C 144.614 58.937,149.148 58.860,149.111 58.750 C 149.023 58.484,144.308 58.440,144.140 58.704 C 144.041 58.860,144.004 58.839,144.003 58.625 C 144.000 58.359,144.237 58.333,146.667 58.333 C 149.306 58.333,149.435 58.359,149.353 58.875 C 149.342 58.944,151.771 59.000,154.750 59.000 C 160.207 59.000,160.277 58.993,160.182 58.446 C 160.169 58.370,160.232 58.354,160.322 58.410 C 160.412 58.465,160.444 58.640,160.394 58.797 C 160.318 59.033,160.332 59.041,160.474 58.840 C 160.624 58.628,163.444 58.603,182.176 58.647 C 195.660 58.678,203.669 58.639,203.608 58.540 C 203.554 58.453,203.626 58.240,203.767 58.066 C 204.011 57.765,204.018 57.770,203.932 58.178 L 203.842 58.606 220.069 58.639 C 234.437 58.668,236.307 58.643,236.393 58.419 C 236.474 58.207,236.883 58.172,238.953 58.202 L 241.417 58.236 238.917 58.333 L 236.417 58.430 239.214 58.465 C 241.324 58.491,242.030 58.449,242.090 58.292 C 242.154 58.126,248.749 58.090,274.418 58.116 C 294.639 58.137,306.667 58.090,306.667 57.991 C 306.667 57.901,305.681 57.818,304.375 57.797 L 302.083 57.761 304.332 57.708 C 306.307 57.663,306.606 57.691,306.791 57.944 C 306.954 58.168,307.046 58.187,307.201 58.033 C 307.340 57.893,308.124 57.844,309.825 57.868 L 312.250 57.903 309.750 58.000 C 308.270 58.057,310.594 58.110,315.450 58.129 C 320.667 58.149,323.688 58.101,323.752 57.997 C 323.815 57.896,325.849 57.833,329.098 57.833 C 333.607 57.833,334.357 57.798,334.440 57.583 C 334.543 57.313,339.394 57.195,339.558 57.458 C 339.601 57.527,338.544 57.561,337.210 57.533 C 335.876 57.505,334.717 57.550,334.634 57.633 C 334.545 57.722,341.081 57.783,350.743 57.783 L 367.001 57.783 366.967 57.327 L 366.932 56.870 361.591 56.758 C 354.362 56.605,339.835 56.706,339.834 56.908 C 339.834 56.995,339.743 56.977,339.633 56.867 C 339.324 56.557,334.520 56.588,334.400 56.900 C 334.351 57.029,334.184 57.109,334.030 57.080 C 333.876 57.050,332.714 57.020,331.448 57.013 C 329.960 57.005,329.183 56.941,329.250 56.833 C 329.307 56.742,329.241 56.667,329.103 56.667 C 328.966 56.667,328.807 56.742,328.750 56.833 M354.716 57.124 C 354.056 57.155,352.931 57.155,352.216 57.124 C 351.501 57.093,352.042 57.067,353.417 57.067 C 354.792 57.066,355.376 57.092,354.716 57.124 M251.500 57.393 C 251.912 57.423,251.181 57.452,249.875 57.457 C 248.569 57.463,247.531 57.418,247.567 57.359 C 247.630 57.256,249.874 57.275,251.500 57.393 M361.000 57.333 C 361.000 57.551,356.837 57.551,356.500 57.333 C 356.332 57.225,357.030 57.171,358.625 57.169 C 360.099 57.168,361.000 57.230,361.000 57.333 M300.208 57.457 C 299.544 57.489,298.456 57.489,297.792 57.457 C 297.127 57.425,297.671 57.400,299.000 57.400 C 300.329 57.400,300.873 57.425,300.208 57.457 M356.083 57.500 C 356.150 57.608,355.280 57.667,353.593 57.667 C 351.976 57.667,351.000 57.604,351.000 57.500 C 351.000 57.396,351.941 57.333,353.490 57.333 C 354.970 57.333,356.022 57.401,356.083 57.500 M214.299 57.708 C 214.437 57.874,213.944 57.906,211.903 57.867 C 208.606 57.803,208.463 57.500,211.730 57.500 C 213.443 57.500,214.175 57.559,214.299 57.708 M263.500 57.625 C 263.501 57.694,262.769 57.730,261.875 57.706 C 258.864 57.624,258.569 57.562,261.042 57.531 C 262.394 57.514,263.500 57.556,263.500 57.625 M293.417 57.831 C 292.042 57.878,290.898 57.879,290.875 57.833 C 290.853 57.788,289.690 57.755,288.292 57.761 L 285.750 57.772 288.250 57.678 C 289.625 57.626,291.912 57.620,293.333 57.664 L 295.917 57.745 293.417 57.831 M327.549 57.624 C 326.889 57.655,325.764 57.655,325.049 57.624 C 324.335 57.593,324.875 57.567,326.250 57.567 C 327.625 57.566,328.210 57.592,327.549 57.624 M180.792 57.791 C 180.081 57.822,178.919 57.822,178.208 57.791 C 177.498 57.759,178.079 57.734,179.500 57.734 C 180.921 57.734,181.502 57.759,180.792 57.791 M187.083 57.833 C 187.022 57.932,185.998 58.000,184.573 58.000 C 183.080 58.000,182.167 57.937,182.167 57.833 C 182.167 57.730,183.114 57.667,184.677 57.667 C 186.307 57.667,187.150 57.725,187.083 57.833 M202.383 57.790 C 201.722 57.822,200.597 57.822,199.883 57.791 C 199.168 57.759,199.708 57.734,201.083 57.733 C 202.458 57.733,203.043 57.759,202.383 57.790 M245.883 57.790 C 245.222 57.822,244.097 57.822,243.383 57.791 C 242.668 57.759,243.208 57.734,244.583 57.733 C 245.958 57.733,246.543 57.759,245.883 57.790 M279.500 57.833 C 279.500 57.938,278.648 57.987,277.208 57.966 L 274.917 57.931 277.167 57.833 C 278.404 57.779,279.435 57.720,279.458 57.701 C 279.481 57.682,279.500 57.742,279.500 57.833 M323.083 57.833 C 323.022 57.932,321.998 58.000,320.573 58.000 C 319.080 58.000,318.167 57.937,318.167 57.833 C 318.167 57.730,319.114 57.667,320.677 57.667 C 322.307 57.667,323.150 57.725,323.083 57.833 M225.000 58.259 C 225.000 58.458,224.599 58.500,222.722 58.500 C 221.469 58.500,220.494 58.451,220.554 58.390 C 220.614 58.330,220.596 58.199,220.512 58.099 C 220.404 57.968,221.017 57.931,222.680 57.967 C 224.570 58.008,225.000 58.062,225.000 58.259 M273.049 57.957 C 272.389 57.988,271.264 57.989,270.549 57.957 C 269.835 57.926,270.375 57.900,271.750 57.900 C 273.125 57.900,273.710 57.925,273.049 57.957 M89.000 58.167 C 89.000 58.270,88.139 58.333,86.750 58.333 C 85.361 58.333,84.500 58.270,84.500 58.167 C 84.500 58.064,85.361 58.000,86.750 58.000 C 88.139 58.000,89.000 58.064,89.000 58.167 M121.833 58.167 C 121.833 58.270,120.920 58.333,119.427 58.333 C 118.002 58.333,116.978 58.265,116.917 58.167 C 116.850 58.058,117.693 58.000,119.323 58.000 C 120.886 58.000,121.833 58.063,121.833 58.167 M138.292 58.292 C 138.346 58.456,137.223 58.492,132.972 58.462 L 127.583 58.424 132.917 58.336 C 137.466 58.261,137.883 58.235,135.750 58.158 L 133.250 58.069 135.736 58.076 C 137.572 58.081,138.241 58.138,138.292 58.292 M174.958 58.124 C 174.248 58.155,173.085 58.155,172.375 58.124 C 171.665 58.093,172.246 58.067,173.667 58.067 C 175.088 58.067,175.669 58.093,174.958 58.124 M209.000 58.250 C 209.000 58.461,208.620 58.500,206.583 58.500 C 204.546 58.500,204.167 58.461,204.167 58.250 C 204.167 58.039,204.546 58.000,206.583 58.000 C 208.620 58.000,209.000 58.039,209.000 58.250 M230.667 58.250 C 230.667 58.461,230.289 58.500,228.268 58.500 C 226.289 58.500,225.852 58.456,225.773 58.250 C 225.690 58.035,226.023 58.000,228.172 58.000 C 230.278 58.000,230.667 58.039,230.667 58.250 M40.278 58.278 C 40.091 58.465,40.154 58.667,40.399 58.667 C 40.527 58.667,40.674 58.554,40.727 58.417 C 40.823 58.166,40.492 58.064,40.278 58.278 M104.383 58.290 C 103.722 58.322,102.597 58.322,101.883 58.291 C 101.168 58.259,101.708 58.234,103.083 58.233 C 104.458 58.233,105.043 58.259,104.383 58.290 M115.125 58.290 C 114.506 58.322,113.494 58.322,112.875 58.290 C 112.256 58.258,112.763 58.232,114.000 58.232 C 115.237 58.232,115.744 58.258,115.125 58.290 M124.929 58.462 C 123.470 58.488,122.217 58.451,122.146 58.379 C 122.074 58.308,123.268 58.287,124.800 58.333 L 127.583 58.416 124.929 58.462 M164.383 58.290 C 163.722 58.322,162.597 58.322,161.883 58.291 C 161.168 58.259,161.708 58.234,163.083 58.233 C 164.458 58.233,165.043 58.259,164.383 58.290 M197.083 58.278 C 195.058 58.400,192.999 58.406,193.000 58.292 C 193.000 58.223,194.106 58.181,195.458 58.197 C 196.810 58.214,197.542 58.251,197.083 58.278 M100.224 58.625 C 100.267 58.694,99.153 58.750,97.750 58.750 C 96.347 58.750,95.233 58.694,95.276 58.625 C 95.318 58.556,96.432 58.500,97.750 58.500 C 99.068 58.500,100.182 58.556,100.224 58.625 M158.716 58.624 C 158.056 58.655,156.931 58.655,156.216 58.624 C 155.501 58.593,156.042 58.567,157.417 58.567 C 158.792 58.566,159.376 58.592,158.716 58.624 M51.111 58.875 C 51.112 59.035,50.533 59.072,48.639 59.033 C 45.374 58.967,45.374 58.667,48.639 58.667 C 50.505 58.667,51.111 58.718,51.111 58.875 M131.800 58.790 C 131.094 58.822,129.894 58.822,129.133 58.791 C 128.372 58.760,128.950 58.734,130.417 58.734 C 131.883 58.734,132.506 58.759,131.800 58.790 M62.000 58.958 C 62.000 59.027,60.882 59.083,59.515 59.083 C 58.149 59.083,57.118 59.028,57.224 58.961 C 57.478 58.799,62.000 58.797,62.000 58.958 " stroke="none" fill="#c49c2c" fill-rule="evenodd"></path><path id="path1" d="M329.250 56.833 C 329.183 56.941,329.960 57.005,331.448 57.013 C 332.714 57.020,333.876 57.050,334.030 57.080 C 334.184 57.109,334.351 57.029,334.400 56.900 C 334.510 56.614,334.305 56.595,334.033 56.867 C 333.878 57.022,333.833 57.022,333.833 56.867 C 333.833 56.612,329.406 56.580,329.250 56.833 M341.208 56.791 C 341.919 56.822,343.081 56.822,343.792 56.791 C 344.502 56.759,343.921 56.734,342.500 56.734 C 341.079 56.734,340.498 56.759,341.208 56.791 M346.549 56.791 C 347.264 56.822,348.389 56.822,349.049 56.790 C 349.710 56.759,349.125 56.733,347.750 56.733 C 346.375 56.734,345.835 56.759,346.549 56.791 M362.958 56.791 C 363.715 56.822,364.952 56.822,365.708 56.791 C 366.465 56.760,365.846 56.735,364.333 56.735 C 362.821 56.735,362.202 56.760,362.958 56.791 M252.333 57.250 C 252.333 57.392,252.483 57.500,252.679 57.500 C 252.985 57.500,252.996 57.472,252.774 57.250 C 252.636 57.112,252.481 57.000,252.429 57.000 C 252.376 57.000,252.333 57.112,252.333 57.250 M259.883 57.124 C 260.597 57.155,261.722 57.155,262.383 57.124 C 263.043 57.092,262.458 57.066,261.083 57.067 C 259.708 57.067,259.168 57.093,259.883 57.124 M264.583 57.112 C 266.593 57.233,268.796 57.240,268.725 57.125 C 268.682 57.056,267.545 57.014,266.198 57.031 C 264.852 57.048,264.125 57.084,264.583 57.112 M275.000 57.167 C 275.000 57.270,275.858 57.333,277.240 57.333 C 278.554 57.333,279.523 57.264,279.583 57.167 C 279.650 57.059,278.863 57.000,277.343 57.000 C 275.892 57.000,275.000 57.063,275.000 57.167 M281.375 57.124 C 282.085 57.155,283.248 57.155,283.958 57.124 C 284.669 57.093,284.087 57.067,282.667 57.067 C 281.246 57.067,280.665 57.093,281.375 57.124 M297.875 57.124 C 298.585 57.155,299.748 57.155,300.458 57.124 C 301.169 57.093,300.587 57.067,299.167 57.067 C 297.746 57.067,297.165 57.093,297.875 57.124 M308.542 57.124 C 309.252 57.155,310.415 57.155,311.125 57.124 C 311.835 57.093,311.254 57.067,309.833 57.067 C 308.412 57.067,307.831 57.093,308.542 57.124 M313.750 57.112 C 315.760 57.233,317.963 57.240,317.891 57.125 C 317.849 57.056,316.712 57.014,315.365 57.031 C 314.018 57.048,313.292 57.084,313.750 57.112 M352.216 57.124 C 352.931 57.155,354.056 57.155,354.716 57.124 C 355.376 57.092,354.792 57.066,353.417 57.067 C 352.042 57.067,351.501 57.093,352.216 57.124 M247.567 57.359 C 247.531 57.418,248.569 57.463,249.875 57.457 C 252.298 57.447,251.991 57.374,249.192 57.294 C 248.335 57.270,247.604 57.299,247.567 57.359 M356.500 57.333 C 356.837 57.551,361.000 57.551,361.000 57.333 C 361.000 57.230,360.099 57.168,358.625 57.169 C 357.030 57.171,356.332 57.225,356.500 57.333 M170.667 57.509 C 170.667 57.626,169.890 57.667,168.341 57.634 C 167.062 57.606,166.068 57.636,166.133 57.700 C 166.197 57.764,167.262 57.824,168.500 57.833 C 171.434 57.855,171.369 57.859,171.253 57.671 C 171.190 57.569,172.103 57.490,173.701 57.458 L 176.250 57.407 173.458 57.370 C 171.592 57.346,170.667 57.391,170.667 57.509 M181.917 57.500 C 181.983 57.608,181.118 57.680,179.468 57.703 L 176.917 57.740 179.333 57.792 C 180.776 57.823,181.884 57.775,182.083 57.672 C 182.267 57.577,183.617 57.479,185.083 57.454 L 187.750 57.408 184.782 57.370 C 182.836 57.346,181.849 57.391,181.917 57.500 M192.764 57.478 C 192.714 57.558,193.866 57.637,195.322 57.654 C 197.032 57.674,198.007 57.623,198.078 57.509 C 198.152 57.389,197.348 57.333,195.520 57.333 C 194.053 57.333,192.813 57.398,192.764 57.478 M203.771 57.466 C 203.695 57.590,204.526 57.635,206.497 57.614 C 208.057 57.597,209.333 57.636,209.333 57.700 C 209.333 57.764,210.493 57.839,211.911 57.867 C 213.883 57.905,214.441 57.871,214.286 57.722 C 214.009 57.455,203.929 57.210,203.771 57.466 M215.583 57.445 C 217.581 57.566,220.001 57.573,220.000 57.458 C 220.000 57.390,218.819 57.347,217.375 57.364 C 215.931 57.381,215.125 57.418,215.583 57.445 M232.050 57.458 C 232.856 57.488,234.131 57.488,234.883 57.457 C 235.635 57.426,234.975 57.401,233.417 57.402 C 231.858 57.402,231.243 57.427,232.050 57.458 M242.958 57.457 C 243.715 57.488,244.952 57.488,245.708 57.457 C 246.465 57.426,245.846 57.401,244.333 57.401 C 242.821 57.401,242.202 57.426,242.958 57.457 M297.792 57.457 C 298.456 57.489,299.544 57.489,300.208 57.457 C 300.873 57.425,300.329 57.400,299.000 57.400 C 297.671 57.400,297.127 57.425,297.792 57.457 M334.431 57.607 C 334.345 57.829,334.371 57.843,334.565 57.682 C 334.733 57.542,335.527 57.498,337.220 57.533 C 338.549 57.561,339.601 57.527,339.558 57.458 C 339.382 57.176,334.542 57.316,334.431 57.607 M351.000 57.500 C 351.000 57.604,351.976 57.667,353.593 57.667 C 355.280 57.667,356.150 57.608,356.083 57.500 C 356.022 57.401,354.970 57.333,353.490 57.333 C 351.941 57.333,351.000 57.396,351.000 57.500 M259.417 57.612 C 261.442 57.733,263.501 57.740,263.500 57.625 C 263.500 57.556,262.394 57.514,261.042 57.531 C 259.690 57.548,258.958 57.584,259.417 57.612 M288.250 57.678 L 285.750 57.772 288.294 57.761 C 290.157 57.753,290.818 57.802,290.763 57.943 C 290.709 58.085,291.384 58.132,293.303 58.120 L 295.917 58.104 293.417 58.006 L 290.917 57.908 293.417 57.828 L 295.917 57.749 293.333 57.666 C 291.912 57.621,289.625 57.626,288.250 57.678 M325.049 57.624 C 325.764 57.655,326.889 57.655,327.549 57.624 C 328.210 57.592,327.625 57.566,326.250 57.567 C 324.875 57.567,324.335 57.593,325.049 57.624 M182.167 57.833 C 182.167 57.937,183.080 58.000,184.573 58.000 C 185.998 58.000,187.022 57.932,187.083 57.833 C 187.150 57.725,186.307 57.667,184.677 57.667 C 183.114 57.667,182.167 57.730,182.167 57.833 M199.883 57.791 C 200.597 57.822,201.722 57.822,202.383 57.790 C 203.043 57.759,202.458 57.733,201.083 57.733 C 199.708 57.734,199.168 57.759,199.883 57.791 M243.383 57.791 C 244.097 57.822,245.222 57.822,245.883 57.790 C 246.543 57.759,245.958 57.733,244.583 57.733 C 243.208 57.734,242.668 57.759,243.383 57.791 M277.167 57.833 L 274.917 57.931 277.208 57.966 C 278.648 57.987,279.500 57.938,279.500 57.833 C 279.500 57.742,279.481 57.682,279.458 57.701 C 279.435 57.720,278.404 57.779,277.167 57.833 M304.327 57.789 C 305.846 57.826,306.617 57.909,306.714 58.047 C 306.818 58.193,306.840 58.180,306.791 58.000 C 306.735 57.793,306.319 57.749,304.403 57.742 L 302.083 57.734 304.327 57.789 M318.122 57.875 C 318.060 58.037,318.582 58.072,320.479 58.033 C 323.790 57.964,323.984 57.667,320.718 57.667 C 318.859 57.667,318.181 57.721,318.122 57.875 M341.383 57.791 C 342.097 57.822,343.222 57.822,343.883 57.790 C 344.543 57.759,343.958 57.733,342.583 57.733 C 341.208 57.734,340.668 57.759,341.383 57.791 M357.458 57.790 C 358.123 57.822,359.210 57.822,359.875 57.790 C 360.540 57.759,359.996 57.733,358.667 57.733 C 357.337 57.733,356.794 57.759,357.458 57.790 M84.455 58.125 C 84.553 58.379,89.000 58.429,89.000 58.175 C 89.000 58.086,87.997 57.996,86.688 57.967 C 84.890 57.928,84.393 57.963,84.455 58.125 M112.958 57.957 C 113.623 57.989,114.710 57.989,115.375 57.957 C 116.040 57.925,115.496 57.900,114.167 57.900 C 112.837 57.900,112.294 57.925,112.958 57.957 M130.250 58.000 L 127.750 58.097 130.198 58.132 C 131.690 58.153,132.687 58.102,132.750 58.000 C 132.807 57.908,132.830 57.849,132.802 57.868 C 132.773 57.887,131.625 57.947,130.250 58.000 M149.813 58.046 C 149.884 58.118,151.024 58.155,152.346 58.129 L 154.750 58.082 152.216 57.999 C 150.823 57.954,149.741 57.975,149.813 58.046 M161.883 57.957 C 162.597 57.989,163.722 57.988,164.383 57.957 C 165.043 57.925,164.458 57.900,163.083 57.900 C 161.708 57.900,161.168 57.926,161.883 57.957 M203.680 58.142 C 203.571 58.345,203.561 58.518,203.654 58.576 C 203.740 58.628,203.859 58.515,203.920 58.323 C 204.070 57.850,203.903 57.725,203.680 58.142 M220.512 58.099 C 220.596 58.199,220.614 58.330,220.554 58.390 C 220.494 58.451,221.469 58.500,222.722 58.500 C 224.599 58.500,225.000 58.458,225.000 58.259 C 225.000 58.062,224.570 58.008,222.680 57.967 C 221.017 57.931,220.404 57.968,220.512 58.099 M270.549 57.957 C 271.264 57.989,272.389 57.988,273.049 57.957 C 273.710 57.925,273.125 57.900,271.750 57.900 C 270.375 57.900,269.835 57.926,270.549 57.957 M307.275 57.958 C 307.232 58.027,307.959 58.064,308.890 58.039 C 311.954 57.960,312.288 57.895,309.802 57.864 C 308.455 57.847,307.318 57.890,307.275 57.958 M116.917 58.167 C 116.978 58.265,118.002 58.333,119.427 58.333 C 120.920 58.333,121.833 58.270,121.833 58.167 C 121.833 58.063,120.886 58.000,119.323 58.000 C 117.693 58.000,116.850 58.058,116.917 58.167 M135.750 58.158 C 137.883 58.235,137.466 58.261,132.917 58.336 L 127.583 58.424 132.972 58.462 C 137.223 58.492,138.346 58.456,138.292 58.292 C 138.241 58.138,137.572 58.081,135.736 58.076 L 133.250 58.069 135.750 58.158 M172.375 58.124 C 173.085 58.155,174.248 58.155,174.958 58.124 C 175.669 58.093,175.088 58.067,173.667 58.067 C 172.246 58.067,171.665 58.093,172.375 58.124 M204.167 58.250 C 204.167 58.461,204.546 58.500,206.583 58.500 C 208.620 58.500,209.000 58.461,209.000 58.250 C 209.000 58.039,208.620 58.000,206.583 58.000 C 204.546 58.000,204.167 58.039,204.167 58.250 M225.773 58.250 C 225.852 58.456,226.289 58.500,228.268 58.500 C 230.289 58.500,230.667 58.461,230.667 58.250 C 230.667 58.039,230.278 58.000,228.172 58.000 C 226.023 58.000,225.690 58.035,225.773 58.250 M243.383 58.124 C 244.097 58.155,245.222 58.155,245.883 58.124 C 246.543 58.092,245.958 58.066,244.583 58.067 C 243.208 58.067,242.668 58.093,243.383 58.124 M40.717 58.392 C 40.643 58.516,40.471 58.667,40.333 58.727 C 40.189 58.791,40.239 58.808,40.450 58.770 C 40.652 58.732,40.849 58.788,40.888 58.893 C 40.926 58.998,40.949 58.877,40.937 58.625 C 40.914 58.100,40.899 58.084,40.717 58.392 M46.750 58.279 C 48.748 58.399,51.167 58.407,51.167 58.292 C 51.167 58.223,49.985 58.181,48.542 58.197 C 47.098 58.214,46.292 58.251,46.750 58.279 M63.417 58.278 C 65.441 58.400,67.463 58.406,67.391 58.292 C 67.349 58.223,66.249 58.181,64.948 58.197 C 63.648 58.214,62.958 58.251,63.417 58.278 M101.883 58.291 C 102.597 58.322,103.722 58.322,104.383 58.290 C 105.043 58.259,104.458 58.233,103.083 58.233 C 101.708 58.234,101.168 58.259,101.883 58.291 M112.875 58.290 C 113.494 58.322,114.506 58.322,115.125 58.290 C 115.744 58.258,115.237 58.232,114.000 58.232 C 112.763 58.232,112.256 58.258,112.875 58.290 M122.146 58.379 C 122.217 58.451,123.470 58.488,124.929 58.462 L 127.583 58.416 124.800 58.333 C 123.268 58.287,122.074 58.308,122.146 58.379 M161.883 58.291 C 162.597 58.322,163.722 58.322,164.383 58.290 C 165.043 58.259,164.458 58.233,163.083 58.233 C 161.708 58.234,161.168 58.259,161.883 58.291 M193.000 58.292 C 192.999 58.360,193.731 58.397,194.625 58.372 C 197.636 58.290,197.931 58.229,195.458 58.197 C 194.106 58.181,193.000 58.223,193.000 58.292 M236.444 58.278 C 236.383 58.339,236.334 58.470,236.336 58.569 C 236.337 58.680,236.389 58.671,236.468 58.546 C 236.557 58.406,237.340 58.327,239.007 58.291 L 241.417 58.240 238.986 58.203 C 237.649 58.183,236.506 58.217,236.444 58.278 M144.032 58.625 C 144.082 58.887,144.340 58.917,146.544 58.924 L 149.000 58.931 146.584 58.877 C 143.364 58.807,143.368 58.500,146.589 58.500 C 148.583 58.500,149.027 58.544,149.106 58.749 C 149.159 58.886,149.265 58.959,149.344 58.910 C 149.422 58.862,149.443 58.713,149.392 58.578 C 149.236 58.172,143.954 58.218,144.032 58.625 M95.276 58.625 C 95.233 58.694,96.347 58.750,97.750 58.750 C 99.153 58.750,100.267 58.694,100.224 58.625 C 100.182 58.556,99.068 58.500,97.750 58.500 C 96.432 58.500,95.318 58.556,95.276 58.625 M105.833 58.750 C 105.833 58.887,105.908 59.000,106.000 59.000 C 106.092 59.000,106.167 58.887,106.167 58.750 C 106.167 58.612,106.092 58.500,106.000 58.500 C 105.908 58.500,105.833 58.612,105.833 58.750 M156.216 58.624 C 156.931 58.655,158.056 58.655,158.716 58.624 C 159.376 58.592,158.792 58.566,157.417 58.567 C 156.042 58.567,155.501 58.593,156.216 58.624 M161.883 58.624 C 162.597 58.655,163.722 58.655,164.383 58.624 C 165.043 58.592,164.458 58.566,163.083 58.567 C 161.708 58.567,161.168 58.593,161.883 58.624 M210.549 58.624 C 211.264 58.655,212.389 58.655,213.049 58.624 C 213.710 58.592,213.125 58.566,211.750 58.567 C 210.375 58.567,209.835 58.593,210.549 58.624 M46.167 58.825 C 46.167 58.916,47.224 59.005,48.639 59.033 C 50.533 59.072,51.112 59.035,51.111 58.875 C 51.111 58.718,50.505 58.667,48.639 58.667 C 47.189 58.667,46.167 58.732,46.167 58.825 M129.133 58.791 C 129.894 58.822,131.094 58.822,131.800 58.790 C 132.506 58.759,131.883 58.734,130.417 58.734 C 128.950 58.734,128.372 58.760,129.133 58.791 M57.194 58.979 C 56.768 59.250,57.519 59.347,59.853 59.324 C 61.743 59.305,62.128 59.260,62.054 59.067 C 61.952 58.801,57.600 58.722,57.194 58.979 M112.625 58.957 C 113.290 58.989,114.377 58.989,115.042 58.957 C 115.706 58.925,115.162 58.900,113.833 58.900 C 112.504 58.900,111.960 58.925,112.625 58.957 M60.701 59.124 C 60.032 59.156,58.982 59.155,58.368 59.123 C 57.753 59.091,58.300 59.065,59.583 59.066 C 60.867 59.066,61.370 59.092,60.701 59.124 M65.083 59.167 L 62.417 59.263 65.032 59.298 C 66.635 59.320,67.687 59.269,67.750 59.167 C 67.807 59.075,67.830 59.016,67.802 59.035 C 67.773 59.055,66.550 59.114,65.083 59.167 M73.250 59.167 C 73.311 59.266,74.366 59.333,75.853 59.333 C 77.477 59.333,78.317 59.275,78.250 59.167 C 78.189 59.068,77.134 59.000,75.647 59.000 C 74.023 59.000,73.183 59.058,73.250 59.167 M42.216 59.291 C 42.931 59.322,44.056 59.322,44.716 59.290 C 45.376 59.259,44.792 59.233,43.417 59.233 C 42.042 59.234,41.501 59.259,42.216 59.291 " stroke="none" fill="#c4a42c" fill-rule="evenodd"></path><path id="path2" d="M253.107 9.583 C 252.970 9.721,252.702 9.833,252.512 9.833 C 252.322 9.833,252.167 9.908,252.167 10.000 C 252.167 10.092,252.014 10.167,251.828 10.167 C 251.642 10.167,251.446 10.279,251.394 10.417 C 251.334 10.571,251.081 10.667,250.732 10.667 C 250.421 10.667,250.167 10.742,250.167 10.833 C 250.167 10.925,249.904 11.000,249.583 11.000 C 249.262 11.000,249.000 11.075,249.000 11.167 C 249.000 11.258,248.660 11.333,248.245 11.333 C 247.727 11.333,247.459 11.412,247.394 11.583 C 247.321 11.772,247.016 11.833,246.149 11.833 C 245.494 11.833,245.000 11.905,245.000 12.000 C 245.000 12.097,244.443 12.167,243.661 12.167 C 242.625 12.167,242.301 12.223,242.227 12.417 C 242.174 12.554,241.952 12.667,241.732 12.667 C 241.362 12.667,241.333 12.730,241.333 13.546 C 241.333 14.984,241.380 15.000,245.432 15.000 L 248.859 15.000 249.513 15.660 C 249.873 16.023,250.167 16.473,250.167 16.660 C 250.167 16.851,250.276 17.000,250.417 17.000 C 250.637 17.000,250.667 18.794,250.667 32.149 C 250.667 45.461,250.636 47.309,250.417 47.394 C 250.260 47.454,250.167 47.709,250.167 48.078 C 250.167 48.402,250.092 48.667,250.000 48.667 C 249.908 48.667,249.833 48.779,249.833 48.917 C 249.833 49.240,249.240 49.833,248.917 49.833 C 248.779 49.833,248.667 49.908,248.667 50.000 C 248.667 50.092,248.412 50.167,248.101 50.167 C 247.752 50.167,247.499 50.262,247.440 50.417 C 247.361 50.621,246.949 50.667,245.172 50.667 C 243.835 50.667,243.000 50.731,243.000 50.833 C 243.000 50.925,242.813 51.000,242.583 51.000 C 242.185 51.000,242.167 51.044,242.167 52.000 C 242.167 52.778,242.222 53.000,242.417 53.000 C 242.554 53.000,242.667 53.075,242.667 53.167 C 242.667 53.276,246.143 53.333,252.762 53.333 C 264.143 53.333,263.333 53.435,263.333 52.000 C 263.333 50.725,263.221 50.667,260.757 50.667 C 259.043 50.667,258.639 50.621,258.560 50.417 C 258.501 50.262,258.248 50.167,257.899 50.167 C 257.588 50.167,257.333 50.092,257.333 50.000 C 257.333 49.908,257.221 49.833,257.083 49.833 C 256.760 49.833,256.167 49.240,256.167 48.917 C 256.167 48.779,256.092 48.667,256.000 48.667 C 255.908 48.667,255.833 48.412,255.833 48.101 C 255.833 47.752,255.738 47.499,255.583 47.440 C 255.363 47.355,255.333 45.113,255.333 28.650 L 255.333 9.956 254.974 9.645 C 254.538 9.266,253.460 9.231,253.107 9.583 M159.833 10.250 C 159.833 10.509,159.739 10.667,159.583 10.667 C 159.446 10.667,159.333 10.812,159.333 10.990 C 159.333 11.168,159.258 11.360,159.167 11.417 C 159.075 11.473,159.000 11.778,159.000 12.093 C 159.000 12.409,158.925 12.667,158.833 12.667 C 158.742 12.667,158.667 12.809,158.667 12.982 C 158.667 13.156,158.554 13.341,158.417 13.394 C 158.260 13.454,158.167 13.709,158.167 14.078 C 158.167 14.402,158.092 14.667,158.000 14.667 C 157.908 14.667,157.833 14.809,157.833 14.982 C 157.833 15.156,157.721 15.341,157.583 15.394 C 157.426 15.454,157.333 15.709,157.333 16.078 C 157.333 16.402,157.258 16.667,157.167 16.667 C 157.075 16.667,157.000 16.817,157.000 17.000 C 157.000 17.183,156.925 17.333,156.833 17.333 C 156.742 17.333,156.667 17.633,156.667 18.000 C 156.667 18.481,156.597 18.667,156.417 18.667 C 156.279 18.667,156.167 18.812,156.167 18.990 C 156.167 19.168,156.092 19.360,156.000 19.417 C 155.908 19.473,155.833 19.778,155.833 20.093 C 155.833 20.492,155.757 20.667,155.583 20.667 C 155.446 20.667,155.333 20.812,155.333 20.990 C 155.333 21.168,155.258 21.360,155.167 21.417 C 155.075 21.473,155.000 21.778,155.000 22.093 C 155.000 22.409,154.925 22.667,154.833 22.667 C 154.742 22.667,154.667 22.809,154.667 22.982 C 154.667 23.156,154.554 23.341,154.417 23.394 C 154.260 23.454,154.167 23.709,154.167 24.078 C 154.167 24.402,154.092 24.667,154.000 24.667 C 153.908 24.667,153.833 24.809,153.833 24.982 C 153.833 25.156,153.721 25.341,153.583 25.394 C 153.426 25.454,153.333 25.709,153.333 26.078 C 153.333 26.402,153.258 26.667,153.167 26.667 C 153.075 26.667,153.000 26.817,153.000 27.000 C 153.000 27.183,152.925 27.333,152.833 27.333 C 152.742 27.333,152.667 27.633,152.667 28.000 C 152.667 28.481,152.597 28.667,152.417 28.667 C 152.279 28.667,152.167 28.812,152.167 28.990 C 152.167 29.168,152.092 29.360,152.000 29.417 C 151.908 29.473,151.833 29.778,151.833 30.093 C 151.833 30.492,151.757 30.667,151.583 30.667 C 151.446 30.667,151.333 30.812,151.333 30.990 C 151.333 31.168,151.258 31.360,151.167 31.417 C 151.075 31.473,151.000 31.778,151.000 32.093 C 151.000 32.409,150.925 32.667,150.833 32.667 C 150.742 32.667,150.667 32.809,150.667 32.982 C 150.667 33.156,150.554 33.341,150.417 33.394 C 150.260 33.454,150.167 33.709,150.167 34.078 C 150.167 34.402,150.092 34.667,150.000 34.667 C 149.908 34.667,149.833 34.809,149.833 34.982 C 149.833 35.156,149.721 35.341,149.583 35.394 C 149.426 35.454,149.333 35.709,149.333 36.078 C 149.333 36.402,149.258 36.667,149.167 36.667 C 149.075 36.667,149.000 36.817,149.000 37.000 C 149.000 37.183,148.925 37.333,148.833 37.333 C 148.742 37.333,148.667 37.633,148.667 38.000 C 148.667 38.481,148.597 38.667,148.417 38.667 C 148.279 38.667,148.167 38.812,148.167 38.990 C 148.167 39.168,148.092 39.360,148.000 39.417 C 147.908 39.473,147.833 39.778,147.833 40.093 C 147.833 40.492,147.757 40.667,147.583 40.667 C 147.446 40.667,147.333 40.812,147.333 40.990 C 147.333 41.168,147.258 41.360,147.167 41.417 C 147.075 41.473,147.000 41.778,147.000 42.093 C 147.000 42.409,146.925 42.667,146.833 42.667 C 146.742 42.667,146.667 42.809,146.667 42.982 C 146.667 43.156,146.554 43.341,146.417 43.394 C 146.260 43.454,146.167 43.709,146.167 44.078 C 146.167 44.402,146.092 44.667,146.000 44.667 C 145.908 44.667,145.833 44.809,145.833 44.982 C 145.833 45.156,145.721 45.341,145.583 45.394 C 145.426 45.454,145.333 45.709,145.333 46.078 C 145.333 46.402,145.258 46.667,145.167 46.667 C 145.075 46.667,145.000 46.817,145.000 47.000 C 145.000 47.183,144.925 47.333,144.833 47.333 C 144.742 47.333,144.667 47.446,144.667 47.583 C 144.667 47.721,144.554 47.833,144.417 47.833 C 144.273 47.833,144.167 47.984,144.167 48.189 C 144.167 48.514,143.421 49.333,143.125 49.333 C 143.056 49.333,143.000 49.414,143.000 49.512 C 143.000 49.806,142.548 50.167,142.179 50.167 C 141.983 50.167,141.833 50.275,141.833 50.417 C 141.833 50.606,141.630 50.667,141.000 50.667 C 140.542 50.667,140.167 50.742,140.167 50.833 C 140.167 50.925,139.829 51.000,139.417 51.000 L 138.667 51.000 138.667 51.929 C 138.667 53.426,138.168 53.333,146.238 53.333 C 153.089 53.333,153.333 53.322,153.333 53.018 C 153.333 52.844,153.446 52.659,153.583 52.606 C 153.721 52.554,153.833 52.358,153.833 52.172 C 153.833 51.982,153.724 51.833,153.583 51.833 C 153.428 51.833,153.333 51.676,153.333 51.417 C 153.333 51.019,153.289 51.000,152.333 51.000 C 151.778 51.000,151.333 50.926,151.333 50.833 C 151.333 50.742,151.004 50.667,150.601 50.667 C 150.104 50.667,149.838 50.586,149.773 50.417 C 149.720 50.279,149.557 50.167,149.410 50.167 C 148.903 50.167,148.667 49.721,148.667 48.762 C 148.667 48.251,148.742 47.833,148.833 47.833 C 148.925 47.833,149.000 47.571,149.000 47.250 C 149.000 46.929,149.075 46.667,149.167 46.667 C 149.258 46.667,149.333 46.487,149.333 46.268 C 149.333 46.048,149.446 45.826,149.583 45.773 C 149.728 45.718,149.833 45.468,149.833 45.182 C 149.833 44.909,149.908 44.640,150.000 44.583 C 150.092 44.527,150.167 44.222,150.167 43.907 C 150.167 43.508,150.243 43.333,150.417 43.333 C 150.572 43.333,150.667 43.176,150.667 42.917 C 150.667 42.688,150.742 42.500,150.833 42.500 C 150.925 42.500,151.000 42.237,151.000 41.917 C 151.000 41.596,151.075 41.333,151.167 41.333 C 151.258 41.333,151.333 41.071,151.333 40.750 C 151.333 40.343,151.409 40.167,151.583 40.167 C 151.739 40.167,151.833 40.009,151.833 39.750 C 151.833 39.521,151.908 39.333,152.000 39.333 C 152.092 39.333,152.167 39.183,152.167 39.000 C 152.167 38.671,152.278 38.667,160.417 38.667 C 168.556 38.667,168.667 38.671,168.667 39.000 C 168.667 39.183,168.742 39.333,168.833 39.333 C 168.925 39.333,169.000 39.596,169.000 39.917 C 169.000 40.237,169.075 40.500,169.167 40.500 C 169.258 40.500,169.333 40.688,169.333 40.917 C 169.333 41.176,169.428 41.333,169.583 41.333 C 169.758 41.333,169.833 41.509,169.833 41.917 C 169.833 42.237,169.908 42.500,170.000 42.500 C 170.092 42.500,170.167 42.688,170.167 42.917 C 170.167 43.176,170.261 43.333,170.417 43.333 C 170.572 43.333,170.667 43.491,170.667 43.750 C 170.667 43.979,170.742 44.167,170.833 44.167 C 170.925 44.167,171.000 44.429,171.000 44.750 C 171.000 45.071,171.075 45.333,171.167 45.333 C 171.258 45.333,171.333 45.521,171.333 45.750 C 171.333 46.009,171.428 46.167,171.583 46.167 C 171.758 46.167,171.833 46.343,171.833 46.750 C 171.833 47.071,171.908 47.333,172.000 47.333 C 172.095 47.333,172.167 47.837,172.167 48.512 C 172.167 49.727,171.969 50.167,171.423 50.167 C 171.276 50.167,171.113 50.279,171.060 50.417 C 170.993 50.592,170.720 50.667,170.149 50.667 C 169.700 50.667,169.333 50.742,169.333 50.833 C 169.333 50.925,168.915 51.000,168.405 51.000 C 167.279 51.000,167.000 51.231,167.000 52.167 C 167.000 53.394,166.565 53.333,175.405 53.333 C 183.073 53.333,183.333 53.323,183.333 53.018 C 183.333 52.844,183.446 52.659,183.583 52.606 C 183.721 52.554,183.833 52.358,183.833 52.172 C 183.833 51.982,183.724 51.833,183.583 51.833 C 183.428 51.833,183.333 51.676,183.333 51.417 C 183.333 51.052,183.261 51.000,182.750 51.000 C 182.429 51.000,182.167 50.925,182.167 50.833 C 182.167 50.742,181.904 50.667,181.583 50.667 C 181.176 50.667,181.000 50.591,181.000 50.417 C 181.000 50.261,180.843 50.167,180.583 50.167 C 180.354 50.167,180.167 50.092,180.167 50.000 C 180.167 49.908,179.979 49.833,179.750 49.833 C 179.521 49.833,179.333 49.755,179.333 49.659 C 179.333 49.433,178.567 48.667,178.341 48.667 C 178.245 48.667,178.167 48.554,178.167 48.417 C 178.167 48.279,178.092 48.167,178.000 48.167 C 177.908 48.167,177.833 48.014,177.833 47.828 C 177.833 47.642,177.721 47.446,177.583 47.394 C 177.446 47.341,177.333 47.156,177.333 46.982 C 177.333 46.809,177.258 46.667,177.167 46.667 C 177.075 46.667,177.000 46.404,177.000 46.083 C 177.000 45.762,176.925 45.500,176.833 45.500 C 176.742 45.500,176.667 45.313,176.667 45.083 C 176.667 44.824,176.572 44.667,176.417 44.667 C 176.242 44.667,176.167 44.491,176.167 44.083 C 176.167 43.762,176.092 43.500,176.000 43.500 C 175.908 43.500,175.833 43.313,175.833 43.083 C 175.833 42.824,175.739 42.667,175.583 42.667 C 175.428 42.667,175.333 42.509,175.333 42.250 C 175.333 42.021,175.258 41.833,175.167 41.833 C 175.075 41.833,175.000 41.571,175.000 41.250 C 175.000 40.929,174.925 40.667,174.833 40.667 C 174.742 40.667,174.667 40.479,174.667 40.250 C 174.667 39.991,174.572 39.833,174.417 39.833 C 174.242 39.833,174.167 39.657,174.167 39.250 C 174.167 38.929,174.092 38.667,174.000 38.667 C 173.908 38.667,173.833 38.479,173.833 38.250 C 173.833 37.991,173.739 37.833,173.583 37.833 C 173.409 37.833,173.333 37.657,173.333 37.250 C 173.333 36.929,173.258 36.667,173.167 36.667 C 173.075 36.667,173.000 36.479,173.000 36.250 C 173.000 36.021,172.925 35.833,172.833 35.833 C 172.742 35.833,172.667 35.571,172.667 35.250 C 172.667 34.843,172.591 34.667,172.417 34.667 C 172.261 34.667,172.167 34.509,172.167 34.250 C 172.167 34.021,172.092 33.833,172.000 33.833 C 171.908 33.833,171.833 33.571,171.833 33.250 C 171.833 32.843,171.758 32.667,171.583 32.667 C 171.428 32.667,171.333 32.509,171.333 32.250 C 171.333 32.021,171.258 31.833,171.167 31.833 C 171.075 31.833,171.000 31.571,171.000 31.250 C 171.000 30.929,170.925 30.667,170.833 30.667 C 170.742 30.667,170.667 30.479,170.667 30.250 C 170.667 29.991,170.572 29.833,170.417 29.833 C 170.242 29.833,170.167 29.657,170.167 29.250 C 170.167 28.929,170.092 28.667,170.000 28.667 C 169.908 28.667,169.833 28.479,169.833 28.250 C 169.833 27.991,169.739 27.833,169.583 27.833 C 169.409 27.833,169.333 27.657,169.333 27.250 C 169.333 26.929,169.258 26.667,169.167 26.667 C 169.075 26.667,169.000 26.479,169.000 26.250 C 169.000 26.021,168.925 25.833,168.833 25.833 C 168.742 25.833,168.667 25.606,168.667 25.328 C 168.667 25.033,168.563 24.783,168.417 24.727 C 168.279 24.674,168.167 24.452,168.167 24.232 C 168.167 24.013,168.092 23.833,168.000 23.833 C 167.908 23.833,167.833 23.646,167.833 23.417 C 167.833 23.157,167.739 23.000,167.583 23.000 C 167.409 23.000,167.333 22.824,167.333 22.417 C 167.333 22.096,167.258 21.833,167.167 21.833 C 167.075 21.833,167.000 21.646,167.000 21.417 C 167.000 21.188,166.925 21.000,166.833 21.000 C 166.742 21.000,166.667 20.773,166.667 20.495 C 166.667 20.199,166.563 19.950,166.417 19.894 C 166.279 19.841,166.167 19.618,166.167 19.399 C 166.167 19.179,166.092 19.000,166.000 19.000 C 165.908 19.000,165.833 18.737,165.833 18.417 C 165.833 18.009,165.758 17.833,165.583 17.833 C 165.428 17.833,165.333 17.676,165.333 17.417 C 165.333 17.188,165.258 17.000,165.167 17.000 C 165.075 17.000,165.000 16.737,165.000 16.417 C 165.000 16.096,164.925 15.833,164.833 15.833 C 164.742 15.833,164.667 15.646,164.667 15.417 C 164.667 15.157,164.572 15.000,164.417 15.000 C 164.242 15.000,164.167 14.824,164.167 14.417 C 164.167 14.096,164.092 13.833,164.000 13.833 C 163.908 13.833,163.833 13.646,163.833 13.417 C 163.833 13.157,163.739 13.000,163.583 13.000 C 163.409 13.000,163.333 12.824,163.333 12.417 C 163.333 12.096,163.258 11.833,163.167 11.833 C 163.075 11.833,163.000 11.646,163.000 11.417 C 163.000 11.188,162.925 11.000,162.833 11.000 C 162.742 11.000,162.667 10.856,162.667 10.680 C 162.667 9.911,162.528 9.833,161.149 9.833 C 159.857 9.833,159.833 9.841,159.833 10.250 M160.667 18.583 C 160.667 18.813,160.742 19.000,160.833 19.000 C 160.925 19.000,161.000 19.262,161.000 19.583 C 161.000 19.904,161.075 20.167,161.167 20.167 C 161.258 20.167,161.333 20.354,161.333 20.583 C 161.333 20.843,161.428 21.000,161.583 21.000 C 161.758 21.000,161.833 21.176,161.833 21.583 C 161.833 21.904,161.908 22.167,162.000 22.167 C 162.092 22.167,162.167 22.354,162.167 22.583 C 162.167 22.843,162.261 23.000,162.417 23.000 C 162.591 23.000,162.667 23.176,162.667 23.583 C 162.667 23.904,162.742 24.167,162.833 24.167 C 162.925 24.167,163.000 24.354,163.000 24.583 C 163.000 24.813,163.075 25.000,163.167 25.000 C 163.258 25.000,163.333 25.227,163.333 25.505 C 163.333 25.801,163.437 26.050,163.583 26.106 C 163.721 26.159,163.833 26.382,163.833 26.601 C 163.833 26.821,163.908 27.000,164.000 27.000 C 164.092 27.000,164.167 27.262,164.167 27.583 C 164.167 27.991,164.242 28.167,164.417 28.167 C 164.591 28.167,164.667 28.343,164.667 28.750 C 164.667 29.071,164.742 29.333,164.833 29.333 C 164.925 29.333,165.000 29.521,165.000 29.750 C 165.000 29.979,165.075 30.167,165.167 30.167 C 165.258 30.167,165.333 30.394,165.333 30.672 C 165.333 30.967,165.437 31.217,165.583 31.273 C 165.721 31.326,165.833 31.548,165.833 31.768 C 165.833 31.987,165.908 32.167,166.000 32.167 C 166.092 32.167,166.167 32.429,166.167 32.750 C 166.167 33.157,166.242 33.333,166.417 33.333 C 166.572 33.333,166.667 33.491,166.667 33.750 C 166.667 33.979,166.742 34.167,166.833 34.167 C 166.925 34.167,167.000 34.429,167.000 34.750 L 167.000 35.333 160.167 35.333 C 155.722 35.333,153.333 35.275,153.333 35.167 C 153.333 35.075,153.446 35.000,153.583 35.000 C 153.739 35.000,153.833 34.843,153.833 34.583 C 153.833 34.354,153.908 34.167,154.000 34.167 C 154.092 34.167,154.167 33.904,154.167 33.583 C 154.167 33.176,154.242 33.000,154.417 33.000 C 154.572 33.000,154.667 32.843,154.667 32.583 C 154.667 32.354,154.742 32.167,154.833 32.167 C 154.925 32.167,155.000 31.904,155.000 31.583 C 155.000 31.262,155.075 31.000,155.167 31.000 C 155.258 31.000,155.333 30.813,155.333 30.583 C 155.333 30.324,155.428 30.167,155.583 30.167 C 155.758 30.167,155.833 29.991,155.833 29.583 C 155.833 29.262,155.908 29.000,156.000 29.000 C 156.092 29.000,156.167 28.845,156.167 28.655 C 156.167 28.465,156.279 28.197,156.417 28.060 C 156.554 27.922,156.667 27.627,156.667 27.405 C 156.667 27.182,156.742 27.000,156.833 27.000 C 156.925 27.000,157.000 26.813,157.000 26.583 C 157.000 26.354,157.075 26.167,157.167 26.167 C 157.258 26.167,157.333 25.904,157.333 25.583 C 157.333 25.176,157.409 25.000,157.583 25.000 C 157.758 25.000,157.833 24.824,157.833 24.417 C 157.833 24.096,157.908 23.833,158.000 23.833 C 158.092 23.833,158.167 23.654,158.167 23.434 C 158.167 23.215,158.279 22.992,158.417 22.940 C 158.563 22.884,158.667 22.634,158.667 22.339 C 158.667 22.061,158.742 21.833,158.833 21.833 C 158.925 21.833,159.000 21.646,159.000 21.417 C 159.000 21.188,159.075 21.000,159.167 21.000 C 159.258 21.000,159.333 20.737,159.333 20.417 C 159.333 20.009,159.409 19.833,159.583 19.833 C 159.739 19.833,159.833 19.676,159.833 19.417 C 159.833 19.188,159.908 19.000,160.000 19.000 C 160.092 19.000,160.167 18.813,160.167 18.583 C 160.167 18.324,160.261 18.167,160.417 18.167 C 160.572 18.167,160.667 18.324,160.667 18.583 M202.667 34.000 C 202.667 34.092,202.479 34.167,202.250 34.167 C 201.991 34.167,201.833 34.261,201.833 34.417 C 201.833 34.554,201.721 34.667,201.583 34.667 C 201.382 34.667,201.333 34.926,201.333 36.000 C 201.333 37.074,201.382 37.333,201.583 37.333 C 201.721 37.333,201.833 37.414,201.833 37.512 C 201.833 38.137,202.132 38.167,208.417 38.167 C 214.701 38.167,215.000 38.137,215.000 37.512 C 215.000 37.414,215.075 37.333,215.167 37.333 C 215.264 37.333,215.333 36.778,215.333 36.000 C 215.333 35.222,215.264 34.667,215.167 34.667 C 215.075 34.667,215.000 34.554,215.000 34.417 C 215.000 34.279,214.887 34.167,214.750 34.167 C 214.612 34.167,214.500 34.092,214.500 34.000 C 214.500 33.892,212.417 33.833,208.583 33.833 C 204.750 33.833,202.667 33.892,202.667 34.000 M237.792 58.624 C 238.548 58.655,239.785 58.655,240.542 58.624 C 241.298 58.593,240.679 58.568,239.167 58.568 C 237.654 58.568,237.035 58.593,237.792 58.624 M138.727 67.583 C 138.674 67.721,138.559 67.833,138.470 67.833 C 137.896 67.833,137.833 68.265,137.833 72.238 C 137.833 74.746,137.894 76.167,138.000 76.167 C 138.092 76.167,138.167 76.279,138.167 76.417 C 138.167 76.554,138.279 76.667,138.417 76.667 C 138.554 76.667,138.667 76.742,138.667 76.833 C 138.667 77.097,140.228 77.027,140.808 76.738 L 141.333 76.476 141.333 72.154 C 141.333 68.026,141.319 67.833,141.018 67.833 C 140.844 67.833,140.659 67.721,140.606 67.583 C 140.539 67.407,140.263 67.333,139.667 67.333 C 139.070 67.333,138.795 67.407,138.727 67.583 M161.394 67.583 C 161.341 67.721,161.156 67.833,160.982 67.833 C 160.681 67.833,160.667 68.026,160.667 72.154 L 160.667 76.476 161.192 76.738 C 161.772 77.027,163.333 77.097,163.333 76.833 C 163.333 76.742,163.446 76.667,163.583 76.667 C 163.721 76.667,163.833 76.554,163.833 76.417 C 163.833 76.279,163.908 76.167,164.000 76.167 C 164.106 76.167,164.167 74.746,164.167 72.238 C 164.167 68.265,164.104 67.833,163.530 67.833 C 163.441 67.833,163.326 67.721,163.273 67.583 C 163.205 67.407,162.930 67.333,162.333 67.333 C 161.737 67.333,161.461 67.407,161.394 67.583 M216.771 67.887 L 216.167 68.440 216.167 72.304 C 216.167 75.626,216.202 76.167,216.417 76.167 C 216.554 76.167,216.667 76.247,216.667 76.345 C 216.667 76.752,217.171 77.000,218.000 77.000 C 218.829 77.000,219.333 76.752,219.333 76.345 C 219.333 76.247,219.446 76.167,219.583 76.167 C 219.788 76.167,219.833 75.880,219.833 74.583 L 219.833 73.000 219.250 73.000 C 218.929 73.000,218.667 73.075,218.667 73.167 C 218.667 73.258,218.554 73.333,218.417 73.333 C 218.228 73.333,218.167 73.537,218.167 74.167 C 218.167 74.625,218.092 75.000,218.000 75.000 C 217.895 75.000,217.833 73.944,217.833 72.167 C 217.833 70.389,217.895 69.333,218.000 69.333 C 218.093 69.333,218.167 69.778,218.167 70.333 L 218.167 71.333 218.750 71.333 C 219.071 71.333,219.333 71.258,219.333 71.167 C 219.333 71.075,219.446 71.000,219.583 71.000 C 219.786 71.000,219.833 70.731,219.833 69.583 C 219.833 68.554,219.776 68.167,219.623 68.167 C 219.507 68.167,219.272 67.979,219.100 67.750 C 218.612 67.101,217.562 67.162,216.771 67.887 M273.394 67.583 C 273.341 67.721,273.156 67.833,272.982 67.833 C 272.693 67.833,272.667 67.977,272.667 69.583 C 272.667 70.639,272.733 71.333,272.833 71.333 C 272.925 71.333,273.000 71.521,273.000 71.750 C 273.000 71.979,273.075 72.167,273.167 72.167 C 273.258 72.167,273.333 72.354,273.333 72.583 C 273.333 72.843,273.428 73.000,273.583 73.000 C 273.721 73.000,273.833 73.075,273.833 73.167 C 273.833 73.258,273.700 73.333,273.537 73.333 C 272.922 73.333,272.667 73.921,272.667 75.335 C 272.667 76.556,272.694 76.667,273.000 76.667 C 273.183 76.667,273.333 76.742,273.333 76.833 C 273.333 76.925,273.676 77.000,274.095 77.000 C 274.829 77.000,275.333 76.734,275.333 76.345 C 275.333 76.247,275.446 76.167,275.583 76.167 C 275.785 76.167,275.833 75.907,275.833 74.828 C 275.833 73.792,275.777 73.468,275.583 73.394 C 275.429 73.334,275.333 73.081,275.333 72.732 C 275.333 72.421,275.258 72.167,275.167 72.167 C 275.075 72.167,275.000 72.017,275.000 71.833 C 275.000 71.650,274.930 71.500,274.845 71.500 C 274.760 71.500,274.666 71.331,274.637 71.125 C 274.573 70.678,275.034 70.167,275.500 70.167 C 275.796 70.167,275.833 70.056,275.833 69.167 C 275.833 68.472,275.769 68.167,275.623 68.167 C 275.507 68.167,275.272 67.979,275.100 67.750 C 274.731 67.259,273.562 67.145,273.394 67.583 M127.000 68.740 C 127.000 69.239,127.075 69.693,127.167 69.750 C 127.258 69.807,127.333 70.186,127.333 70.593 C 127.333 71.140,127.399 71.333,127.583 71.333 C 127.795 71.333,127.833 71.741,127.833 74.000 L 127.833 76.667 128.583 76.667 L 129.333 76.667 129.333 74.833 C 129.333 73.315,129.376 73.000,129.583 73.000 C 129.778 73.000,129.833 72.778,129.833 72.000 C 129.833 71.444,129.907 71.000,130.000 71.000 C 130.093 71.000,130.167 70.556,130.167 70.000 C 130.167 69.222,130.222 69.000,130.417 69.000 C 130.591 69.000,130.667 68.824,130.667 68.417 L 130.667 67.833 129.833 67.833 L 129.000 67.833 129.000 68.417 C 129.000 68.737,128.925 69.000,128.833 69.000 C 128.742 69.000,128.667 68.737,128.667 68.417 L 128.667 67.833 127.833 67.833 L 127.000 67.833 127.000 68.740 M149.372 72.208 L 149.417 76.583 150.208 76.634 C 150.959 76.682,151.000 76.663,151.000 76.259 C 151.000 75.734,151.290 75.693,151.363 76.208 C 151.409 76.528,151.533 76.591,152.208 76.634 L 153.000 76.685 153.000 75.842 C 153.000 75.379,152.925 75.000,152.833 75.000 C 152.742 75.000,152.667 74.773,152.667 74.495 C 152.667 74.199,152.563 73.950,152.417 73.894 C 152.262 73.834,152.167 73.581,152.167 73.232 C 152.167 72.921,152.092 72.667,152.000 72.667 C 151.908 72.667,151.833 72.292,151.833 71.833 C 151.833 71.375,151.908 71.000,152.000 71.000 C 152.092 71.000,152.167 70.845,152.167 70.655 C 152.167 70.465,152.279 70.197,152.417 70.060 C 152.554 69.922,152.667 69.627,152.667 69.405 C 152.667 69.182,152.742 69.000,152.833 69.000 C 152.925 69.000,153.000 68.737,153.000 68.417 L 153.000 67.833 152.181 67.833 C 151.688 67.833,151.322 67.916,151.264 68.042 C 151.186 68.208,151.147 68.208,151.069 68.042 C 151.011 67.916,150.645 67.833,150.150 67.833 L 149.328 67.833 149.372 72.208 M171.833 72.250 L 171.833 76.667 172.583 76.667 L 173.333 76.667 173.333 74.833 C 173.333 73.315,173.376 73.000,173.583 73.000 C 173.790 73.000,173.833 73.315,173.833 74.833 L 173.833 76.667 174.583 76.667 L 175.333 76.667 175.333 72.250 L 175.333 67.833 174.583 67.833 L 173.833 67.833 173.833 69.583 C 173.833 71.028,173.790 71.333,173.583 71.333 C 173.377 71.333,173.333 71.028,173.333 69.583 L 173.333 67.833 172.583 67.833 L 171.833 67.833 171.833 72.250 M183.833 68.833 C 183.833 69.611,183.778 69.833,183.583 69.833 C 183.381 69.833,183.333 70.102,183.333 71.250 C 183.333 72.083,183.265 72.667,183.167 72.667 C 183.071 72.667,183.000 73.167,183.000 73.833 C 183.000 74.500,182.929 75.000,182.833 75.000 C 182.742 75.000,182.667 75.375,182.667 75.833 L 182.667 76.667 183.417 76.667 C 184.097 76.667,184.167 76.629,184.167 76.268 C 184.167 76.048,184.279 75.826,184.417 75.773 C 184.575 75.712,184.667 75.457,184.667 75.079 C 184.667 74.722,184.734 74.522,184.833 74.583 C 184.925 74.640,185.000 75.136,185.000 75.686 L 185.000 76.685 185.792 76.634 L 186.583 76.583 186.632 75.208 C 186.672 74.060,186.638 73.833,186.423 73.833 C 186.212 73.833,186.167 73.581,186.167 72.417 C 186.167 71.583,186.098 71.000,186.000 71.000 C 185.905 71.000,185.833 70.500,185.833 69.833 C 185.833 68.907,185.782 68.667,185.583 68.667 C 185.428 68.667,185.333 68.509,185.333 68.250 C 185.333 67.867,185.272 67.833,184.583 67.833 L 183.833 67.833 183.833 68.833 M193.372 72.208 L 193.417 76.583 194.208 76.634 L 195.000 76.685 195.000 75.842 C 195.000 75.379,195.075 75.000,195.167 75.000 C 195.258 75.000,195.333 75.075,195.333 75.167 C 195.333 75.258,195.633 75.333,196.000 75.333 L 196.667 75.333 196.667 76.000 L 196.667 76.667 197.417 76.667 L 198.167 76.667 198.167 72.250 L 198.167 67.833 197.167 67.833 L 196.167 67.833 196.167 69.000 C 196.167 69.667,196.095 70.167,196.000 70.167 C 195.908 70.167,195.833 70.092,195.833 70.000 C 195.833 69.908,195.721 69.833,195.583 69.833 C 195.389 69.833,195.333 69.611,195.333 68.833 L 195.333 67.833 194.331 67.833 L 193.328 67.833 193.372 72.208 M206.167 68.417 C 206.167 68.737,206.092 69.000,206.000 69.000 C 205.902 69.000,205.833 69.583,205.833 70.417 C 205.833 71.565,205.786 71.833,205.583 71.833 C 205.381 71.833,205.333 72.102,205.333 73.250 C 205.333 74.083,205.265 74.667,205.167 74.667 C 205.074 74.667,205.000 75.114,205.000 75.676 L 205.000 76.685 205.792 76.634 L 206.583 76.583 206.634 75.792 C 206.676 75.144,206.742 75.000,207.000 75.000 C 207.258 75.000,207.324 75.144,207.366 75.792 L 207.417 76.583 208.208 76.634 L 209.000 76.685 209.000 75.676 C 209.000 75.114,208.926 74.667,208.833 74.667 C 208.736 74.667,208.667 74.109,208.667 73.328 C 208.667 72.292,208.610 71.968,208.417 71.894 C 208.222 71.819,208.167 71.488,208.167 70.399 C 208.167 69.577,208.098 69.000,208.000 69.000 C 207.908 69.000,207.833 68.737,207.833 68.417 L 207.833 67.833 207.000 67.833 L 206.167 67.833 206.167 68.417 M228.167 68.833 C 228.167 69.389,228.093 69.833,228.000 69.833 C 227.902 69.833,227.833 70.417,227.833 71.250 C 227.833 72.398,227.786 72.667,227.583 72.667 C 227.385 72.667,227.333 72.907,227.333 73.833 C 227.333 74.500,227.262 75.000,227.167 75.000 C 227.075 75.000,227.000 75.379,227.000 75.842 L 227.000 76.685 227.792 76.634 C 228.467 76.591,228.591 76.528,228.637 76.208 C 228.666 76.002,228.760 75.833,228.845 75.833 C 228.930 75.833,229.000 75.533,229.000 75.167 C 229.000 74.086,229.313 74.405,229.367 75.542 L 229.417 76.583 230.208 76.634 L 231.000 76.685 231.000 75.259 C 231.000 74.420,230.931 73.833,230.833 73.833 C 230.737 73.833,230.667 73.310,230.667 72.595 C 230.667 71.717,230.594 71.284,230.417 71.107 C 230.245 70.936,230.167 70.513,230.167 69.762 C 230.167 69.143,230.094 68.667,230.000 68.667 C 229.908 68.667,229.833 68.479,229.833 68.250 C 229.833 67.861,229.778 67.833,229.000 67.833 L 228.167 67.833 228.167 68.833 M237.833 72.250 L 237.833 76.667 238.583 76.667 L 239.333 76.667 239.333 75.833 C 239.333 75.204,239.394 75.000,239.583 75.000 C 239.721 75.000,239.833 75.075,239.833 75.167 C 239.833 75.258,240.096 75.333,240.417 75.333 C 240.987 75.333,241.000 75.348,241.000 76.009 L 241.000 76.685 241.792 76.634 L 242.583 76.583 242.628 72.208 L 242.672 67.833 241.669 67.833 L 240.667 67.833 240.667 69.000 C 240.667 70.188,240.535 70.393,240.071 69.929 C 239.922 69.779,239.833 69.344,239.833 68.762 L 239.833 67.833 238.833 67.833 L 237.833 67.833 237.833 72.250 M250.167 72.250 L 250.167 76.667 251.000 76.667 L 251.833 76.667 251.833 74.833 L 251.833 73.000 252.357 73.000 C 253.200 73.000,253.322 72.670,253.328 70.363 C 253.335 67.826,253.340 67.833,251.512 67.833 L 250.167 67.833 250.167 72.250 M261.000 71.915 C 261.000 76.863,260.923 76.667,262.870 76.667 C 263.912 76.667,264.167 76.617,264.167 76.417 C 264.167 76.279,264.279 76.167,264.417 76.167 C 264.632 76.167,264.667 75.593,264.667 72.000 L 264.667 67.833 263.833 67.833 L 263.000 67.833 263.000 71.417 C 263.000 73.694,262.939 75.000,262.833 75.000 C 262.727 75.000,262.667 73.694,262.667 71.417 L 262.667 67.833 261.833 67.833 L 261.000 67.833 261.000 71.915 M139.833 72.245 C 139.833 74.764,139.800 75.143,139.583 75.060 C 139.375 74.980,139.333 74.498,139.333 72.149 C 139.333 69.757,139.371 69.333,139.583 69.333 C 139.796 69.333,139.833 69.768,139.833 72.245 M162.667 72.149 C 162.667 74.498,162.625 74.980,162.417 75.060 C 162.200 75.143,162.167 74.764,162.167 72.245 C 162.167 69.768,162.204 69.333,162.417 69.333 C 162.629 69.333,162.667 69.757,162.667 72.149 " stroke="none" fill="#1c1c5c" fill-rule="evenodd"></path><path id="path3" d="" stroke="none" fill="#446444" fill-rule="evenodd"></path><path id="path4" d="" stroke="none" fill="#481c44" fill-rule="evenodd"></path></g></svg>