<?xml version="1.0" encoding="UTF-8"?>
<svg xmlns="http://www.w3.org/2000/svg" xmlns:xlink="http://www.w3.org/1999/xlink" width="200pt" height="42pt" viewBox="0 0 200 42" version="1.1">
<g id="surface1">
<path style=" stroke:none;fill-rule:evenodd;fill:rgb(76.862745%,61.176471%,17.254902%);fill-opacity:1;" d="M 164.375 28.417969 C 164.34375 28.46875 163.332031 28.5 161.613281 28.5 C 159.589844 28.5 158.921875 28.523438 158.964844 28.597656 C 159.003906 28.660156 158.988281 28.667969 158.921875 28.628906 C 158.777344 28.539062 139.839844 28.507812 139.785156 28.59375 C 139.722656 28.691406 137.5 28.6875 137.5 28.589844 C 137.5 28.546875 136.820312 28.507812 135.910156 28.503906 C 134.847656 28.496094 134.335938 28.523438 134.371094 28.578125 C 134.402344 28.625 134.375 28.648438 134.316406 28.628906 C 134.257812 28.609375 132.4375 28.570312 130.269531 28.542969 C 126.65625 28.496094 126.011719 28.523438 126.4375 28.695312 C 126.496094 28.71875 126.457031 28.738281 126.355469 28.742188 C 126.238281 28.746094 126.167969 28.699219 126.167969 28.625 C 126.167969 28.445312 123.738281 28.4375 123.589844 28.621094 C 123.503906 28.722656 122.535156 28.734375 116.746094 28.699219 C 113.035156 28.679688 110 28.691406 110 28.726562 C 110 28.761719 108.851562 28.757812 107.445312 28.71875 C 105.503906 28.660156 104.824219 28.667969 104.613281 28.742188 C 104.292969 28.859375 101.808594 28.855469 101.882812 28.738281 C 101.90625 28.699219 101.289062 28.667969 100.511719 28.667969 C 99.605469 28.667969 99.074219 28.699219 99.039062 28.753906 C 99.003906 28.8125 98.515625 28.835938 97.660156 28.828125 C 96.933594 28.820312 96.355469 28.777344 96.382812 28.738281 C 96.429688 28.660156 95.066406 28.660156 92.597656 28.738281 C 91.710938 28.769531 90.964844 28.761719 90.945312 28.730469 C 90.898438 28.652344 89.929688 28.648438 87.476562 28.722656 C 86.4375 28.75 85.609375 28.808594 85.632812 28.847656 C 85.683594 28.929688 85.703125 28.925781 84.25 28.917969 C 83.632812 28.910156 83.097656 28.882812 83.066406 28.851562 C 83.035156 28.816406 83.53125 28.804688 84.171875 28.816406 C 84.945312 28.832031 85.332031 28.8125 85.332031 28.753906 C 85.332031 28.699219 84.949219 28.667969 84.230469 28.667969 C 83.027344 28.667969 82.75 28.710938 82.75 28.882812 C 82.75 28.976562 82.089844 28.992188 78.855469 28.96875 C 76.710938 28.953125 75.503906 28.964844 76.167969 28.992188 L 77.375 29.046875 L 76.152344 29.066406 C 75.394531 29.078125 74.90625 29.050781 74.875 29 C 74.804688 28.886719 66.441406 28.890625 66.371094 29.003906 C 66.34375 29.050781 65.800781 29.074219 65.097656 29.066406 L 63.875 29.046875 L 65.125 29.003906 C 65.8125 28.976562 61.492188 28.949219 55.519531 28.941406 C 48.160156 28.929688 44.667969 28.949219 44.667969 29.007812 C 44.667969 29.054688 44.710938 29.066406 44.761719 29.035156 C 44.824219 28.996094 44.835938 29.011719 44.800781 29.070312 C 44.714844 29.207031 44.582031 29.1875 44.582031 29.039062 C 44.582031 28.890625 42.125 28.863281 41.949219 29.007812 C 41.898438 29.050781 40.09375 29.085938 37.757812 29.085938 C 35.503906 29.085938 33.675781 29.113281 33.695312 29.148438 C 33.71875 29.179688 33.109375 29.183594 32.347656 29.15625 C 29.128906 29.03125 25.71875 29.070312 25.84375 29.230469 C 25.933594 29.347656 25.921875 29.34375 25.769531 29.214844 C 25.667969 29.128906 25.582031 29.089844 25.582031 29.132812 C 25.582031 29.175781 24.84375 29.183594 23.769531 29.144531 C 20.941406 29.046875 20.453125 29.074219 20.480469 29.332031 C 20.492188 29.449219 20.472656 29.5 20.4375 29.449219 C 20.367188 29.34375 20.132812 29.414062 20.109375 29.550781 C 20.089844 29.65625 33.664062 29.644531 33.839844 29.539062 C 33.90625 29.496094 33.921875 29.507812 33.882812 29.570312 C 33.839844 29.640625 34.191406 29.667969 35.25 29.667969 C 36.179688 29.667969 36.660156 29.636719 36.625 29.582031 C 36.546875 29.453125 38.960938 29.472656 39.171875 29.605469 C 39.304688 29.6875 39.351562 29.6875 39.40625 29.601562 C 39.457031 29.519531 40.847656 29.496094 46.195312 29.496094 C 52.105469 29.5 52.917969 29.484375 52.917969 29.375 C 52.917969 29.304688 52.953125 29.25 53 29.25 C 53.046875 29.25 53.082031 29.300781 53.082031 29.359375 C 53.082031 29.511719 61.054688 29.535156 61.246094 29.386719 C 61.339844 29.3125 61.351562 29.316406 61.296875 29.40625 C 61.238281 29.5 62.285156 29.515625 67.90625 29.488281 C 72.308594 29.46875 74.574219 29.429688 74.554688 29.375 C 74.511719 29.242188 72.152344 29.21875 72.070312 29.351562 C 72.019531 29.429688 72.003906 29.417969 72 29.3125 C 72 29.179688 72.117188 29.167969 73.332031 29.167969 C 74.652344 29.167969 74.71875 29.179688 74.675781 29.4375 C 74.671875 29.472656 75.886719 29.5 77.375 29.5 C 80.101562 29.5 80.136719 29.496094 80.089844 29.222656 C 80.085938 29.183594 80.117188 29.175781 80.160156 29.203125 C 80.207031 29.234375 80.222656 29.320312 80.195312 29.398438 C 80.160156 29.515625 80.164062 29.519531 80.238281 29.421875 C 80.3125 29.3125 81.722656 29.300781 91.089844 29.324219 C 97.828125 29.339844 101.835938 29.320312 101.804688 29.269531 C 101.777344 29.226562 101.8125 29.121094 101.882812 29.03125 C 102.003906 28.882812 102.007812 28.886719 101.964844 29.089844 L 101.921875 29.304688 L 110.035156 29.320312 C 117.21875 29.335938 118.152344 29.320312 118.195312 29.210938 C 118.238281 29.101562 118.441406 29.085938 119.476562 29.101562 L 120.707031 29.117188 L 119.457031 29.167969 L 118.207031 29.214844 L 119.605469 29.234375 C 120.660156 29.246094 121.015625 29.222656 121.046875 29.144531 C 121.078125 29.0625 124.375 29.046875 137.210938 29.058594 C 147.320312 29.070312 153.332031 29.046875 153.332031 28.996094 C 153.332031 28.949219 152.839844 28.910156 152.1875 28.898438 L 151.042969 28.878906 L 152.164062 28.855469 C 153.152344 28.832031 153.304688 28.84375 153.394531 28.972656 C 153.476562 29.085938 153.523438 29.09375 153.601562 29.015625 C 153.671875 28.945312 154.0625 28.921875 154.914062 28.933594 L 156.125 28.953125 L 154.875 29 C 154.136719 29.027344 155.296875 29.054688 157.726562 29.066406 C 160.332031 29.074219 161.84375 29.050781 161.875 29 C 161.90625 28.949219 162.925781 28.917969 164.550781 28.917969 C 166.804688 28.917969 167.179688 28.898438 167.21875 28.792969 C 167.273438 28.65625 169.695312 28.597656 169.777344 28.730469 C 169.800781 28.761719 169.273438 28.78125 168.605469 28.765625 C 167.9375 28.753906 167.359375 28.773438 167.316406 28.816406 C 167.273438 28.859375 170.539062 28.890625 175.371094 28.890625 L 183.5 28.890625 L 183.484375 28.664062 L 183.464844 28.433594 L 180.796875 28.378906 C 177.179688 28.300781 169.917969 28.351562 169.917969 28.453125 C 169.917969 28.496094 169.871094 28.488281 169.816406 28.433594 C 169.660156 28.277344 167.261719 28.292969 167.199219 28.449219 C 167.175781 28.515625 167.09375 28.554688 167.015625 28.539062 C 166.9375 28.523438 166.355469 28.511719 165.722656 28.507812 C 164.980469 28.503906 164.589844 28.46875 164.625 28.417969 C 164.652344 28.371094 164.621094 28.332031 164.550781 28.332031 C 164.484375 28.332031 164.402344 28.371094 164.375 28.417969 M 177.359375 28.5625 C 177.027344 28.578125 176.464844 28.578125 176.109375 28.5625 C 175.75 28.546875 176.019531 28.535156 176.707031 28.535156 C 177.394531 28.53125 177.6875 28.546875 177.359375 28.5625 M 125.75 28.695312 C 125.957031 28.710938 125.589844 28.726562 124.9375 28.726562 C 124.285156 28.730469 123.765625 28.710938 123.785156 28.679688 C 123.816406 28.628906 124.9375 28.636719 125.75 28.695312 M 180.5 28.667969 C 180.5 28.777344 178.417969 28.777344 178.25 28.667969 C 178.164062 28.613281 178.515625 28.585938 179.3125 28.585938 C 180.050781 28.585938 180.5 28.613281 180.5 28.667969 M 150.105469 28.726562 C 149.773438 28.746094 149.226562 28.746094 148.894531 28.726562 C 148.5625 28.710938 148.835938 28.699219 149.5 28.699219 C 150.164062 28.699219 150.4375 28.710938 150.105469 28.726562 M 178.042969 28.75 C 178.074219 28.804688 177.640625 28.832031 176.796875 28.832031 C 175.988281 28.832031 175.5 28.800781 175.5 28.75 C 175.5 28.699219 175.96875 28.667969 176.746094 28.667969 C 177.484375 28.667969 178.011719 28.699219 178.042969 28.75 M 107.148438 28.855469 C 107.21875 28.9375 106.972656 28.953125 105.953125 28.933594 C 104.304688 28.902344 104.230469 28.75 105.863281 28.75 C 106.722656 28.75 107.085938 28.78125 107.148438 28.855469 M 131.75 28.8125 C 131.75 28.847656 131.382812 28.863281 130.9375 28.851562 C 129.433594 28.8125 129.285156 28.78125 130.519531 28.765625 C 131.195312 28.757812 131.75 28.777344 131.75 28.8125 M 146.707031 28.914062 C 146.019531 28.9375 145.449219 28.941406 145.4375 28.917969 C 145.425781 28.894531 144.84375 28.878906 144.144531 28.878906 L 142.875 28.886719 L 144.125 28.839844 C 144.8125 28.8125 145.957031 28.808594 146.667969 28.832031 L 147.957031 28.871094 L 146.707031 28.914062 M 163.773438 28.8125 C 163.445312 28.828125 162.882812 28.828125 162.523438 28.8125 C 162.167969 28.796875 162.4375 28.785156 163.125 28.785156 C 163.8125 28.78125 164.105469 28.796875 163.773438 28.8125 M 90.394531 28.894531 C 90.039062 28.910156 89.460938 28.910156 89.105469 28.894531 C 88.75 28.878906 89.039062 28.867188 89.75 28.867188 C 90.460938 28.867188 90.75 28.878906 90.394531 28.894531 M 93.542969 28.917969 C 93.511719 28.964844 93 29 92.285156 29 C 91.539062 29 91.082031 28.96875 91.082031 28.917969 C 91.082031 28.863281 91.558594 28.832031 92.339844 28.832031 C 93.152344 28.832031 93.574219 28.863281 93.542969 28.917969 M 101.191406 28.894531 C 100.859375 28.910156 100.296875 28.910156 99.941406 28.894531 C 99.585938 28.878906 99.855469 28.867188 100.542969 28.867188 C 101.230469 28.867188 101.523438 28.878906 101.191406 28.894531 M 122.941406 28.894531 C 122.609375 28.910156 122.046875 28.910156 121.691406 28.894531 C 121.335938 28.878906 121.605469 28.867188 122.292969 28.867188 C 122.980469 28.867188 123.273438 28.878906 122.941406 28.894531 M 139.75 28.917969 C 139.75 28.96875 139.324219 28.992188 138.605469 28.984375 L 137.457031 28.964844 L 138.582031 28.917969 C 139.203125 28.890625 139.71875 28.859375 139.730469 28.851562 C 139.742188 28.839844 139.75 28.871094 139.75 28.917969 M 161.542969 28.917969 C 161.511719 28.964844 161 29 160.285156 29 C 159.539062 29 159.082031 28.96875 159.082031 28.917969 C 159.082031 28.863281 159.558594 28.832031 160.339844 28.832031 C 161.152344 28.832031 161.574219 28.863281 161.542969 28.917969 M 112.5 29.128906 C 112.5 29.230469 112.300781 29.25 111.359375 29.25 C 110.734375 29.25 110.246094 29.226562 110.277344 29.195312 C 110.308594 29.164062 110.296875 29.097656 110.257812 29.050781 C 110.203125 28.984375 110.507812 28.964844 111.339844 28.984375 C 112.285156 29.003906 112.5 29.03125 112.5 29.128906 M 136.523438 28.976562 C 136.195312 28.992188 135.632812 28.996094 135.273438 28.976562 C 134.917969 28.964844 135.1875 28.949219 135.875 28.949219 C 136.5625 28.949219 136.855469 28.960938 136.523438 28.976562 M 44.5 29.082031 C 44.5 29.136719 44.070312 29.167969 43.375 29.167969 C 42.679688 29.167969 42.25 29.136719 42.25 29.082031 C 42.25 29.03125 42.679688 29 43.375 29 C 44.070312 29 44.5 29.03125 44.5 29.082031 M 60.917969 29.082031 C 60.917969 29.136719 60.460938 29.167969 59.714844 29.167969 C 59 29.167969 58.488281 29.132812 58.457031 29.082031 C 58.425781 29.027344 58.847656 29 59.660156 29 C 60.441406 29 60.917969 29.03125 60.917969 29.082031 M 69.144531 29.144531 C 69.171875 29.226562 68.613281 29.246094 66.484375 29.230469 L 63.792969 29.210938 L 66.457031 29.167969 C 68.734375 29.128906 68.941406 29.117188 67.875 29.078125 L 66.625 29.035156 L 67.867188 29.039062 C 68.785156 29.039062 69.121094 29.070312 69.144531 29.144531 M 87.480469 29.0625 C 87.125 29.078125 86.542969 29.078125 86.1875 29.0625 C 85.832031 29.046875 86.121094 29.035156 86.832031 29.035156 C 87.542969 29.035156 87.835938 29.046875 87.480469 29.0625 M 104.5 29.125 C 104.5 29.230469 104.308594 29.25 103.292969 29.25 C 102.273438 29.25 102.082031 29.230469 102.082031 29.125 C 102.082031 29.019531 102.273438 29 103.292969 29 C 104.308594 29 104.5 29.019531 104.5 29.125 M 115.332031 29.125 C 115.332031 29.230469 115.144531 29.25 114.132812 29.25 C 113.144531 29.25 112.925781 29.226562 112.886719 29.125 C 112.84375 29.015625 113.011719 29 114.085938 29 C 115.140625 29 115.332031 29.019531 115.332031 29.125 M 20.140625 29.140625 C 20.046875 29.234375 20.078125 29.332031 20.199219 29.332031 C 20.261719 29.332031 20.335938 29.277344 20.363281 29.207031 C 20.410156 29.082031 20.246094 29.03125 20.140625 29.140625 M 52.191406 29.144531 C 51.859375 29.160156 51.296875 29.160156 50.941406 29.144531 C 50.585938 29.128906 50.855469 29.117188 51.542969 29.117188 C 52.230469 29.117188 52.523438 29.128906 52.191406 29.144531 M 57.5625 29.144531 C 57.253906 29.160156 56.746094 29.160156 56.4375 29.144531 C 56.128906 29.128906 56.382812 29.117188 57 29.117188 C 57.617188 29.117188 57.871094 29.128906 57.5625 29.144531 M 62.464844 29.230469 C 61.734375 29.242188 61.109375 29.226562 61.074219 29.191406 C 61.035156 29.152344 61.632812 29.144531 62.398438 29.167969 L 63.792969 29.207031 L 62.464844 29.230469 M 82.191406 29.144531 C 81.859375 29.160156 81.296875 29.160156 80.941406 29.144531 C 80.585938 29.128906 80.855469 29.117188 81.542969 29.117188 C 82.230469 29.117188 82.523438 29.128906 82.191406 29.144531 M 98.542969 29.140625 C 97.527344 29.199219 96.5 29.203125 96.5 29.144531 C 96.5 29.113281 97.054688 29.089844 97.730469 29.097656 C 98.40625 29.105469 98.769531 29.125 98.542969 29.140625 M 50.113281 29.3125 C 50.132812 29.347656 49.578125 29.375 48.875 29.375 C 48.171875 29.375 47.617188 29.347656 47.636719 29.3125 C 47.660156 29.277344 48.214844 29.25 48.875 29.25 C 49.535156 29.25 50.089844 29.277344 50.113281 29.3125 M 79.359375 29.3125 C 79.027344 29.328125 78.464844 29.328125 78.109375 29.3125 C 77.75 29.296875 78.019531 29.285156 78.707031 29.285156 C 79.394531 29.28125 79.6875 29.296875 79.359375 29.3125 M 25.554688 29.4375 C 25.554688 29.515625 25.265625 29.535156 24.320312 29.515625 C 22.6875 29.484375 22.6875 29.332031 24.320312 29.332031 C 25.253906 29.332031 25.554688 29.359375 25.554688 29.4375 M 65.898438 29.394531 C 65.546875 29.410156 64.945312 29.410156 64.566406 29.394531 C 64.1875 29.378906 64.476562 29.367188 65.207031 29.367188 C 65.941406 29.367188 66.253906 29.378906 65.898438 29.394531 M 31 29.480469 C 31 29.511719 30.441406 29.542969 29.757812 29.542969 C 29.074219 29.542969 28.558594 29.515625 28.613281 29.480469 C 28.738281 29.398438 31 29.398438 31 29.480469 "/>
<path style=" stroke:none;fill-rule:evenodd;fill:rgb(76.862745%,64.313725%,17.254902%);fill-opacity:1;" d="M 164.625 28.417969 C 164.589844 28.46875 164.980469 28.503906 165.722656 28.507812 C 166.355469 28.511719 166.9375 28.523438 167.015625 28.539062 C 167.09375 28.554688 167.175781 28.515625 167.199219 28.449219 C 167.253906 28.308594 167.152344 28.296875 167.015625 28.433594 C 166.9375 28.511719 166.917969 28.511719 166.917969 28.433594 C 166.917969 28.304688 164.703125 28.289062 164.625 28.417969 M 170.605469 28.394531 C 170.960938 28.410156 171.539062 28.410156 171.894531 28.394531 C 172.25 28.378906 171.960938 28.367188 171.25 28.367188 C 170.539062 28.367188 170.25 28.378906 170.605469 28.394531 M 173.273438 28.394531 C 173.632812 28.410156 174.195312 28.410156 174.523438 28.394531 C 174.855469 28.378906 174.5625 28.367188 173.875 28.367188 C 173.1875 28.367188 172.917969 28.378906 173.273438 28.394531 M 181.480469 28.394531 C 181.859375 28.410156 182.476562 28.410156 182.855469 28.394531 C 183.234375 28.378906 182.921875 28.367188 182.167969 28.367188 C 181.410156 28.367188 181.101562 28.378906 181.480469 28.394531 M 126.167969 28.625 C 126.167969 28.695312 126.242188 28.75 126.339844 28.75 C 126.492188 28.75 126.496094 28.734375 126.386719 28.625 C 126.316406 28.554688 126.242188 28.5 126.214844 28.5 C 126.1875 28.5 126.167969 28.554688 126.167969 28.625 M 129.941406 28.5625 C 130.296875 28.578125 130.859375 28.578125 131.191406 28.5625 C 131.523438 28.546875 131.230469 28.53125 130.542969 28.535156 C 129.855469 28.535156 129.585938 28.546875 129.941406 28.5625 M 132.292969 28.554688 C 133.296875 28.617188 134.398438 28.621094 134.363281 28.5625 C 134.339844 28.527344 133.773438 28.507812 133.097656 28.515625 C 132.425781 28.523438 132.0625 28.542969 132.292969 28.554688 M 137.5 28.582031 C 137.5 28.636719 137.929688 28.667969 138.621094 28.667969 C 139.277344 28.667969 139.761719 28.632812 139.792969 28.582031 C 139.824219 28.53125 139.429688 28.5 138.671875 28.5 C 137.945312 28.5 137.5 28.53125 137.5 28.582031 M 140.6875 28.5625 C 141.042969 28.578125 141.625 28.578125 141.980469 28.5625 C 142.335938 28.546875 142.042969 28.535156 141.332031 28.535156 C 140.621094 28.535156 140.332031 28.546875 140.6875 28.5625 M 148.9375 28.5625 C 149.292969 28.578125 149.875 28.578125 150.230469 28.5625 C 150.585938 28.546875 150.292969 28.535156 149.582031 28.535156 C 148.871094 28.535156 148.582031 28.546875 148.9375 28.5625 M 154.269531 28.5625 C 154.625 28.578125 155.207031 28.578125 155.5625 28.5625 C 155.917969 28.546875 155.628906 28.535156 154.917969 28.535156 C 154.207031 28.535156 153.914062 28.546875 154.269531 28.5625 M 156.875 28.554688 C 157.878906 28.617188 158.980469 28.621094 158.945312 28.5625 C 158.925781 28.527344 158.355469 28.507812 157.683594 28.515625 C 157.007812 28.523438 156.644531 28.542969 156.875 28.554688 M 176.109375 28.5625 C 176.464844 28.578125 177.027344 28.578125 177.359375 28.5625 C 177.6875 28.546875 177.394531 28.53125 176.707031 28.535156 C 176.019531 28.535156 175.75 28.546875 176.109375 28.5625 M 123.785156 28.679688 C 123.765625 28.710938 124.285156 28.730469 124.9375 28.726562 C 126.148438 28.722656 125.996094 28.6875 124.597656 28.648438 C 124.167969 28.636719 123.800781 28.648438 123.785156 28.679688 M 178.25 28.667969 C 178.417969 28.777344 180.5 28.777344 180.5 28.667969 C 180.5 28.613281 180.050781 28.585938 179.3125 28.585938 C 178.515625 28.585938 178.164062 28.613281 178.25 28.667969 M 85.332031 28.753906 C 85.332031 28.8125 84.945312 28.832031 84.171875 28.816406 C 83.53125 28.804688 83.035156 28.816406 83.066406 28.851562 C 83.097656 28.882812 83.632812 28.910156 84.25 28.917969 C 85.71875 28.925781 85.683594 28.929688 85.625 28.835938 C 85.59375 28.785156 86.050781 28.746094 86.851562 28.730469 L 88.125 28.703125 L 86.730469 28.683594 C 85.796875 28.671875 85.332031 28.695312 85.332031 28.753906 M 90.957031 28.75 C 90.992188 28.804688 90.558594 28.839844 89.734375 28.851562 L 88.457031 28.871094 L 89.667969 28.894531 C 90.386719 28.910156 90.941406 28.886719 91.042969 28.835938 C 91.132812 28.789062 91.808594 28.738281 92.542969 28.726562 L 93.875 28.703125 L 92.390625 28.683594 C 91.417969 28.671875 90.925781 28.695312 90.957031 28.75 M 96.382812 28.738281 C 96.355469 28.777344 96.933594 28.820312 97.660156 28.828125 C 98.515625 28.835938 99.003906 28.8125 99.039062 28.753906 C 99.074219 28.695312 98.675781 28.667969 97.761719 28.667969 C 97.027344 28.667969 96.40625 28.699219 96.382812 28.738281 M 101.886719 28.734375 C 101.847656 28.796875 102.261719 28.816406 103.25 28.808594 C 104.027344 28.796875 104.667969 28.816406 104.667969 28.851562 C 104.667969 28.882812 105.246094 28.917969 105.957031 28.933594 C 106.941406 28.953125 107.21875 28.933594 107.144531 28.859375 C 107.003906 28.726562 101.964844 28.605469 101.886719 28.734375 M 107.792969 28.722656 C 108.789062 28.78125 110 28.785156 110 28.730469 C 110 28.695312 109.410156 28.671875 108.6875 28.683594 C 107.964844 28.691406 107.5625 28.710938 107.792969 28.722656 M 116.023438 28.730469 C 116.429688 28.742188 117.066406 28.742188 117.441406 28.726562 C 117.816406 28.714844 117.488281 28.699219 116.707031 28.699219 C 115.929688 28.699219 115.621094 28.714844 116.023438 28.730469 M 121.480469 28.726562 C 121.859375 28.742188 122.476562 28.742188 122.855469 28.726562 C 123.234375 28.714844 122.921875 28.699219 122.167969 28.699219 C 121.410156 28.699219 121.101562 28.714844 121.480469 28.726562 M 148.894531 28.726562 C 149.226562 28.746094 149.773438 28.746094 150.105469 28.726562 C 150.4375 28.710938 150.164062 28.699219 149.5 28.699219 C 148.835938 28.699219 148.5625 28.710938 148.894531 28.726562 M 167.214844 28.804688 C 167.171875 28.914062 167.183594 28.921875 167.28125 28.839844 C 167.367188 28.769531 167.761719 28.75 168.609375 28.765625 C 169.273438 28.78125 169.800781 28.761719 169.777344 28.730469 C 169.691406 28.589844 167.269531 28.65625 167.214844 28.804688 M 175.5 28.75 C 175.5 28.800781 175.988281 28.832031 176.796875 28.832031 C 177.640625 28.832031 178.074219 28.804688 178.042969 28.75 C 178.011719 28.699219 177.484375 28.667969 176.746094 28.667969 C 175.96875 28.667969 175.5 28.699219 175.5 28.75 M 129.707031 28.804688 C 130.722656 28.867188 131.75 28.871094 131.75 28.8125 C 131.75 28.777344 131.195312 28.757812 130.519531 28.765625 C 129.84375 28.773438 129.480469 28.792969 129.707031 28.804688 M 144.125 28.839844 L 142.875 28.886719 L 144.148438 28.878906 C 145.078125 28.875 145.410156 28.902344 145.382812 28.972656 C 145.355469 29.042969 145.691406 29.066406 146.652344 29.058594 L 147.957031 29.050781 L 146.707031 29.003906 L 145.457031 28.953125 L 147.957031 28.875 L 146.667969 28.832031 C 145.957031 28.808594 144.8125 28.8125 144.125 28.839844 M 162.523438 28.8125 C 162.882812 28.828125 163.445312 28.828125 163.773438 28.8125 C 164.105469 28.796875 163.8125 28.78125 163.125 28.785156 C 162.4375 28.785156 162.167969 28.796875 162.523438 28.8125 M 91.082031 28.917969 C 91.082031 28.96875 91.539062 29 92.285156 29 C 93 29 93.511719 28.964844 93.542969 28.917969 C 93.574219 28.863281 93.152344 28.832031 92.339844 28.832031 C 91.558594 28.832031 91.082031 28.863281 91.082031 28.917969 M 99.941406 28.894531 C 100.296875 28.910156 100.859375 28.910156 101.191406 28.894531 C 101.523438 28.878906 101.230469 28.867188 100.542969 28.867188 C 99.855469 28.867188 99.585938 28.878906 99.941406 28.894531 M 121.691406 28.894531 C 122.046875 28.910156 122.609375 28.910156 122.941406 28.894531 C 123.273438 28.878906 122.980469 28.867188 122.292969 28.867188 C 121.605469 28.867188 121.335938 28.878906 121.691406 28.894531 M 138.582031 28.917969 L 137.457031 28.964844 L 138.605469 28.984375 C 139.324219 28.992188 139.75 28.96875 139.75 28.917969 C 139.75 28.871094 139.742188 28.839844 139.730469 28.851562 C 139.71875 28.859375 139.203125 28.890625 138.582031 28.917969 M 152.164062 28.894531 C 152.921875 28.914062 153.308594 28.953125 153.355469 29.023438 C 153.410156 29.097656 153.421875 29.089844 153.394531 29 C 153.367188 28.898438 153.160156 28.875 152.203125 28.871094 L 151.042969 28.867188 L 152.164062 28.894531 M 159.0625 28.9375 C 159.03125 29.019531 159.289062 29.035156 160.238281 29.015625 C 161.894531 28.980469 161.992188 28.832031 160.359375 28.832031 C 159.429688 28.832031 159.089844 28.859375 159.0625 28.9375 M 170.691406 28.894531 C 171.046875 28.910156 171.609375 28.910156 171.941406 28.894531 C 172.273438 28.878906 171.980469 28.867188 171.292969 28.867188 C 170.605469 28.867188 170.335938 28.878906 170.691406 28.894531 M 178.730469 28.894531 C 179.0625 28.910156 179.605469 28.910156 179.9375 28.894531 C 180.269531 28.878906 179.996094 28.867188 179.332031 28.867188 C 178.667969 28.867188 178.398438 28.878906 178.730469 28.894531 M 42.226562 29.0625 C 42.277344 29.191406 44.5 29.214844 44.5 29.085938 C 44.5 29.042969 44 28.996094 43.34375 28.984375 C 42.445312 28.964844 42.195312 28.980469 42.226562 29.0625 M 56.480469 28.976562 C 56.8125 28.996094 57.355469 28.996094 57.6875 28.976562 C 58.019531 28.960938 57.746094 28.949219 57.082031 28.949219 C 56.417969 28.949219 56.148438 28.960938 56.480469 28.976562 M 65.125 29 L 63.875 29.046875 L 65.097656 29.066406 C 65.84375 29.078125 66.34375 29.050781 66.375 29 C 66.402344 28.953125 66.414062 28.925781 66.402344 28.933594 C 66.386719 28.945312 65.8125 28.972656 65.125 29 M 74.90625 29.023438 C 74.941406 29.058594 75.511719 29.078125 76.171875 29.066406 L 77.375 29.039062 L 76.109375 29 C 75.410156 28.976562 74.871094 28.988281 74.90625 29.023438 M 80.941406 28.976562 C 81.296875 28.996094 81.859375 28.992188 82.191406 28.976562 C 82.523438 28.960938 82.230469 28.949219 81.542969 28.949219 C 80.855469 28.949219 80.585938 28.964844 80.941406 28.976562 M 101.839844 29.070312 C 101.785156 29.171875 101.78125 29.257812 101.828125 29.289062 C 101.871094 29.3125 101.929688 29.257812 101.960938 29.160156 C 102.035156 28.925781 101.953125 28.863281 101.839844 29.070312 M 110.257812 29.050781 C 110.296875 29.097656 110.308594 29.164062 110.277344 29.195312 C 110.246094 29.226562 110.734375 29.25 111.359375 29.25 C 112.300781 29.25 112.5 29.230469 112.5 29.128906 C 112.5 29.03125 112.285156 29.003906 111.339844 28.984375 C 110.507812 28.964844 110.203125 28.984375 110.257812 29.050781 M 135.273438 28.976562 C 135.632812 28.996094 136.195312 28.992188 136.523438 28.976562 C 136.855469 28.960938 136.5625 28.949219 135.875 28.949219 C 135.1875 28.949219 134.917969 28.964844 135.273438 28.976562 M 153.636719 28.980469 C 153.617188 29.011719 153.980469 29.03125 154.445312 29.019531 C 155.976562 28.980469 156.144531 28.949219 154.902344 28.933594 C 154.226562 28.921875 153.660156 28.945312 153.636719 28.980469 M 58.457031 29.082031 C 58.488281 29.132812 59 29.167969 59.714844 29.167969 C 60.460938 29.167969 60.917969 29.136719 60.917969 29.082031 C 60.917969 29.03125 60.441406 29 59.660156 29 C 58.847656 29 58.425781 29.027344 58.457031 29.082031 M 67.875 29.078125 C 68.941406 29.117188 68.734375 29.128906 66.457031 29.167969 L 63.792969 29.210938 L 66.484375 29.230469 C 68.613281 29.246094 69.171875 29.226562 69.144531 29.144531 C 69.121094 29.070312 68.785156 29.039062 67.867188 29.039062 L 66.625 29.035156 L 67.875 29.078125 M 86.1875 29.0625 C 86.542969 29.078125 87.125 29.078125 87.480469 29.0625 C 87.835938 29.046875 87.542969 29.035156 86.832031 29.035156 C 86.121094 29.035156 85.832031 29.046875 86.1875 29.0625 M 102.082031 29.125 C 102.082031 29.230469 102.273438 29.25 103.292969 29.25 C 104.308594 29.25 104.5 29.230469 104.5 29.125 C 104.5 29.019531 104.308594 29 103.292969 29 C 102.273438 29 102.082031 29.019531 102.082031 29.125 M 112.886719 29.125 C 112.925781 29.226562 113.144531 29.25 114.132812 29.25 C 115.144531 29.25 115.332031 29.230469 115.332031 29.125 C 115.332031 29.019531 115.140625 29 114.085938 29 C 113.011719 29 112.84375 29.015625 112.886719 29.125 M 121.691406 29.0625 C 122.046875 29.078125 122.609375 29.078125 122.941406 29.0625 C 123.273438 29.046875 122.980469 29.03125 122.292969 29.035156 C 121.605469 29.035156 121.335938 29.046875 121.691406 29.0625 M 20.359375 29.195312 C 20.320312 29.257812 20.234375 29.332031 20.167969 29.363281 C 20.09375 29.394531 20.121094 29.402344 20.226562 29.386719 C 20.324219 29.367188 20.425781 29.394531 20.445312 29.445312 C 20.464844 29.5 20.472656 29.4375 20.46875 29.3125 C 20.457031 29.050781 20.449219 29.042969 20.359375 29.195312 M 23.375 29.140625 C 24.375 29.199219 25.582031 29.203125 25.582031 29.144531 C 25.582031 29.113281 24.992188 29.089844 24.269531 29.097656 C 23.550781 29.105469 23.144531 29.125 23.375 29.140625 M 31.707031 29.140625 C 32.71875 29.199219 33.730469 29.203125 33.695312 29.144531 C 33.675781 29.113281 33.125 29.089844 32.472656 29.097656 C 31.824219 29.105469 31.480469 29.125 31.707031 29.140625 M 50.941406 29.144531 C 51.296875 29.160156 51.859375 29.160156 52.191406 29.144531 C 52.523438 29.128906 52.230469 29.117188 51.542969 29.117188 C 50.855469 29.117188 50.585938 29.128906 50.941406 29.144531 M 56.4375 29.144531 C 56.746094 29.160156 57.253906 29.160156 57.5625 29.144531 C 57.871094 29.128906 57.617188 29.117188 57 29.117188 C 56.382812 29.117188 56.128906 29.128906 56.4375 29.144531 M 61.074219 29.191406 C 61.109375 29.226562 61.734375 29.242188 62.464844 29.230469 L 63.792969 29.207031 L 62.398438 29.167969 C 61.632812 29.144531 61.035156 29.152344 61.074219 29.191406 M 80.941406 29.144531 C 81.296875 29.160156 81.859375 29.160156 82.191406 29.144531 C 82.523438 29.128906 82.230469 29.117188 81.542969 29.117188 C 80.855469 29.117188 80.585938 29.128906 80.941406 29.144531 M 96.5 29.144531 C 96.5 29.179688 96.867188 29.199219 97.3125 29.1875 C 98.816406 29.144531 98.964844 29.113281 97.730469 29.097656 C 97.054688 29.089844 96.5 29.113281 96.5 29.144531 M 118.222656 29.140625 C 118.191406 29.167969 118.167969 29.234375 118.167969 29.285156 C 118.167969 29.339844 118.195312 29.335938 118.234375 29.273438 C 118.277344 29.203125 118.671875 29.164062 119.503906 29.144531 L 120.707031 29.121094 L 119.492188 29.101562 C 118.824219 29.089844 118.253906 29.109375 118.222656 29.140625 M 72.015625 29.3125 C 72.039062 29.445312 72.171875 29.457031 73.273438 29.460938 L 74.5 29.464844 L 73.292969 29.4375 C 71.683594 29.402344 71.683594 29.25 73.292969 29.25 C 74.292969 29.25 74.511719 29.273438 74.554688 29.375 C 74.578125 29.441406 74.632812 29.480469 74.671875 29.453125 C 74.710938 29.429688 74.722656 29.355469 74.695312 29.289062 C 74.617188 29.085938 71.976562 29.109375 72.015625 29.3125 M 47.636719 29.3125 C 47.617188 29.347656 48.171875 29.375 48.875 29.375 C 49.578125 29.375 50.132812 29.347656 50.113281 29.3125 C 50.089844 29.277344 49.535156 29.25 48.875 29.25 C 48.214844 29.25 47.660156 29.277344 47.636719 29.3125 M 52.917969 29.375 C 52.917969 29.445312 52.953125 29.5 53 29.5 C 53.046875 29.5 53.082031 29.445312 53.082031 29.375 C 53.082031 29.304688 53.046875 29.25 53 29.25 C 52.953125 29.25 52.917969 29.304688 52.917969 29.375 M 78.109375 29.3125 C 78.464844 29.328125 79.027344 29.328125 79.359375 29.3125 C 79.6875 29.296875 79.394531 29.28125 78.707031 29.285156 C 78.019531 29.285156 77.75 29.296875 78.109375 29.3125 M 80.941406 29.3125 C 81.296875 29.328125 81.859375 29.328125 82.191406 29.3125 C 82.523438 29.296875 82.230469 29.28125 81.542969 29.285156 C 80.855469 29.285156 80.585938 29.296875 80.941406 29.3125 M 105.273438 29.3125 C 105.632812 29.328125 106.195312 29.328125 106.523438 29.3125 C 106.855469 29.296875 106.5625 29.28125 105.875 29.285156 C 105.1875 29.285156 104.917969 29.296875 105.273438 29.3125 M 23.082031 29.414062 C 23.082031 29.457031 23.613281 29.503906 24.320312 29.515625 C 25.265625 29.535156 25.554688 29.515625 25.554688 29.4375 C 25.554688 29.359375 25.253906 29.332031 24.320312 29.332031 C 23.59375 29.332031 23.082031 29.367188 23.082031 29.414062 M 64.566406 29.394531 C 64.945312 29.410156 65.546875 29.410156 65.898438 29.394531 C 66.253906 29.378906 65.941406 29.367188 65.207031 29.367188 C 64.476562 29.367188 64.1875 29.378906 64.566406 29.394531 M 28.597656 29.488281 C 28.382812 29.625 28.757812 29.671875 29.925781 29.660156 C 30.871094 29.652344 31.0625 29.628906 31.027344 29.535156 C 30.976562 29.402344 28.800781 29.359375 28.597656 29.488281 M 56.3125 29.476562 C 56.644531 29.496094 57.1875 29.496094 57.519531 29.476562 C 57.851562 29.460938 57.582031 29.449219 56.917969 29.449219 C 56.253906 29.449219 55.980469 29.460938 56.3125 29.476562 M 30.351562 29.5625 C 30.015625 29.578125 29.492188 29.578125 29.183594 29.5625 C 28.875 29.546875 29.148438 29.53125 29.792969 29.53125 C 30.433594 29.53125 30.683594 29.546875 30.351562 29.5625 M 32.542969 29.582031 L 31.207031 29.632812 L 32.515625 29.648438 C 33.316406 29.660156 33.84375 29.632812 33.875 29.582031 C 33.902344 29.539062 33.914062 29.507812 33.902344 29.515625 C 33.886719 29.527344 33.273438 29.558594 32.542969 29.582031 M 36.625 29.582031 C 36.65625 29.632812 37.183594 29.667969 37.925781 29.667969 C 38.738281 29.667969 39.160156 29.636719 39.125 29.582031 C 39.09375 29.535156 38.566406 29.5 37.824219 29.5 C 37.011719 29.5 36.589844 29.527344 36.625 29.582031 M 21.109375 29.644531 C 21.464844 29.660156 22.027344 29.660156 22.359375 29.644531 C 22.6875 29.628906 22.394531 29.617188 21.707031 29.617188 C 21.019531 29.617188 20.75 29.628906 21.109375 29.644531 "/>
<path style=" stroke:none;fill-rule:evenodd;fill:rgb(10.980392%,10.980392%,36.078431%);fill-opacity:1;" d="M 126.554688 4.792969 C 126.484375 4.859375 126.351562 4.917969 126.257812 4.917969 C 126.160156 4.917969 126.082031 4.953125 126.082031 5 C 126.082031 5.046875 126.007812 5.082031 125.914062 5.082031 C 125.820312 5.082031 125.722656 5.140625 125.695312 5.207031 C 125.667969 5.285156 125.539062 5.332031 125.367188 5.332031 C 125.210938 5.332031 125.082031 5.371094 125.082031 5.417969 C 125.082031 5.460938 124.953125 5.5 124.792969 5.5 C 124.632812 5.5 124.5 5.539062 124.5 5.582031 C 124.5 5.628906 124.328125 5.667969 124.121094 5.667969 C 123.863281 5.667969 123.730469 5.707031 123.695312 5.792969 C 123.660156 5.886719 123.507812 5.917969 123.074219 5.917969 C 122.746094 5.917969 122.5 5.953125 122.5 6 C 122.5 6.046875 122.222656 6.082031 121.832031 6.082031 C 121.3125 6.082031 121.152344 6.113281 121.113281 6.207031 C 121.085938 6.277344 120.976562 6.332031 120.867188 6.332031 C 120.679688 6.332031 120.667969 6.363281 120.667969 6.773438 C 120.667969 7.492188 120.691406 7.5 122.714844 7.5 L 124.429688 7.5 L 124.757812 7.828125 C 124.9375 8.011719 125.082031 8.238281 125.082031 8.328125 C 125.082031 8.425781 125.136719 8.5 125.207031 8.5 C 125.320312 8.5 125.332031 9.398438 125.332031 16.074219 C 125.332031 22.730469 125.316406 23.65625 125.207031 23.695312 C 125.128906 23.726562 125.082031 23.855469 125.082031 24.039062 C 125.082031 24.199219 125.046875 24.332031 125 24.332031 C 124.953125 24.332031 124.917969 24.390625 124.917969 24.457031 C 124.917969 24.621094 124.621094 24.917969 124.457031 24.917969 C 124.390625 24.917969 124.332031 24.953125 124.332031 25 C 124.332031 25.046875 124.207031 25.082031 124.050781 25.082031 C 123.875 25.082031 123.75 25.132812 123.71875 25.207031 C 123.679688 25.308594 123.472656 25.332031 122.585938 25.332031 C 121.917969 25.332031 121.5 25.367188 121.5 25.417969 C 121.5 25.460938 121.40625 25.5 121.292969 25.5 C 121.09375 25.5 121.082031 25.523438 121.082031 26 C 121.082031 26.390625 121.109375 26.5 121.207031 26.5 C 121.277344 26.5 121.332031 26.539062 121.332031 26.582031 C 121.332031 26.636719 123.070312 26.667969 126.382812 26.667969 C 132.070312 26.667969 131.667969 26.71875 131.667969 26 C 131.667969 25.363281 131.609375 25.332031 130.378906 25.332031 C 129.523438 25.332031 129.320312 25.308594 129.28125 25.207031 C 129.25 25.132812 129.125 25.082031 128.949219 25.082031 C 128.792969 25.082031 128.667969 25.046875 128.667969 25 C 128.667969 24.953125 128.609375 24.917969 128.542969 24.917969 C 128.378906 24.917969 128.082031 24.621094 128.082031 24.457031 C 128.082031 24.390625 128.046875 24.332031 128 24.332031 C 127.953125 24.332031 127.917969 24.207031 127.917969 24.050781 C 127.917969 23.875 127.867188 23.75 127.792969 23.71875 C 127.679688 23.675781 127.667969 22.554688 127.667969 14.324219 L 127.667969 4.976562 L 127.488281 4.824219 C 127.269531 4.632812 126.730469 4.617188 126.554688 4.792969 M 79.917969 5.125 C 79.917969 5.253906 79.871094 5.332031 79.792969 5.332031 C 79.722656 5.332031 79.667969 5.40625 79.667969 5.496094 C 79.667969 5.585938 79.628906 5.679688 79.582031 5.707031 C 79.539062 5.738281 79.5 5.890625 79.5 6.046875 C 79.5 6.203125 79.460938 6.332031 79.417969 6.332031 C 79.371094 6.332031 79.332031 6.40625 79.332031 6.492188 C 79.332031 6.578125 79.277344 6.671875 79.207031 6.695312 C 79.128906 6.726562 79.082031 6.855469 79.082031 7.039062 C 79.082031 7.199219 79.046875 7.332031 79 7.332031 C 78.953125 7.332031 78.917969 7.40625 78.917969 7.492188 C 78.917969 7.578125 78.859375 7.671875 78.792969 7.695312 C 78.714844 7.726562 78.667969 7.855469 78.667969 8.039062 C 78.667969 8.199219 78.628906 8.332031 78.582031 8.332031 C 78.539062 8.332031 78.5 8.410156 78.5 8.5 C 78.5 8.589844 78.460938 8.667969 78.417969 8.667969 C 78.371094 8.667969 78.332031 8.816406 78.332031 9 C 78.332031 9.242188 78.296875 9.332031 78.207031 9.332031 C 78.140625 9.332031 78.082031 9.40625 78.082031 9.496094 C 78.082031 9.585938 78.046875 9.679688 78 9.707031 C 77.953125 9.738281 77.917969 9.890625 77.917969 10.046875 C 77.917969 10.246094 77.878906 10.332031 77.792969 10.332031 C 77.722656 10.332031 77.667969 10.40625 77.667969 10.496094 C 77.667969 10.585938 77.628906 10.679688 77.582031 10.707031 C 77.539062 10.738281 77.5 10.890625 77.5 11.046875 C 77.5 11.203125 77.460938 11.332031 77.417969 11.332031 C 77.371094 11.332031 77.332031 11.40625 77.332031 11.492188 C 77.332031 11.578125 77.277344 11.671875 77.207031 11.695312 C 77.128906 11.726562 77.082031 11.855469 77.082031 12.039062 C 77.082031 12.199219 77.046875 12.332031 77 12.332031 C 76.953125 12.332031 76.917969 12.40625 76.917969 12.492188 C 76.917969 12.578125 76.859375 12.671875 76.792969 12.695312 C 76.714844 12.726562 76.667969 12.855469 76.667969 13.039062 C 76.667969 13.199219 76.628906 13.332031 76.582031 13.332031 C 76.539062 13.332031 76.5 13.410156 76.5 13.5 C 76.5 13.589844 76.460938 13.667969 76.417969 13.667969 C 76.371094 13.667969 76.332031 13.816406 76.332031 14 C 76.332031 14.242188 76.296875 14.332031 76.207031 14.332031 C 76.140625 14.332031 76.082031 14.40625 76.082031 14.496094 C 76.082031 14.585938 76.046875 14.679688 76 14.707031 C 75.953125 14.738281 75.917969 14.890625 75.917969 15.046875 C 75.917969 15.246094 75.878906 15.332031 75.792969 15.332031 C 75.722656 15.332031 75.667969 15.40625 75.667969 15.496094 C 75.667969 15.585938 75.628906 15.679688 75.582031 15.707031 C 75.539062 15.738281 75.5 15.890625 75.5 16.046875 C 75.5 16.203125 75.460938 16.332031 75.417969 16.332031 C 75.371094 16.332031 75.332031 16.40625 75.332031 16.492188 C 75.332031 16.578125 75.277344 16.671875 75.207031 16.695312 C 75.128906 16.726562 75.082031 16.855469 75.082031 17.039062 C 75.082031 17.199219 75.046875 17.332031 75 17.332031 C 74.953125 17.332031 74.917969 17.40625 74.917969 17.492188 C 74.917969 17.578125 74.859375 17.671875 74.792969 17.695312 C 74.714844 17.726562 74.667969 17.855469 74.667969 18.039062 C 74.667969 18.199219 74.628906 18.332031 74.582031 18.332031 C 74.539062 18.332031 74.5 18.410156 74.5 18.5 C 74.5 18.589844 74.460938 18.667969 74.417969 18.667969 C 74.371094 18.667969 74.332031 18.816406 74.332031 19 C 74.332031 19.242188 74.296875 19.332031 74.207031 19.332031 C 74.140625 19.332031 74.082031 19.40625 74.082031 19.496094 C 74.082031 19.585938 74.046875 19.679688 74 19.707031 C 73.953125 19.738281 73.917969 19.890625 73.917969 20.046875 C 73.917969 20.246094 73.878906 20.332031 73.792969 20.332031 C 73.722656 20.332031 73.667969 20.40625 73.667969 20.496094 C 73.667969 20.585938 73.628906 20.679688 73.582031 20.707031 C 73.539062 20.738281 73.5 20.890625 73.5 21.046875 C 73.5 21.203125 73.460938 21.332031 73.417969 21.332031 C 73.371094 21.332031 73.332031 21.40625 73.332031 21.492188 C 73.332031 21.578125 73.277344 21.671875 73.207031 21.695312 C 73.128906 21.726562 73.082031 21.855469 73.082031 22.039062 C 73.082031 22.199219 73.046875 22.332031 73 22.332031 C 72.953125 22.332031 72.917969 22.40625 72.917969 22.492188 C 72.917969 22.578125 72.859375 22.671875 72.792969 22.695312 C 72.714844 22.726562 72.667969 22.855469 72.667969 23.039062 C 72.667969 23.199219 72.628906 23.332031 72.582031 23.332031 C 72.539062 23.332031 72.5 23.410156 72.5 23.5 C 72.5 23.589844 72.460938 23.667969 72.417969 23.667969 C 72.371094 23.667969 72.332031 23.722656 72.332031 23.792969 C 72.332031 23.859375 72.277344 23.917969 72.207031 23.917969 C 72.136719 23.917969 72.082031 23.992188 72.082031 24.09375 C 72.082031 24.257812 71.710938 24.667969 71.5625 24.667969 C 71.527344 24.667969 71.5 24.707031 71.5 24.757812 C 71.5 24.902344 71.273438 25.082031 71.089844 25.082031 C 70.992188 25.082031 70.917969 25.136719 70.917969 25.207031 C 70.917969 25.304688 70.816406 25.332031 70.5 25.332031 C 70.269531 25.332031 70.082031 25.371094 70.082031 25.417969 C 70.082031 25.460938 69.914062 25.5 69.707031 25.5 L 69.332031 25.5 L 69.332031 25.964844 C 69.332031 26.714844 69.085938 26.667969 73.117188 26.667969 C 76.542969 26.667969 76.667969 26.660156 76.667969 26.507812 C 76.667969 26.421875 76.722656 26.328125 76.792969 26.304688 C 76.859375 26.277344 76.917969 26.179688 76.917969 26.085938 C 76.917969 25.992188 76.863281 25.917969 76.792969 25.917969 C 76.714844 25.917969 76.667969 25.839844 76.667969 25.707031 C 76.667969 25.507812 76.644531 25.5 76.167969 25.5 C 75.890625 25.5 75.667969 25.464844 75.667969 25.417969 C 75.667969 25.371094 75.503906 25.332031 75.300781 25.332031 C 75.050781 25.332031 74.917969 25.292969 74.886719 25.207031 C 74.859375 25.140625 74.777344 25.082031 74.703125 25.082031 C 74.453125 25.082031 74.332031 24.859375 74.332031 24.382812 C 74.332031 24.125 74.371094 23.917969 74.417969 23.917969 C 74.460938 23.917969 74.5 23.785156 74.5 23.625 C 74.5 23.464844 74.539062 23.332031 74.582031 23.332031 C 74.628906 23.332031 74.667969 23.242188 74.667969 23.132812 C 74.667969 23.023438 74.722656 22.914062 74.792969 22.886719 C 74.863281 22.859375 74.917969 22.734375 74.917969 22.589844 C 74.917969 22.453125 74.953125 22.320312 75 22.292969 C 75.046875 22.261719 75.082031 22.109375 75.082031 21.953125 C 75.082031 21.753906 75.121094 21.667969 75.207031 21.667969 C 75.285156 21.667969 75.332031 21.589844 75.332031 21.457031 C 75.332031 21.34375 75.371094 21.25 75.417969 21.25 C 75.460938 21.25 75.5 21.117188 75.5 20.957031 C 75.5 20.796875 75.539062 20.667969 75.582031 20.667969 C 75.628906 20.667969 75.667969 20.535156 75.667969 20.375 C 75.667969 20.171875 75.703125 20.082031 75.792969 20.082031 C 75.871094 20.082031 75.917969 20.003906 75.917969 19.875 C 75.917969 19.761719 75.953125 19.667969 76 19.667969 C 76.046875 19.667969 76.082031 19.589844 76.082031 19.5 C 76.082031 19.335938 76.140625 19.332031 80.207031 19.332031 C 84.277344 19.332031 84.332031 19.335938 84.332031 19.5 C 84.332031 19.589844 84.371094 19.667969 84.417969 19.667969 C 84.460938 19.667969 84.5 19.796875 84.5 19.957031 C 84.5 20.117188 84.539062 20.25 84.582031 20.25 C 84.628906 20.25 84.667969 20.34375 84.667969 20.457031 C 84.667969 20.589844 84.714844 20.667969 84.792969 20.667969 C 84.878906 20.667969 84.917969 20.753906 84.917969 20.957031 C 84.917969 21.117188 84.953125 21.25 85 21.25 C 85.046875 21.25 85.082031 21.34375 85.082031 21.457031 C 85.082031 21.589844 85.128906 21.667969 85.207031 21.667969 C 85.285156 21.667969 85.332031 21.746094 85.332031 21.875 C 85.332031 21.988281 85.371094 22.082031 85.417969 22.082031 C 85.460938 22.082031 85.5 22.214844 85.5 22.375 C 85.5 22.535156 85.539062 22.667969 85.582031 22.667969 C 85.628906 22.667969 85.667969 22.761719 85.667969 22.875 C 85.667969 23.003906 85.714844 23.082031 85.792969 23.082031 C 85.878906 23.082031 85.917969 23.171875 85.917969 23.375 C 85.917969 23.535156 85.953125 23.667969 86 23.667969 C 86.046875 23.667969 86.082031 23.917969 86.082031 24.257812 C 86.082031 24.863281 85.984375 25.082031 85.710938 25.082031 C 85.636719 25.082031 85.554688 25.140625 85.53125 25.207031 C 85.496094 25.296875 85.359375 25.332031 85.074219 25.332031 C 84.851562 25.332031 84.667969 25.371094 84.667969 25.417969 C 84.667969 25.460938 84.457031 25.5 84.203125 25.5 C 83.640625 25.5 83.5 25.617188 83.5 26.082031 C 83.5 26.695312 83.28125 26.667969 87.703125 26.667969 C 91.535156 26.667969 91.667969 26.660156 91.667969 26.507812 C 91.667969 26.421875 91.722656 26.328125 91.792969 26.304688 C 91.859375 26.277344 91.917969 26.179688 91.917969 26.085938 C 91.917969 25.992188 91.863281 25.917969 91.792969 25.917969 C 91.714844 25.917969 91.667969 25.839844 91.667969 25.707031 C 91.667969 25.527344 91.628906 25.5 91.375 25.5 C 91.214844 25.5 91.082031 25.460938 91.082031 25.417969 C 91.082031 25.371094 90.953125 25.332031 90.792969 25.332031 C 90.589844 25.332031 90.5 25.296875 90.5 25.207031 C 90.5 25.128906 90.421875 25.082031 90.292969 25.082031 C 90.175781 25.082031 90.082031 25.046875 90.082031 25 C 90.082031 24.953125 89.988281 24.917969 89.875 24.917969 C 89.761719 24.917969 89.667969 24.878906 89.667969 24.828125 C 89.667969 24.714844 89.285156 24.332031 89.171875 24.332031 C 89.121094 24.332031 89.082031 24.277344 89.082031 24.207031 C 89.082031 24.140625 89.046875 24.082031 89 24.082031 C 88.953125 24.082031 88.917969 24.007812 88.917969 23.914062 C 88.917969 23.820312 88.859375 23.722656 88.792969 23.695312 C 88.722656 23.671875 88.667969 23.578125 88.667969 23.492188 C 88.667969 23.40625 88.628906 23.332031 88.582031 23.332031 C 88.539062 23.332031 88.5 23.203125 88.5 23.042969 C 88.5 22.882812 88.460938 22.75 88.417969 22.75 C 88.371094 22.75 88.332031 22.65625 88.332031 22.542969 C 88.332031 22.410156 88.285156 22.332031 88.207031 22.332031 C 88.121094 22.332031 88.082031 22.246094 88.082031 22.042969 C 88.082031 21.882812 88.046875 21.75 88 21.75 C 87.953125 21.75 87.917969 21.65625 87.917969 21.542969 C 87.917969 21.410156 87.871094 21.332031 87.792969 21.332031 C 87.714844 21.332031 87.667969 21.253906 87.667969 21.125 C 87.667969 21.011719 87.628906 20.917969 87.582031 20.917969 C 87.539062 20.917969 87.5 20.785156 87.5 20.625 C 87.5 20.464844 87.460938 20.332031 87.417969 20.332031 C 87.371094 20.332031 87.332031 20.238281 87.332031 20.125 C 87.332031 19.996094 87.285156 19.917969 87.207031 19.917969 C 87.121094 19.917969 87.082031 19.828125 87.082031 19.625 C 87.082031 19.464844 87.046875 19.332031 87 19.332031 C 86.953125 19.332031 86.917969 19.238281 86.917969 19.125 C 86.917969 18.996094 86.871094 18.917969 86.792969 18.917969 C 86.703125 18.917969 86.667969 18.828125 86.667969 18.625 C 86.667969 18.464844 86.628906 18.332031 86.582031 18.332031 C 86.539062 18.332031 86.5 18.238281 86.5 18.125 C 86.5 18.011719 86.460938 17.917969 86.417969 17.917969 C 86.371094 17.917969 86.332031 17.785156 86.332031 17.625 C 86.332031 17.421875 86.296875 17.332031 86.207031 17.332031 C 86.128906 17.332031 86.082031 17.253906 86.082031 17.125 C 86.082031 17.011719 86.046875 16.917969 86 16.917969 C 85.953125 16.917969 85.917969 16.785156 85.917969 16.625 C 85.917969 16.421875 85.878906 16.332031 85.792969 16.332031 C 85.714844 16.332031 85.667969 16.253906 85.667969 16.125 C 85.667969 16.011719 85.628906 15.917969 85.582031 15.917969 C 85.539062 15.917969 85.5 15.785156 85.5 15.625 C 85.5 15.464844 85.460938 15.332031 85.417969 15.332031 C 85.371094 15.332031 85.332031 15.238281 85.332031 15.125 C 85.332031 14.996094 85.285156 14.917969 85.207031 14.917969 C 85.121094 14.917969 85.082031 14.828125 85.082031 14.625 C 85.082031 14.464844 85.046875 14.332031 85 14.332031 C 84.953125 14.332031 84.917969 14.238281 84.917969 14.125 C 84.917969 13.996094 84.871094 13.917969 84.792969 13.917969 C 84.703125 13.917969 84.667969 13.828125 84.667969 13.625 C 84.667969 13.464844 84.628906 13.332031 84.582031 13.332031 C 84.539062 13.332031 84.5 13.238281 84.5 13.125 C 84.5 13.011719 84.460938 12.917969 84.417969 12.917969 C 84.371094 12.917969 84.332031 12.804688 84.332031 12.664062 C 84.332031 12.515625 84.28125 12.390625 84.207031 12.363281 C 84.140625 12.335938 84.082031 12.226562 84.082031 12.117188 C 84.082031 12.007812 84.046875 11.917969 84 11.917969 C 83.953125 11.917969 83.917969 11.824219 83.917969 11.707031 C 83.917969 11.578125 83.871094 11.5 83.792969 11.5 C 83.703125 11.5 83.667969 11.410156 83.667969 11.207031 C 83.667969 11.046875 83.628906 10.917969 83.582031 10.917969 C 83.539062 10.917969 83.5 10.824219 83.5 10.707031 C 83.5 10.59375 83.460938 10.5 83.417969 10.5 C 83.371094 10.5 83.332031 10.386719 83.332031 10.246094 C 83.332031 10.097656 83.28125 9.976562 83.207031 9.945312 C 83.140625 9.921875 83.082031 9.808594 83.082031 9.699219 C 83.082031 9.589844 83.046875 9.5 83 9.5 C 82.953125 9.5 82.917969 9.367188 82.917969 9.207031 C 82.917969 9.003906 82.878906 8.917969 82.792969 8.917969 C 82.714844 8.917969 82.667969 8.839844 82.667969 8.707031 C 82.667969 8.59375 82.628906 8.5 82.582031 8.5 C 82.539062 8.5 82.5 8.367188 82.5 8.207031 C 82.5 8.046875 82.460938 7.917969 82.417969 7.917969 C 82.371094 7.917969 82.332031 7.824219 82.332031 7.707031 C 82.332031 7.578125 82.285156 7.5 82.207031 7.5 C 82.121094 7.5 82.082031 7.410156 82.082031 7.207031 C 82.082031 7.046875 82.046875 6.917969 82 6.917969 C 81.953125 6.917969 81.917969 6.824219 81.917969 6.707031 C 81.917969 6.578125 81.871094 6.5 81.792969 6.5 C 81.703125 6.5 81.667969 6.410156 81.667969 6.207031 C 81.667969 6.046875 81.628906 5.917969 81.582031 5.917969 C 81.539062 5.917969 81.5 5.824219 81.5 5.707031 C 81.5 5.59375 81.460938 5.5 81.417969 5.5 C 81.371094 5.5 81.332031 5.429688 81.332031 5.339844 C 81.332031 4.957031 81.265625 4.917969 80.574219 4.917969 C 79.929688 4.917969 79.917969 4.921875 79.917969 5.125 M 80.332031 9.292969 C 80.332031 9.40625 80.371094 9.5 80.417969 9.5 C 80.460938 9.5 80.5 9.632812 80.5 9.792969 C 80.5 9.953125 80.539062 10.082031 80.582031 10.082031 C 80.628906 10.082031 80.667969 10.175781 80.667969 10.292969 C 80.667969 10.421875 80.714844 10.5 80.792969 10.5 C 80.878906 10.5 80.917969 10.589844 80.917969 10.792969 C 80.917969 10.953125 80.953125 11.082031 81 11.082031 C 81.046875 11.082031 81.082031 11.175781 81.082031 11.292969 C 81.082031 11.421875 81.128906 11.5 81.207031 11.5 C 81.296875 11.5 81.332031 11.589844 81.332031 11.792969 C 81.332031 11.953125 81.371094 12.082031 81.417969 12.082031 C 81.460938 12.082031 81.5 12.175781 81.5 12.292969 C 81.5 12.40625 81.539062 12.5 81.582031 12.5 C 81.628906 12.5 81.667969 12.613281 81.667969 12.753906 C 81.667969 12.902344 81.71875 13.023438 81.792969 13.054688 C 81.859375 13.078125 81.917969 13.191406 81.917969 13.300781 C 81.917969 13.410156 81.953125 13.5 82 13.5 C 82.046875 13.5 82.082031 13.632812 82.082031 13.792969 C 82.082031 13.996094 82.121094 14.082031 82.207031 14.082031 C 82.296875 14.082031 82.332031 14.171875 82.332031 14.375 C 82.332031 14.535156 82.371094 14.667969 82.417969 14.667969 C 82.460938 14.667969 82.5 14.761719 82.5 14.875 C 82.5 14.988281 82.539062 15.082031 82.582031 15.082031 C 82.628906 15.082031 82.667969 15.195312 82.667969 15.335938 C 82.667969 15.484375 82.71875 15.609375 82.792969 15.636719 C 82.859375 15.664062 82.917969 15.773438 82.917969 15.882812 C 82.917969 15.992188 82.953125 16.082031 83 16.082031 C 83.046875 16.082031 83.082031 16.214844 83.082031 16.375 C 83.082031 16.578125 83.121094 16.667969 83.207031 16.667969 C 83.285156 16.667969 83.332031 16.746094 83.332031 16.875 C 83.332031 16.988281 83.371094 17.082031 83.417969 17.082031 C 83.460938 17.082031 83.5 17.214844 83.5 17.375 L 83.5 17.667969 L 80.082031 17.667969 C 77.859375 17.667969 76.667969 17.636719 76.667969 17.582031 C 76.667969 17.539062 76.722656 17.5 76.792969 17.5 C 76.871094 17.5 76.917969 17.421875 76.917969 17.292969 C 76.917969 17.175781 76.953125 17.082031 77 17.082031 C 77.046875 17.082031 77.082031 16.953125 77.082031 16.792969 C 77.082031 16.589844 77.121094 16.5 77.207031 16.5 C 77.285156 16.5 77.332031 16.421875 77.332031 16.292969 C 77.332031 16.175781 77.371094 16.082031 77.417969 16.082031 C 77.460938 16.082031 77.5 15.953125 77.5 15.792969 C 77.5 15.632812 77.539062 15.5 77.582031 15.5 C 77.628906 15.5 77.667969 15.40625 77.667969 15.292969 C 77.667969 15.160156 77.714844 15.082031 77.792969 15.082031 C 77.878906 15.082031 77.917969 14.996094 77.917969 14.792969 C 77.917969 14.632812 77.953125 14.5 78 14.5 C 78.046875 14.5 78.082031 14.421875 78.082031 14.328125 C 78.082031 14.234375 78.140625 14.097656 78.207031 14.03125 C 78.277344 13.960938 78.332031 13.8125 78.332031 13.703125 C 78.332031 13.589844 78.371094 13.5 78.417969 13.5 C 78.460938 13.5 78.5 13.40625 78.5 13.292969 C 78.5 13.175781 78.539062 13.082031 78.582031 13.082031 C 78.628906 13.082031 78.667969 12.953125 78.667969 12.792969 C 78.667969 12.589844 78.703125 12.5 78.792969 12.5 C 78.878906 12.5 78.917969 12.410156 78.917969 12.207031 C 78.917969 12.046875 78.953125 11.917969 79 11.917969 C 79.046875 11.917969 79.082031 11.828125 79.082031 11.71875 C 79.082031 11.609375 79.140625 11.496094 79.207031 11.46875 C 79.28125 11.441406 79.332031 11.316406 79.332031 11.167969 C 79.332031 11.03125 79.371094 10.917969 79.417969 10.917969 C 79.460938 10.917969 79.5 10.824219 79.5 10.707031 C 79.5 10.59375 79.539062 10.5 79.582031 10.5 C 79.628906 10.5 79.667969 10.367188 79.667969 10.207031 C 79.667969 10.003906 79.703125 9.917969 79.792969 9.917969 C 79.871094 9.917969 79.917969 9.839844 79.917969 9.707031 C 79.917969 9.59375 79.953125 9.5 80 9.5 C 80.046875 9.5 80.082031 9.40625 80.082031 9.292969 C 80.082031 9.160156 80.128906 9.082031 80.207031 9.082031 C 80.285156 9.082031 80.332031 9.160156 80.332031 9.292969 M 101.332031 17 C 101.332031 17.046875 101.238281 17.082031 101.125 17.082031 C 100.996094 17.082031 100.917969 17.128906 100.917969 17.207031 C 100.917969 17.277344 100.859375 17.332031 100.792969 17.332031 C 100.691406 17.332031 100.667969 17.464844 100.667969 18 C 100.667969 18.535156 100.691406 18.667969 100.792969 18.667969 C 100.859375 18.667969 100.917969 18.707031 100.917969 18.757812 C 100.917969 19.070312 101.066406 19.082031 104.207031 19.082031 C 107.351562 19.082031 107.5 19.070312 107.5 18.757812 C 107.5 18.707031 107.539062 18.667969 107.582031 18.667969 C 107.632812 18.667969 107.667969 18.390625 107.667969 18 C 107.667969 17.609375 107.632812 17.332031 107.582031 17.332031 C 107.539062 17.332031 107.5 17.277344 107.5 17.207031 C 107.5 17.140625 107.445312 17.082031 107.375 17.082031 C 107.304688 17.082031 107.25 17.046875 107.25 17 C 107.25 16.945312 106.207031 16.917969 104.292969 16.917969 C 102.375 16.917969 101.332031 16.945312 101.332031 17 M 118.894531 29.3125 C 119.273438 29.328125 119.890625 29.328125 120.269531 29.3125 C 120.648438 29.296875 120.339844 29.285156 119.582031 29.285156 C 118.828125 29.285156 118.515625 29.296875 118.894531 29.3125 M 69.363281 33.792969 C 69.335938 33.859375 69.28125 33.917969 69.234375 33.917969 C 68.949219 33.917969 68.917969 34.132812 68.917969 36.117188 C 68.917969 37.371094 68.945312 38.082031 69 38.082031 C 69.046875 38.082031 69.082031 38.140625 69.082031 38.207031 C 69.082031 38.277344 69.140625 38.332031 69.207031 38.332031 C 69.277344 38.332031 69.332031 38.371094 69.332031 38.417969 C 69.332031 38.546875 70.113281 38.511719 70.402344 38.367188 L 70.667969 38.238281 L 70.667969 36.078125 C 70.667969 34.011719 70.660156 33.917969 70.507812 33.917969 C 70.421875 33.917969 70.328125 33.859375 70.304688 33.792969 C 70.269531 33.703125 70.132812 33.667969 69.832031 33.667969 C 69.535156 33.667969 69.398438 33.703125 69.363281 33.792969 M 80.695312 33.792969 C 80.671875 33.859375 80.578125 33.917969 80.492188 33.917969 C 80.339844 33.917969 80.332031 34.011719 80.332031 36.078125 L 80.332031 38.238281 L 80.597656 38.367188 C 80.886719 38.511719 81.667969 38.546875 81.667969 38.417969 C 81.667969 38.371094 81.722656 38.332031 81.792969 38.332031 C 81.859375 38.332031 81.917969 38.277344 81.917969 38.207031 C 81.917969 38.140625 81.953125 38.082031 82 38.082031 C 82.054688 38.082031 82.082031 37.371094 82.082031 36.117188 C 82.082031 34.132812 82.050781 33.917969 81.765625 33.917969 C 81.71875 33.917969 81.664062 33.859375 81.636719 33.792969 C 81.601562 33.703125 81.464844 33.667969 81.167969 33.667969 C 80.867188 33.667969 80.730469 33.703125 80.695312 33.792969 M 108.386719 33.945312 L 108.082031 34.21875 L 108.082031 36.152344 C 108.082031 37.8125 108.101562 38.082031 108.207031 38.082031 C 108.277344 38.082031 108.332031 38.125 108.332031 38.171875 C 108.332031 38.375 108.585938 38.5 109 38.5 C 109.414062 38.5 109.667969 38.375 109.667969 38.171875 C 109.667969 38.125 109.722656 38.082031 109.792969 38.082031 C 109.894531 38.082031 109.917969 37.941406 109.917969 37.292969 L 109.917969 36.5 L 109.625 36.5 C 109.464844 36.5 109.332031 36.539062 109.332031 36.582031 C 109.332031 36.628906 109.277344 36.667969 109.207031 36.667969 C 109.113281 36.667969 109.082031 36.769531 109.082031 37.082031 C 109.082031 37.3125 109.046875 37.5 109 37.5 C 108.949219 37.5 108.917969 36.972656 108.917969 36.082031 C 108.917969 35.195312 108.949219 34.667969 109 34.667969 C 109.046875 34.667969 109.082031 34.890625 109.082031 35.167969 L 109.082031 35.667969 L 109.375 35.667969 C 109.535156 35.667969 109.667969 35.628906 109.667969 35.582031 C 109.667969 35.539062 109.722656 35.5 109.792969 35.5 C 109.894531 35.5 109.917969 35.367188 109.917969 34.792969 C 109.917969 34.277344 109.886719 34.082031 109.8125 34.082031 C 109.753906 34.082031 109.636719 33.988281 109.550781 33.875 C 109.304688 33.550781 108.78125 33.582031 108.386719 33.945312 M 136.695312 33.792969 C 136.671875 33.859375 136.578125 33.917969 136.492188 33.917969 C 136.347656 33.917969 136.332031 33.988281 136.332031 34.792969 C 136.332031 35.320312 136.367188 35.667969 136.417969 35.667969 C 136.460938 35.667969 136.5 35.761719 136.5 35.875 C 136.5 35.988281 136.539062 36.082031 136.582031 36.082031 C 136.628906 36.082031 136.667969 36.175781 136.667969 36.292969 C 136.667969 36.421875 136.714844 36.5 136.792969 36.5 C 136.859375 36.5 136.917969 36.539062 136.917969 36.582031 C 136.917969 36.628906 136.851562 36.667969 136.769531 36.667969 C 136.460938 36.667969 136.332031 36.960938 136.332031 37.667969 C 136.332031 38.277344 136.347656 38.332031 136.5 38.332031 C 136.589844 38.332031 136.667969 38.371094 136.667969 38.417969 C 136.667969 38.460938 136.839844 38.5 137.046875 38.5 C 137.414062 38.5 137.667969 38.367188 137.667969 38.171875 C 137.667969 38.125 137.722656 38.082031 137.792969 38.082031 C 137.890625 38.082031 137.917969 37.953125 137.917969 37.414062 C 137.917969 36.894531 137.886719 36.734375 137.792969 36.695312 C 137.714844 36.667969 137.667969 36.539062 137.667969 36.367188 C 137.667969 36.210938 137.628906 36.082031 137.582031 36.082031 C 137.539062 36.082031 137.5 36.007812 137.5 35.917969 C 137.5 35.824219 137.464844 35.75 137.421875 35.75 C 137.378906 35.75 137.332031 35.664062 137.320312 35.5625 C 137.285156 35.339844 137.515625 35.082031 137.75 35.082031 C 137.898438 35.082031 137.917969 35.027344 137.917969 34.582031 C 137.917969 34.234375 137.882812 34.082031 137.8125 34.082031 C 137.753906 34.082031 137.636719 33.988281 137.550781 33.875 C 137.367188 33.628906 136.78125 33.574219 136.695312 33.792969 M 63.5 34.371094 C 63.5 34.621094 63.539062 34.847656 63.582031 34.875 C 63.628906 34.902344 63.667969 35.09375 63.667969 35.296875 C 63.667969 35.570312 63.699219 35.667969 63.792969 35.667969 C 63.898438 35.667969 63.917969 35.871094 63.917969 37 L 63.917969 38.332031 L 64.667969 38.332031 L 64.667969 37.417969 C 64.667969 36.65625 64.6875 36.5 64.792969 36.5 C 64.890625 36.5 64.917969 36.390625 64.917969 36 C 64.917969 35.722656 64.953125 35.5 65 35.5 C 65.046875 35.5 65.082031 35.277344 65.082031 35 C 65.082031 34.609375 65.109375 34.5 65.207031 34.5 C 65.296875 34.5 65.332031 34.410156 65.332031 34.207031 L 65.332031 33.917969 L 64.5 33.917969 L 64.5 34.207031 C 64.5 34.367188 64.460938 34.5 64.417969 34.5 C 64.371094 34.5 64.332031 34.367188 64.332031 34.207031 L 64.332031 33.917969 L 63.5 33.917969 L 63.5 34.371094 M 74.6875 36.105469 L 74.707031 38.292969 L 75.105469 38.316406 C 75.480469 38.339844 75.5 38.332031 75.5 38.128906 C 75.5 37.867188 75.644531 37.847656 75.679688 38.105469 C 75.703125 38.265625 75.765625 38.296875 76.105469 38.316406 L 76.5 38.34375 L 76.5 37.921875 C 76.5 37.691406 76.460938 37.5 76.417969 37.5 C 76.371094 37.5 76.332031 37.386719 76.332031 37.246094 C 76.332031 37.097656 76.28125 36.976562 76.207031 36.945312 C 76.132812 36.917969 76.082031 36.789062 76.082031 36.617188 C 76.082031 36.460938 76.046875 36.332031 76 36.332031 C 75.953125 36.332031 75.917969 36.144531 75.917969 35.917969 C 75.917969 35.6875 75.953125 35.5 76 35.5 C 76.046875 35.5 76.082031 35.421875 76.082031 35.328125 C 76.082031 35.234375 76.140625 35.097656 76.207031 35.03125 C 76.277344 34.960938 76.332031 34.8125 76.332031 34.703125 C 76.332031 34.589844 76.371094 34.5 76.417969 34.5 C 76.460938 34.5 76.5 34.367188 76.5 34.207031 L 76.5 33.917969 L 76.089844 33.917969 C 75.84375 33.917969 75.660156 33.957031 75.632812 34.019531 C 75.59375 34.105469 75.574219 34.105469 75.535156 34.019531 C 75.503906 33.957031 75.324219 33.917969 75.074219 33.917969 L 74.664062 33.917969 L 74.6875 36.105469 M 85.917969 36.125 L 85.917969 38.332031 L 86.667969 38.332031 L 86.667969 37.417969 C 86.667969 36.65625 86.6875 36.5 86.792969 36.5 C 86.894531 36.5 86.917969 36.65625 86.917969 37.417969 L 86.917969 38.332031 L 87.667969 38.332031 L 87.667969 33.917969 L 86.917969 33.917969 L 86.917969 34.792969 C 86.917969 35.515625 86.894531 35.667969 86.792969 35.667969 C 86.6875 35.667969 86.667969 35.515625 86.667969 34.792969 L 86.667969 33.917969 L 85.917969 33.917969 L 85.917969 36.125 M 91.917969 34.417969 C 91.917969 34.804688 91.890625 34.917969 91.792969 34.917969 C 91.691406 34.917969 91.667969 35.050781 91.667969 35.625 C 91.667969 36.042969 91.632812 36.332031 91.582031 36.332031 C 91.535156 36.332031 91.5 36.582031 91.5 36.917969 C 91.5 37.25 91.464844 37.5 91.417969 37.5 C 91.371094 37.5 91.332031 37.6875 91.332031 37.917969 L 91.332031 38.332031 L 91.707031 38.332031 C 92.046875 38.332031 92.082031 38.316406 92.082031 38.132812 C 92.082031 38.023438 92.140625 37.914062 92.207031 37.886719 C 92.289062 37.855469 92.332031 37.726562 92.332031 37.539062 C 92.332031 37.359375 92.367188 37.261719 92.417969 37.292969 C 92.460938 37.320312 92.5 37.566406 92.5 37.84375 L 92.5 38.34375 L 92.894531 38.316406 L 93.292969 38.292969 L 93.316406 37.605469 C 93.335938 37.03125 93.320312 36.917969 93.210938 36.917969 C 93.105469 36.917969 93.082031 36.789062 93.082031 36.207031 C 93.082031 35.792969 93.050781 35.5 93 35.5 C 92.953125 35.5 92.917969 35.25 92.917969 34.917969 C 92.917969 34.453125 92.890625 34.332031 92.792969 34.332031 C 92.714844 34.332031 92.667969 34.253906 92.667969 34.125 C 92.667969 33.933594 92.636719 33.917969 92.292969 33.917969 L 91.917969 33.917969 L 91.917969 34.417969 M 96.6875 36.105469 L 96.707031 38.292969 L 97.105469 38.316406 L 97.5 38.34375 L 97.5 37.921875 C 97.5 37.691406 97.539062 37.5 97.582031 37.5 C 97.628906 37.5 97.667969 37.539062 97.667969 37.582031 C 97.667969 37.628906 97.816406 37.667969 98 37.667969 L 98.332031 37.667969 L 98.332031 38.332031 L 99.082031 38.332031 L 99.082031 33.917969 L 98.082031 33.917969 L 98.082031 34.5 C 98.082031 34.832031 98.046875 35.082031 98 35.082031 C 97.953125 35.082031 97.917969 35.046875 97.917969 35 C 97.917969 34.953125 97.859375 34.917969 97.792969 34.917969 C 97.695312 34.917969 97.667969 34.804688 97.667969 34.417969 L 97.667969 33.917969 L 96.664062 33.917969 L 96.6875 36.105469 M 103.082031 34.207031 C 103.082031 34.367188 103.046875 34.5 103 34.5 C 102.949219 34.5 102.917969 34.792969 102.917969 35.207031 C 102.917969 35.78125 102.894531 35.917969 102.792969 35.917969 C 102.691406 35.917969 102.667969 36.050781 102.667969 36.625 C 102.667969 37.042969 102.632812 37.332031 102.582031 37.332031 C 102.535156 37.332031 102.5 37.558594 102.5 37.839844 L 102.5 38.34375 L 102.894531 38.316406 L 103.292969 38.292969 L 103.316406 37.894531 C 103.339844 37.570312 103.371094 37.5 103.5 37.5 C 103.628906 37.5 103.660156 37.570312 103.683594 37.894531 L 103.707031 38.292969 L 104.105469 38.316406 L 104.5 38.34375 L 104.5 37.839844 C 104.5 37.558594 104.464844 37.332031 104.417969 37.332031 C 104.367188 37.332031 104.332031 37.054688 104.332031 36.664062 C 104.332031 36.144531 104.304688 35.984375 104.207031 35.945312 C 104.109375 35.910156 104.082031 35.742188 104.082031 35.199219 C 104.082031 34.789062 104.050781 34.5 104 34.5 C 103.953125 34.5 103.917969 34.367188 103.917969 34.207031 L 103.917969 33.917969 L 103.082031 33.917969 L 103.082031 34.207031 M 114.082031 34.417969 C 114.082031 34.695312 114.046875 34.917969 114 34.917969 C 113.949219 34.917969 113.917969 35.207031 113.917969 35.625 C 113.917969 36.199219 113.894531 36.332031 113.792969 36.332031 C 113.691406 36.332031 113.667969 36.453125 113.667969 36.917969 C 113.667969 37.25 113.632812 37.5 113.582031 37.5 C 113.539062 37.5 113.5 37.691406 113.5 37.921875 L 113.5 38.34375 L 113.894531 38.316406 C 114.234375 38.296875 114.296875 38.265625 114.320312 38.105469 C 114.332031 38 114.378906 37.917969 114.421875 37.917969 C 114.464844 37.917969 114.5 37.765625 114.5 37.582031 C 114.5 37.042969 114.65625 37.203125 114.683594 37.769531 L 114.707031 38.292969 L 115.105469 38.316406 L 115.5 38.34375 L 115.5 37.628906 C 115.5 37.210938 115.464844 36.917969 115.417969 36.917969 C 115.367188 36.917969 115.332031 36.65625 115.332031 36.296875 C 115.332031 35.859375 115.296875 35.640625 115.207031 35.554688 C 115.121094 35.46875 115.082031 35.257812 115.082031 34.882812 C 115.082031 34.570312 115.046875 34.332031 115 34.332031 C 114.953125 34.332031 114.917969 34.238281 114.917969 34.125 C 114.917969 33.929688 114.890625 33.917969 114.5 33.917969 L 114.082031 33.917969 L 114.082031 34.417969 M 118.917969 36.125 L 118.917969 38.332031 L 119.667969 38.332031 L 119.667969 37.917969 C 119.667969 37.601562 119.695312 37.5 119.792969 37.5 C 119.859375 37.5 119.917969 37.539062 119.917969 37.582031 C 119.917969 37.628906 120.046875 37.667969 120.207031 37.667969 C 120.492188 37.667969 120.5 37.675781 120.5 38.003906 L 120.5 38.34375 L 120.894531 38.316406 L 121.292969 38.292969 L 121.3125 36.105469 L 121.335938 33.917969 L 120.332031 33.917969 L 120.332031 34.5 C 120.332031 35.09375 120.265625 35.195312 120.035156 34.964844 C 119.960938 34.890625 119.917969 34.671875 119.917969 34.382812 L 119.917969 33.917969 L 118.917969 33.917969 L 118.917969 36.125 M 125.082031 36.125 L 125.082031 38.332031 L 125.917969 38.332031 L 125.917969 36.5 L 126.179688 36.5 C 126.601562 36.5 126.660156 36.335938 126.664062 35.179688 C 126.667969 33.914062 126.671875 33.917969 125.757812 33.917969 L 125.082031 33.917969 L 125.082031 36.125 M 130.5 35.957031 C 130.5 38.429688 130.460938 38.332031 131.433594 38.332031 C 131.957031 38.332031 132.082031 38.308594 132.082031 38.207031 C 132.082031 38.140625 132.140625 38.082031 132.207031 38.082031 C 132.316406 38.082031 132.332031 37.796875 132.332031 36 L 132.332031 33.917969 L 131.5 33.917969 L 131.5 35.707031 C 131.5 36.847656 131.46875 37.5 131.417969 37.5 C 131.363281 37.5 131.332031 36.847656 131.332031 35.707031 L 131.332031 33.917969 L 130.5 33.917969 L 130.5 35.957031 M 69.917969 36.121094 C 69.917969 37.382812 69.898438 37.570312 69.792969 37.53125 C 69.6875 37.488281 69.667969 37.25 69.667969 36.074219 C 69.667969 34.878906 69.683594 34.667969 69.792969 34.667969 C 69.898438 34.667969 69.917969 34.882812 69.917969 36.121094 M 81.332031 36.074219 C 81.332031 37.25 81.3125 37.488281 81.207031 37.53125 C 81.101562 37.570312 81.082031 37.382812 81.082031 36.121094 C 81.082031 34.882812 81.101562 34.667969 81.207031 34.667969 C 81.316406 34.667969 81.332031 34.878906 81.332031 36.074219 "/>
</g>
</svg>
